%TF.GenerationSoftware,KiCad,Pcbnew,9.0.6*%
%TF.CreationDate,2026-06-07T21:25:06-03:00*%
%TF.ProjectId,PCB PFC,50434220-5046-4432-9e6b-696361645f70,rev?*%
%TF.SameCoordinates,Original*%
%TF.FileFunction,Soldermask,Bot*%
%TF.FilePolarity,Negative*%
%FSLAX46Y46*%
G04 Gerber Fmt 4.6, Leading zero omitted, Abs format (unit mm)*
G04 Created by KiCad (PCBNEW 9.0.6) date 2026-06-07 21:25:06*
%MOMM*%
%LPD*%
G01*
G04 APERTURE LIST*
G04 Aperture macros list*
%AMRoundRect*
0 Rectangle with rounded corners*
0 $1 Rounding radius*
0 $2 $3 $4 $5 $6 $7 $8 $9 X,Y pos of 4 corners*
0 Add a 4 corners polygon primitive as box body*
4,1,4,$2,$3,$4,$5,$6,$7,$8,$9,$2,$3,0*
0 Add four circle primitives for the rounded corners*
1,1,$1+$1,$2,$3*
1,1,$1+$1,$4,$5*
1,1,$1+$1,$6,$7*
1,1,$1+$1,$8,$9*
0 Add four rect primitives between the rounded corners*
20,1,$1+$1,$2,$3,$4,$5,0*
20,1,$1+$1,$4,$5,$6,$7,0*
20,1,$1+$1,$6,$7,$8,$9,0*
20,1,$1+$1,$8,$9,$2,$3,0*%
G04 Aperture macros list end*
%ADD10RoundRect,0.250000X0.725000X-0.600000X0.725000X0.600000X-0.725000X0.600000X-0.725000X-0.600000X0*%
%ADD11O,1.950000X1.700000*%
%ADD12C,1.600000*%
%ADD13R,1.700000X1.700000*%
%ADD14O,1.700000X1.700000*%
%ADD15R,2.000000X2.000000*%
%ADD16C,2.000000*%
%ADD17C,1.200000*%
%ADD18O,2.820000X1.512000*%
%ADD19O,1.512000X2.820000*%
%ADD20R,1.600000X1.600000*%
%ADD21O,1.600000X1.600000*%
%ADD22C,1.552000*%
%ADD23RoundRect,0.250000X0.262500X0.450000X-0.262500X0.450000X-0.262500X-0.450000X0.262500X-0.450000X0*%
%ADD24RoundRect,0.250000X-0.262500X-0.450000X0.262500X-0.450000X0.262500X0.450000X-0.262500X0.450000X0*%
%ADD25RoundRect,0.225000X-0.250000X0.225000X-0.250000X-0.225000X0.250000X-0.225000X0.250000X0.225000X0*%
%ADD26RoundRect,0.150000X0.825000X0.150000X-0.825000X0.150000X-0.825000X-0.150000X0.825000X-0.150000X0*%
%ADD27RoundRect,0.225000X-0.225000X-0.250000X0.225000X-0.250000X0.225000X0.250000X-0.225000X0.250000X0*%
%ADD28RoundRect,0.150000X-0.150000X0.825000X-0.150000X-0.825000X0.150000X-0.825000X0.150000X0.825000X0*%
%ADD29RoundRect,0.150000X-0.587500X-0.150000X0.587500X-0.150000X0.587500X0.150000X-0.587500X0.150000X0*%
%ADD30RoundRect,0.225000X0.225000X0.250000X-0.225000X0.250000X-0.225000X-0.250000X0.225000X-0.250000X0*%
%ADD31RoundRect,0.225000X0.250000X-0.225000X0.250000X0.225000X-0.250000X0.225000X-0.250000X-0.225000X0*%
%ADD32RoundRect,0.150000X0.150000X-0.825000X0.150000X0.825000X-0.150000X0.825000X-0.150000X-0.825000X0*%
%ADD33RoundRect,0.150000X-0.825000X-0.150000X0.825000X-0.150000X0.825000X0.150000X-0.825000X0.150000X0*%
G04 APERTURE END LIST*
D10*
%TO.C,J4*%
X172350000Y-90300000D03*
D11*
X172350000Y-87800000D03*
X172350000Y-85300000D03*
%TD*%
D12*
%TO.C,AD1*%
X166740000Y-96000000D03*
X164200000Y-96000000D03*
X161660000Y-96000000D03*
X159120000Y-96000000D03*
X156580000Y-96000000D03*
X154040000Y-96000000D03*
X151500000Y-96000000D03*
%TD*%
D13*
%TO.C,J5*%
X143015000Y-97050000D03*
D14*
X143015000Y-94510000D03*
%TD*%
D15*
%TO.C,BZ1*%
X128600000Y-75775000D03*
D16*
X128600000Y-68175000D03*
%TD*%
D17*
%TO.C,Jack_V1*%
X167300000Y-69025000D03*
X167300000Y-66525000D03*
X162300000Y-74025000D03*
X157300000Y-69025000D03*
X157300000Y-66525000D03*
D18*
X162300000Y-69025000D03*
D19*
X157300000Y-74025000D03*
X167300000Y-74025000D03*
X159800000Y-74025000D03*
X164800000Y-74025000D03*
%TD*%
D20*
%TO.C,DZHW1*%
X147652500Y-102962500D03*
D21*
X155272500Y-102962500D03*
%TD*%
D20*
%TO.C,D1*%
X135340000Y-92390000D03*
D21*
X135340000Y-100010000D03*
%TD*%
D22*
%TO.C,U8*%
X152040000Y-85950000D03*
X152040000Y-83410000D03*
X152040000Y-80870000D03*
X152040000Y-78330000D03*
X152040000Y-73250000D03*
X152040000Y-75790000D03*
X136800000Y-68170000D03*
X152040000Y-68170000D03*
X136800000Y-70710000D03*
X136800000Y-73250000D03*
X136800000Y-75790000D03*
X136800000Y-78330000D03*
X136800000Y-80870000D03*
X136800000Y-83410000D03*
X136800000Y-85950000D03*
X152040000Y-70710000D03*
%TD*%
D17*
%TO.C,Jack_FES1*%
X137025000Y-102975000D03*
X134525000Y-102975000D03*
X142025000Y-107975000D03*
X137025000Y-112975000D03*
X134525000Y-112975000D03*
D19*
X137025000Y-107975000D03*
D18*
X142025000Y-112975000D03*
X142025000Y-102975000D03*
X142025000Y-110475000D03*
X142025000Y-105475000D03*
%TD*%
D16*
%TO.C,SW2*%
X126350000Y-81525000D03*
X132850000Y-81525000D03*
X126350000Y-86025000D03*
X132850000Y-86025000D03*
%TD*%
D20*
%TO.C,DZHW2*%
X147722500Y-99762500D03*
D21*
X155342500Y-99762500D03*
%TD*%
D23*
%TO.C,R4*%
X141760000Y-72500000D03*
X139935000Y-72500000D03*
%TD*%
D24*
%TO.C,RiAD1*%
X147637500Y-108762500D03*
X149462500Y-108762500D03*
%TD*%
D25*
%TO.C,Cd_4*%
X156100000Y-84800000D03*
X156100000Y-86350000D03*
%TD*%
D26*
%TO.C,U1*%
X171975000Y-79595000D03*
X171975000Y-80865000D03*
X171975000Y-82135000D03*
X171975000Y-83405000D03*
X167025000Y-83405000D03*
X167025000Y-82135000D03*
X167025000Y-80865000D03*
X167025000Y-79595000D03*
%TD*%
D27*
%TO.C,CLP2*%
X143600000Y-87450000D03*
X145150000Y-87450000D03*
%TD*%
%TO.C,Cd_2*%
X143610000Y-85850000D03*
X145160000Y-85850000D03*
%TD*%
D24*
%TO.C,R4how1*%
X159862500Y-103262500D03*
X161687500Y-103262500D03*
%TD*%
D28*
%TO.C,U4*%
X141180000Y-78600000D03*
X142450000Y-78600000D03*
X143720000Y-78600000D03*
X144990000Y-78600000D03*
X146260000Y-78600000D03*
X147530000Y-78600000D03*
X148800000Y-78600000D03*
X148800000Y-83550000D03*
X147530000Y-83550000D03*
X146260000Y-83550000D03*
X144990000Y-83550000D03*
X143720000Y-83550000D03*
X142450000Y-83550000D03*
X141180000Y-83550000D03*
%TD*%
D29*
%TO.C,D2*%
X138590000Y-98035000D03*
X138590000Y-96135000D03*
X140465000Y-97085000D03*
%TD*%
D24*
%TO.C,R2*%
X158675000Y-79025000D03*
X160500000Y-79025000D03*
%TD*%
%TO.C,Rbutton2*%
X128712500Y-88075000D03*
X130537500Y-88075000D03*
%TD*%
%TO.C,R1*%
X155125000Y-79025000D03*
X156950000Y-79025000D03*
%TD*%
D23*
%TO.C,R1how1*%
X161662500Y-105362500D03*
X159837500Y-105362500D03*
%TD*%
D30*
%TO.C,CLP1*%
X141710000Y-76400000D03*
X140160000Y-76400000D03*
%TD*%
D27*
%TO.C,Cd_01*%
X143510000Y-76350000D03*
X145060000Y-76350000D03*
%TD*%
D23*
%TO.C,R7*%
X147100000Y-68450000D03*
X145275000Y-68450000D03*
%TD*%
%TO.C,RfAD1*%
X149475000Y-110812500D03*
X147650000Y-110812500D03*
%TD*%
%TO.C,R3*%
X141760000Y-70500000D03*
X139935000Y-70500000D03*
%TD*%
D31*
%TO.C,Cd_6*%
X164000000Y-81275000D03*
X164000000Y-79725000D03*
%TD*%
%TO.C,Cd_7*%
X159862500Y-111212500D03*
X159862500Y-109662500D03*
%TD*%
D24*
%TO.C,R9*%
X140112500Y-89025000D03*
X141937500Y-89025000D03*
%TD*%
D23*
%TO.C,rhpad1*%
X148287500Y-95050000D03*
X146462500Y-95050000D03*
%TD*%
D24*
%TO.C,R6*%
X145285000Y-72500000D03*
X147110000Y-72500000D03*
%TD*%
D31*
%TO.C,Cschottky1*%
X135340000Y-97690000D03*
X135340000Y-96140000D03*
%TD*%
D30*
%TO.C,CHPad1*%
X148150000Y-97125000D03*
X146600000Y-97125000D03*
%TD*%
D27*
%TO.C,Cd_5*%
X166450000Y-86500000D03*
X168000000Y-86500000D03*
%TD*%
D24*
%TO.C,R11*%
X145275000Y-66250000D03*
X147100000Y-66250000D03*
%TD*%
D32*
%TO.C,U5*%
X161510000Y-86325000D03*
X160240000Y-86325000D03*
X158970000Y-86325000D03*
X157700000Y-86325000D03*
X157700000Y-81375000D03*
X158970000Y-81375000D03*
X160240000Y-81375000D03*
X161510000Y-81375000D03*
%TD*%
D23*
%TO.C,R3how1*%
X149462500Y-106712500D03*
X147637500Y-106712500D03*
%TD*%
D30*
%TO.C,CHP1*%
X141710000Y-68650000D03*
X140160000Y-68650000D03*
%TD*%
D24*
%TO.C,R5*%
X139935000Y-74550000D03*
X141760000Y-74550000D03*
%TD*%
D27*
%TO.C,CHP2*%
X145435000Y-70450000D03*
X146985000Y-70450000D03*
%TD*%
D25*
%TO.C,Cd_8*%
X152212500Y-102962500D03*
X152212500Y-104512500D03*
%TD*%
D23*
%TO.C,R10*%
X141975000Y-85850000D03*
X140150000Y-85850000D03*
%TD*%
D24*
%TO.C,R8*%
X147762500Y-85800000D03*
X149587500Y-85800000D03*
%TD*%
%TO.C,R2how1*%
X159825000Y-107462500D03*
X161650000Y-107462500D03*
%TD*%
D33*
%TO.C,U3*%
X152232500Y-110012500D03*
X152232500Y-108742500D03*
X152232500Y-107472500D03*
X152232500Y-106202500D03*
X157182500Y-106202500D03*
X157182500Y-107472500D03*
X157182500Y-108742500D03*
X157182500Y-110012500D03*
%TD*%
M02*
