%TF.GenerationSoftware,KiCad,Pcbnew,9.0.6*%
%TF.CreationDate,2026-06-07T21:25:06-03:00*%
%TF.ProjectId,PCB PFC,50434220-5046-4432-9e6b-696361645f70,rev?*%
%TF.SameCoordinates,Original*%
%TF.FileFunction,Copper,L2,Bot*%
%TF.FilePolarity,Positive*%
%FSLAX46Y46*%
G04 Gerber Fmt 4.6, Leading zero omitted, Abs format (unit mm)*
G04 Created by KiCad (PCBNEW 9.0.6) date 2026-06-07 21:25:06*
%MOMM*%
%LPD*%
G01*
G04 APERTURE LIST*
G04 Aperture macros list*
%AMRoundRect*
0 Rectangle with rounded corners*
0 $1 Rounding radius*
0 $2 $3 $4 $5 $6 $7 $8 $9 X,Y pos of 4 corners*
0 Add a 4 corners polygon primitive as box body*
4,1,4,$2,$3,$4,$5,$6,$7,$8,$9,$2,$3,0*
0 Add four circle primitives for the rounded corners*
1,1,$1+$1,$2,$3*
1,1,$1+$1,$4,$5*
1,1,$1+$1,$6,$7*
1,1,$1+$1,$8,$9*
0 Add four rect primitives between the rounded corners*
20,1,$1+$1,$2,$3,$4,$5,0*
20,1,$1+$1,$4,$5,$6,$7,0*
20,1,$1+$1,$6,$7,$8,$9,0*
20,1,$1+$1,$8,$9,$2,$3,0*%
G04 Aperture macros list end*
%ADD10C,0.437500*%
%TA.AperFunction,NonConductor*%
%ADD11C,0.437500*%
%TD*%
%TA.AperFunction,ComponentPad*%
%ADD12RoundRect,0.250000X0.725000X-0.600000X0.725000X0.600000X-0.725000X0.600000X-0.725000X-0.600000X0*%
%TD*%
%TA.AperFunction,ComponentPad*%
%ADD13O,1.950000X1.700000*%
%TD*%
%TA.AperFunction,ComponentPad*%
%ADD14C,1.600000*%
%TD*%
%TA.AperFunction,ComponentPad*%
%ADD15R,1.700000X1.700000*%
%TD*%
%TA.AperFunction,ComponentPad*%
%ADD16O,1.700000X1.700000*%
%TD*%
%TA.AperFunction,ComponentPad*%
%ADD17R,2.000000X2.000000*%
%TD*%
%TA.AperFunction,ComponentPad*%
%ADD18C,2.000000*%
%TD*%
%TA.AperFunction,ComponentPad*%
%ADD19O,2.616000X1.308000*%
%TD*%
%TA.AperFunction,ComponentPad*%
%ADD20O,1.308000X2.616000*%
%TD*%
%TA.AperFunction,ComponentPad*%
%ADD21R,1.600000X1.600000*%
%TD*%
%TA.AperFunction,ComponentPad*%
%ADD22O,1.600000X1.600000*%
%TD*%
%TA.AperFunction,ComponentPad*%
%ADD23C,1.348000*%
%TD*%
%TA.AperFunction,SMDPad,CuDef*%
%ADD24RoundRect,0.250000X0.262500X0.450000X-0.262500X0.450000X-0.262500X-0.450000X0.262500X-0.450000X0*%
%TD*%
%TA.AperFunction,SMDPad,CuDef*%
%ADD25RoundRect,0.250000X-0.262500X-0.450000X0.262500X-0.450000X0.262500X0.450000X-0.262500X0.450000X0*%
%TD*%
%TA.AperFunction,SMDPad,CuDef*%
%ADD26RoundRect,0.225000X-0.250000X0.225000X-0.250000X-0.225000X0.250000X-0.225000X0.250000X0.225000X0*%
%TD*%
%TA.AperFunction,SMDPad,CuDef*%
%ADD27RoundRect,0.150000X0.825000X0.150000X-0.825000X0.150000X-0.825000X-0.150000X0.825000X-0.150000X0*%
%TD*%
%TA.AperFunction,SMDPad,CuDef*%
%ADD28RoundRect,0.225000X-0.225000X-0.250000X0.225000X-0.250000X0.225000X0.250000X-0.225000X0.250000X0*%
%TD*%
%TA.AperFunction,SMDPad,CuDef*%
%ADD29RoundRect,0.150000X-0.150000X0.825000X-0.150000X-0.825000X0.150000X-0.825000X0.150000X0.825000X0*%
%TD*%
%TA.AperFunction,SMDPad,CuDef*%
%ADD30RoundRect,0.150000X-0.587500X-0.150000X0.587500X-0.150000X0.587500X0.150000X-0.587500X0.150000X0*%
%TD*%
%TA.AperFunction,SMDPad,CuDef*%
%ADD31RoundRect,0.225000X0.225000X0.250000X-0.225000X0.250000X-0.225000X-0.250000X0.225000X-0.250000X0*%
%TD*%
%TA.AperFunction,SMDPad,CuDef*%
%ADD32RoundRect,0.225000X0.250000X-0.225000X0.250000X0.225000X-0.250000X0.225000X-0.250000X-0.225000X0*%
%TD*%
%TA.AperFunction,SMDPad,CuDef*%
%ADD33RoundRect,0.150000X0.150000X-0.825000X0.150000X0.825000X-0.150000X0.825000X-0.150000X-0.825000X0*%
%TD*%
%TA.AperFunction,SMDPad,CuDef*%
%ADD34RoundRect,0.150000X-0.825000X-0.150000X0.825000X-0.150000X0.825000X0.150000X-0.825000X0.150000X0*%
%TD*%
%TA.AperFunction,ViaPad*%
%ADD35C,4.000000*%
%TD*%
%TA.AperFunction,ViaPad*%
%ADD36C,1.000000*%
%TD*%
%TA.AperFunction,Conductor*%
%ADD37C,0.750000*%
%TD*%
%TA.AperFunction,Conductor*%
%ADD38C,0.450000*%
%TD*%
%TA.AperFunction,Conductor*%
%ADD39C,0.500000*%
%TD*%
G04 APERTURE END LIST*
D10*
D11*
X165945505Y-62946417D02*
X166028838Y-63029751D01*
X166028838Y-63029751D02*
X166278838Y-63113084D01*
X166278838Y-63113084D02*
X166445505Y-63113084D01*
X166445505Y-63113084D02*
X166695505Y-63029751D01*
X166695505Y-63029751D02*
X166862172Y-62863084D01*
X166862172Y-62863084D02*
X166945505Y-62696417D01*
X166945505Y-62696417D02*
X167028838Y-62363084D01*
X167028838Y-62363084D02*
X167028838Y-62113084D01*
X167028838Y-62113084D02*
X166945505Y-61779751D01*
X166945505Y-61779751D02*
X166862172Y-61613084D01*
X166862172Y-61613084D02*
X166695505Y-61446417D01*
X166695505Y-61446417D02*
X166445505Y-61363084D01*
X166445505Y-61363084D02*
X166278838Y-61363084D01*
X166278838Y-61363084D02*
X166028838Y-61446417D01*
X166028838Y-61446417D02*
X165945505Y-61529751D01*
X165195505Y-63113084D02*
X165195505Y-61363084D01*
X165195505Y-62196417D02*
X164195505Y-62196417D01*
X164195505Y-63113084D02*
X164195505Y-61363084D01*
X163362172Y-63113084D02*
X163362172Y-61363084D01*
X162528839Y-63113084D02*
X162528839Y-61363084D01*
X162528839Y-61363084D02*
X162112172Y-61363084D01*
X162112172Y-61363084D02*
X161862172Y-61446417D01*
X161862172Y-61446417D02*
X161695506Y-61613084D01*
X161695506Y-61613084D02*
X161612172Y-61779751D01*
X161612172Y-61779751D02*
X161528839Y-62113084D01*
X161528839Y-62113084D02*
X161528839Y-62363084D01*
X161528839Y-62363084D02*
X161612172Y-62696417D01*
X161612172Y-62696417D02*
X161695506Y-62863084D01*
X161695506Y-62863084D02*
X161862172Y-63029751D01*
X161862172Y-63029751D02*
X162112172Y-63113084D01*
X162112172Y-63113084D02*
X162528839Y-63113084D01*
X160445506Y-61363084D02*
X160112172Y-61363084D01*
X160112172Y-61363084D02*
X159945506Y-61446417D01*
X159945506Y-61446417D02*
X159778839Y-61613084D01*
X159778839Y-61613084D02*
X159695506Y-61946417D01*
X159695506Y-61946417D02*
X159695506Y-62529751D01*
X159695506Y-62529751D02*
X159778839Y-62863084D01*
X159778839Y-62863084D02*
X159945506Y-63029751D01*
X159945506Y-63029751D02*
X160112172Y-63113084D01*
X160112172Y-63113084D02*
X160445506Y-63113084D01*
X160445506Y-63113084D02*
X160612172Y-63029751D01*
X160612172Y-63029751D02*
X160778839Y-62863084D01*
X160778839Y-62863084D02*
X160862172Y-62529751D01*
X160862172Y-62529751D02*
X160862172Y-61946417D01*
X160862172Y-61946417D02*
X160778839Y-61613084D01*
X160778839Y-61613084D02*
X160612172Y-61446417D01*
X160612172Y-61446417D02*
X160445506Y-61363084D01*
X157945506Y-63113084D02*
X158528839Y-62279751D01*
X158945506Y-63113084D02*
X158945506Y-61363084D01*
X158945506Y-61363084D02*
X158278839Y-61363084D01*
X158278839Y-61363084D02*
X158112173Y-61446417D01*
X158112173Y-61446417D02*
X158028839Y-61529751D01*
X158028839Y-61529751D02*
X157945506Y-61696417D01*
X157945506Y-61696417D02*
X157945506Y-61946417D01*
X157945506Y-61946417D02*
X158028839Y-62113084D01*
X158028839Y-62113084D02*
X158112173Y-62196417D01*
X158112173Y-62196417D02*
X158278839Y-62279751D01*
X158278839Y-62279751D02*
X158945506Y-62279751D01*
X157195506Y-63113084D02*
X157195506Y-61363084D01*
D12*
%TO.P,J4,1,Pin_1*%
%TO.N,/-*%
X172350000Y-90300000D03*
D13*
%TO.P,J4,2,Pin_2*%
%TO.N,GNDREF*%
X172350000Y-87800000D03*
%TO.P,J4,3,Pin_3*%
%TO.N,/+*%
X172350000Y-85300000D03*
%TD*%
D14*
%TO.P,AD1,1,REF*%
%TO.N,unconnected-(AD1-REF-Pad1)*%
X166740000Y-96000000D03*
%TO.P,AD1,2,VCC*%
%TO.N,/+*%
X164200000Y-96000000D03*
%TO.P,AD1,3,GND*%
%TO.N,GNDREF*%
X161660000Y-96000000D03*
%TO.P,AD1,4,DATA*%
%TO.N,/data*%
X159120000Y-96000000D03*
%TO.P,AD1,5,CLK*%
%TO.N,/clk*%
X156580000Y-96000000D03*
%TO.P,AD1,6,FNC*%
%TO.N,/fnc*%
X154040000Y-96000000D03*
%TO.P,AD1,7,OUT*%
%TO.N,Net-(AD1-OUT)*%
X151500000Y-96000000D03*
%TD*%
D15*
%TO.P,J5,1,Pin_1*%
%TO.N,/CON_BAT54S*%
X143015000Y-97050000D03*
D16*
%TO.P,J5,2,Pin_2*%
%TO.N,/SIN_BAT54S*%
X143015000Y-94510000D03*
%TD*%
D17*
%TO.P,BZ1,1,+*%
%TO.N,/alarm*%
X128600000Y-75775000D03*
D18*
%TO.P,BZ1,2,-*%
%TO.N,GNDREF*%
X128600000Y-68175000D03*
%TD*%
D19*
%TO.P,Jack_V1,1*%
%TO.N,/ECG-*%
X162300000Y-69025000D03*
D20*
%TO.P,Jack_V1,2*%
%TO.N,unconnected-(Jack_V1-Pad2)*%
X157300000Y-74025000D03*
%TO.P,Jack_V1,3*%
%TO.N,/ECG+*%
X167300000Y-74025000D03*
%TO.P,Jack_V1,10*%
%TO.N,unconnected-(Jack_V1-Pad10)*%
X159800000Y-74025000D03*
%TO.P,Jack_V1,11*%
%TO.N,unconnected-(Jack_V1-Pad11)*%
X164800000Y-74025000D03*
%TD*%
D21*
%TO.P,DZHW1,1,K*%
%TO.N,/FesOut+*%
X147652500Y-102962500D03*
D22*
%TO.P,DZHW1,2,A*%
%TO.N,GNDREF*%
X155272500Y-102962500D03*
%TD*%
D21*
%TO.P,D1,1,K*%
%TO.N,/Vout*%
X135340000Y-92390000D03*
D22*
%TO.P,D1,2,A*%
%TO.N,GNDREF*%
X135340000Y-100010000D03*
%TD*%
D23*
%TO.P,U8,0,GPIO0*%
%TO.N,/Vout*%
X152040000Y-85950000D03*
%TO.P,U8,1,GPIO1*%
%TO.N,unconnected-(U8-GPIO1-Pad1)*%
X152040000Y-83410000D03*
%TO.P,U8,2,GPIO2*%
%TO.N,unconnected-(U8-GPIO2-Pad2)*%
X152040000Y-80870000D03*
%TO.P,U8,3,GPIO3*%
%TO.N,unconnected-(U8-GPIO3-Pad3)*%
X152040000Y-78330000D03*
%TO.P,U8,3.3,3V3*%
%TO.N,unconnected-(U8-3V3-Pad3.3)*%
X152040000Y-73250000D03*
%TO.P,U8,4,GPIO4*%
%TO.N,/clk*%
X152040000Y-75790000D03*
%TO.P,U8,5,GPIO5*%
%TO.N,/alarm*%
X136800000Y-68170000D03*
%TO.P,U8,5V,5V*%
%TO.N,/+*%
X152040000Y-68170000D03*
%TO.P,U8,6,GPIO6*%
%TO.N,/data*%
X136800000Y-70710000D03*
%TO.P,U8,7,GPIO7*%
%TO.N,/fnc*%
X136800000Y-73250000D03*
%TO.P,U8,8,GPIO8*%
%TO.N,unconnected-(U8-GPIO8-Pad8)*%
X136800000Y-75790000D03*
%TO.P,U8,9,GPIO9*%
%TO.N,unconnected-(U8-GPIO9-Pad9)*%
X136800000Y-78330000D03*
%TO.P,U8,10,GPIO10*%
%TO.N,unconnected-(U8-GPIO10-Pad10)*%
X136800000Y-80870000D03*
%TO.P,U8,20,GPIO20*%
%TO.N,Net-(U8-GPIO20)*%
X136800000Y-83410000D03*
%TO.P,U8,21,GPIO21*%
%TO.N,unconnected-(U8-GPIO21-Pad21)*%
X136800000Y-85950000D03*
%TO.P,U8,G,GND*%
%TO.N,GNDREF*%
X152040000Y-70710000D03*
%TD*%
D20*
%TO.P,Jack_FES1,1*%
%TO.N,GNDREF*%
X137025000Y-107975000D03*
D19*
%TO.P,Jack_FES1,2*%
%TO.N,unconnected-(Jack_FES1-Pad2)*%
X142025000Y-112975000D03*
%TO.P,Jack_FES1,3*%
%TO.N,/FesOut+*%
X142025000Y-102975000D03*
%TO.P,Jack_FES1,10*%
%TO.N,unconnected-(Jack_FES1-Pad10)*%
X142025000Y-110475000D03*
%TO.P,Jack_FES1,11*%
%TO.N,unconnected-(Jack_FES1-Pad11)*%
X142025000Y-105475000D03*
%TD*%
D18*
%TO.P,SW2,1,1*%
%TO.N,/+*%
X126350000Y-81525000D03*
X132850000Y-81525000D03*
%TO.P,SW2,2,2*%
%TO.N,Net-(U8-GPIO20)*%
X126350000Y-86025000D03*
X132850000Y-86025000D03*
%TD*%
D21*
%TO.P,DZHW2,1,K*%
%TO.N,/FesOut+*%
X147722500Y-99762500D03*
D22*
%TO.P,DZHW2,2,A*%
%TO.N,GNDREF*%
X155342500Y-99762500D03*
%TD*%
D24*
%TO.P,R4,1*%
%TO.N,Net-(U4A--)*%
X141760000Y-72500000D03*
%TO.P,R4,2*%
%TO.N,Net-(CHP1-Pad2)*%
X139935000Y-72500000D03*
%TD*%
D25*
%TO.P,RiAD1,1*%
%TO.N,/outAD*%
X147637500Y-108762500D03*
%TO.P,RiAD1,2*%
%TO.N,Net-(U3A--)*%
X149462500Y-108762500D03*
%TD*%
D26*
%TO.P,Cd_4,1*%
%TO.N,GNDREF*%
X156100000Y-84800000D03*
%TO.P,Cd_4,2*%
%TO.N,/-*%
X156100000Y-86350000D03*
%TD*%
D27*
%TO.P,U1,1,Rg*%
%TO.N,/RG_1*%
X171975000Y-79595000D03*
%TO.P,U1,2,-*%
%TO.N,/ECG-*%
X171975000Y-80865000D03*
%TO.P,U1,3,+*%
%TO.N,/ECG+*%
X171975000Y-82135000D03*
%TO.P,U1,4,V-*%
%TO.N,/-*%
X171975000Y-83405000D03*
%TO.P,U1,5,Ref*%
%TO.N,GNDREF*%
X167025000Y-83405000D03*
%TO.P,U1,6*%
%TO.N,/INAout*%
X167025000Y-82135000D03*
%TO.P,U1,7,V+*%
%TO.N,/+*%
X167025000Y-80865000D03*
%TO.P,U1,8,Rg*%
%TO.N,/RG_2*%
X167025000Y-79595000D03*
%TD*%
D28*
%TO.P,CLP2,1*%
%TO.N,GNDREF*%
X143600000Y-87450000D03*
%TO.P,CLP2,2*%
%TO.N,Net-(U4C-+)*%
X145150000Y-87450000D03*
%TD*%
%TO.P,Cd_2,1*%
%TO.N,GNDREF*%
X143610000Y-85850000D03*
%TO.P,Cd_2,2*%
%TO.N,/-*%
X145160000Y-85850000D03*
%TD*%
D25*
%TO.P,R4how1,1*%
%TO.N,/FesOut+*%
X159862500Y-103262500D03*
%TO.P,R4how1,2*%
%TO.N,Net-(R2how1-Pad2)*%
X161687500Y-103262500D03*
%TD*%
D29*
%TO.P,U4,1*%
%TO.N,Net-(CHP2-Pad1)*%
X141180000Y-78600000D03*
%TO.P,U4,2,-*%
%TO.N,Net-(U4A--)*%
X142450000Y-78600000D03*
%TO.P,U4,3,+*%
%TO.N,GNDREF*%
X143720000Y-78600000D03*
%TO.P,U4,4,V+*%
%TO.N,/+*%
X144990000Y-78600000D03*
%TO.P,U4,5,+*%
%TO.N,GNDREF*%
X146260000Y-78600000D03*
%TO.P,U4,6,-*%
%TO.N,Net-(U4B--)*%
X147530000Y-78600000D03*
%TO.P,U4,7*%
%TO.N,Net-(R11-Pad2)*%
X148800000Y-78600000D03*
%TO.P,U4,8*%
%TO.N,Net-(U4C--)*%
X148800000Y-83550000D03*
%TO.P,U4,9,-*%
X147530000Y-83550000D03*
%TO.P,U4,10,+*%
%TO.N,Net-(U4C-+)*%
X146260000Y-83550000D03*
%TO.P,U4,11,V-*%
%TO.N,/-*%
X144990000Y-83550000D03*
%TO.P,U4,12,+*%
%TO.N,GNDREF*%
X143720000Y-83550000D03*
%TO.P,U4,13,-*%
%TO.N,Net-(U4D--)*%
X142450000Y-83550000D03*
%TO.P,U4,14*%
%TO.N,/SIN_BAT54S*%
X141180000Y-83550000D03*
%TD*%
D30*
%TO.P,D2,1,A*%
%TO.N,unconnected-(D2-A-Pad1)*%
X138590000Y-98035000D03*
%TO.P,D2,2,K*%
%TO.N,/Vout*%
X138590000Y-96135000D03*
%TO.P,D2,3,COM*%
%TO.N,/CON_BAT54S*%
X140465000Y-97085000D03*
%TD*%
D25*
%TO.P,R2,1*%
%TO.N,Net-(U5B--)*%
X158675000Y-79025000D03*
%TO.P,R2,2*%
%TO.N,Net-(CHP1-Pad1)*%
X160500000Y-79025000D03*
%TD*%
%TO.P,Rbutton2,1*%
%TO.N,Net-(U8-GPIO20)*%
X128712500Y-88075000D03*
%TO.P,Rbutton2,2*%
%TO.N,GNDREF*%
X130537500Y-88075000D03*
%TD*%
%TO.P,R1,1*%
%TO.N,Net-(U5A--)*%
X155125000Y-79025000D03*
%TO.P,R1,2*%
%TO.N,Net-(U5B--)*%
X156950000Y-79025000D03*
%TD*%
D24*
%TO.P,R1how1,1*%
%TO.N,Net-(R1how1-Pad1)*%
X161662500Y-105362500D03*
%TO.P,R1how1,2*%
%TO.N,Net-(U3B--)*%
X159837500Y-105362500D03*
%TD*%
D31*
%TO.P,CLP1,1*%
%TO.N,Net-(U4A--)*%
X141710000Y-76400000D03*
%TO.P,CLP1,2*%
%TO.N,Net-(CHP2-Pad1)*%
X140160000Y-76400000D03*
%TD*%
D28*
%TO.P,Cd_01,1*%
%TO.N,GNDREF*%
X143510000Y-76350000D03*
%TO.P,Cd_01,2*%
%TO.N,/+*%
X145060000Y-76350000D03*
%TD*%
D24*
%TO.P,R7,1*%
%TO.N,Net-(U4B--)*%
X147100000Y-68450000D03*
%TO.P,R7,2*%
%TO.N,Net-(R11-Pad1)*%
X145275000Y-68450000D03*
%TD*%
%TO.P,RfAD1,1*%
%TO.N,Net-(U3A--)*%
X149475000Y-110812500D03*
%TO.P,RfAD1,2*%
%TO.N,Net-(R1how1-Pad1)*%
X147650000Y-110812500D03*
%TD*%
%TO.P,R3,1*%
%TO.N,GNDREF*%
X141760000Y-70500000D03*
%TO.P,R3,2*%
%TO.N,Net-(CHP1-Pad2)*%
X139935000Y-70500000D03*
%TD*%
D32*
%TO.P,Cd_6,1*%
%TO.N,GNDREF*%
X164000000Y-81275000D03*
%TO.P,Cd_6,2*%
%TO.N,/+*%
X164000000Y-79725000D03*
%TD*%
%TO.P,Cd_7,1*%
%TO.N,GNDREF*%
X159862500Y-111212500D03*
%TO.P,Cd_7,2*%
%TO.N,/+*%
X159862500Y-109662500D03*
%TD*%
D25*
%TO.P,R9,1*%
%TO.N,Net-(U4C--)*%
X140112500Y-89025000D03*
%TO.P,R9,2*%
%TO.N,Net-(U4D--)*%
X141937500Y-89025000D03*
%TD*%
D24*
%TO.P,rhpad1,1*%
%TO.N,GNDREF*%
X148287500Y-95050000D03*
%TO.P,rhpad1,2*%
%TO.N,/outAD*%
X146462500Y-95050000D03*
%TD*%
D25*
%TO.P,R6,1*%
%TO.N,Net-(U4B--)*%
X145285000Y-72500000D03*
%TO.P,R6,2*%
%TO.N,Net-(CHP2-Pad2)*%
X147110000Y-72500000D03*
%TD*%
D32*
%TO.P,Cschottky1,1*%
%TO.N,GNDREF*%
X135340000Y-97690000D03*
%TO.P,Cschottky1,2*%
%TO.N,/Vout*%
X135340000Y-96140000D03*
%TD*%
D31*
%TO.P,CHPad1,1*%
%TO.N,Net-(AD1-OUT)*%
X148150000Y-97125000D03*
%TO.P,CHPad1,2*%
%TO.N,/outAD*%
X146600000Y-97125000D03*
%TD*%
D28*
%TO.P,Cd_5,1*%
%TO.N,GNDREF*%
X166450000Y-86500000D03*
%TO.P,Cd_5,2*%
%TO.N,/-*%
X168000000Y-86500000D03*
%TD*%
D25*
%TO.P,R11,1*%
%TO.N,Net-(R11-Pad1)*%
X145275000Y-66250000D03*
%TO.P,R11,2*%
%TO.N,Net-(R11-Pad2)*%
X147100000Y-66250000D03*
%TD*%
D33*
%TO.P,U5,1*%
%TO.N,Net-(U5A--)*%
X161510000Y-86325000D03*
%TO.P,U5,2,-*%
X160240000Y-86325000D03*
%TO.P,U5,3,+*%
%TO.N,/INAout*%
X158970000Y-86325000D03*
%TO.P,U5,4,V-*%
%TO.N,/-*%
X157700000Y-86325000D03*
%TO.P,U5,5,+*%
%TO.N,GNDREF*%
X157700000Y-81375000D03*
%TO.P,U5,6,-*%
%TO.N,Net-(U5B--)*%
X158970000Y-81375000D03*
%TO.P,U5,7*%
%TO.N,Net-(CHP1-Pad1)*%
X160240000Y-81375000D03*
%TO.P,U5,8,V+*%
%TO.N,/+*%
X161510000Y-81375000D03*
%TD*%
D24*
%TO.P,R3how1,1*%
%TO.N,GNDREF*%
X149462500Y-106712500D03*
%TO.P,R3how1,2*%
%TO.N,/FesOut+*%
X147637500Y-106712500D03*
%TD*%
D31*
%TO.P,CHP1,1*%
%TO.N,Net-(CHP1-Pad1)*%
X141710000Y-68650000D03*
%TO.P,CHP1,2*%
%TO.N,Net-(CHP1-Pad2)*%
X140160000Y-68650000D03*
%TD*%
D25*
%TO.P,R5,1*%
%TO.N,Net-(CHP2-Pad1)*%
X139935000Y-74550000D03*
%TO.P,R5,2*%
%TO.N,Net-(U4A--)*%
X141760000Y-74550000D03*
%TD*%
D28*
%TO.P,CHP2,1*%
%TO.N,Net-(CHP2-Pad1)*%
X145435000Y-70450000D03*
%TO.P,CHP2,2*%
%TO.N,Net-(CHP2-Pad2)*%
X146985000Y-70450000D03*
%TD*%
D26*
%TO.P,Cd_8,1*%
%TO.N,GNDREF*%
X152212500Y-102962500D03*
%TO.P,Cd_8,2*%
%TO.N,/-*%
X152212500Y-104512500D03*
%TD*%
D24*
%TO.P,R10,1*%
%TO.N,Net-(U4D--)*%
X141975000Y-85850000D03*
%TO.P,R10,2*%
%TO.N,/SIN_BAT54S*%
X140150000Y-85850000D03*
%TD*%
D25*
%TO.P,R8,1*%
%TO.N,Net-(U4C-+)*%
X147762500Y-85800000D03*
%TO.P,R8,2*%
%TO.N,Net-(R11-Pad2)*%
X149587500Y-85800000D03*
%TD*%
%TO.P,R2how1,1*%
%TO.N,Net-(U3B--)*%
X159825000Y-107462500D03*
%TO.P,R2how1,2*%
%TO.N,Net-(R2how1-Pad2)*%
X161650000Y-107462500D03*
%TD*%
D34*
%TO.P,U3,1*%
%TO.N,Net-(R1how1-Pad1)*%
X152232500Y-110012500D03*
%TO.P,U3,2,-*%
%TO.N,Net-(U3A--)*%
X152232500Y-108742500D03*
%TO.P,U3,3,+*%
%TO.N,GNDREF*%
X152232500Y-107472500D03*
%TO.P,U3,4,V-*%
%TO.N,/-*%
X152232500Y-106202500D03*
%TO.P,U3,5,+*%
%TO.N,/FesOut+*%
X157182500Y-106202500D03*
%TO.P,U3,6,-*%
%TO.N,Net-(U3B--)*%
X157182500Y-107472500D03*
%TO.P,U3,7*%
%TO.N,Net-(R2how1-Pad2)*%
X157182500Y-108742500D03*
%TO.P,U3,8,V+*%
%TO.N,/+*%
X157182500Y-110012500D03*
%TD*%
D35*
%TO.N,*%
X120725000Y-75525000D03*
X172050000Y-64025000D03*
X171950000Y-103975000D03*
D36*
%TO.N,GNDREF*%
X150000000Y-93500000D03*
X153850000Y-69250000D03*
X164000000Y-85300000D03*
X142925000Y-63250000D03*
X150000000Y-100000000D03*
X164500000Y-87200000D03*
X164000000Y-83000000D03*
X160000000Y-94000000D03*
X153000000Y-94000000D03*
X142950000Y-66900000D03*
X153850000Y-63275000D03*
X164000000Y-94000000D03*
%TO.N,/outAD*%
X145500000Y-105500000D03*
X145500000Y-101500000D03*
%TO.N,/+*%
X169000000Y-108000000D03*
X146575000Y-76325000D03*
X161650000Y-111150000D03*
X169275000Y-111150000D03*
X165500000Y-108000000D03*
X149950000Y-76325000D03*
%TO.N,Net-(CHP1-Pad1)*%
X155225000Y-62150000D03*
X141700000Y-62075000D03*
X155225000Y-69200000D03*
X141700000Y-66900000D03*
%TO.N,/Vout*%
X150575000Y-91775000D03*
X141045000Y-91755000D03*
%TO.N,/-*%
X170625000Y-93500000D03*
X157375000Y-99775000D03*
X147375000Y-90150000D03*
X157025000Y-90150000D03*
X176000000Y-93500000D03*
X172375000Y-99750000D03*
%TO.N,/SIN_BAT54S*%
X140150000Y-87450000D03*
X137750000Y-87450000D03*
%TO.N,Net-(U5A--)*%
X163250000Y-89175000D03*
X163250000Y-86325000D03*
%TO.N,Net-(R2how1-Pad2)*%
X164162500Y-109512500D03*
X161712500Y-109512500D03*
%TO.N,/fnc*%
X162000000Y-92575000D03*
X122425000Y-79750000D03*
X129450000Y-79750000D03*
X155000000Y-92500000D03*
%TO.N,/data*%
X122425000Y-78375000D03*
X129450000Y-78375000D03*
%TD*%
D37*
%TO.N,/alarm*%
X134255000Y-68170000D02*
X128600000Y-73825000D01*
X136800000Y-68170000D02*
X134255000Y-68170000D01*
X128600000Y-73825000D02*
X128600000Y-75775000D01*
D38*
%TO.N,GNDREF*%
X151000000Y-100000000D02*
X152212500Y-101212500D01*
X146260000Y-80040000D02*
X145650000Y-80650000D01*
X142960000Y-68740000D02*
X142960000Y-66910000D01*
X154162500Y-110662500D02*
X154162500Y-108012500D01*
X161660000Y-94660000D02*
X161660000Y-96000000D01*
D37*
X150162500Y-102962500D02*
X149462500Y-103662500D01*
X130537500Y-93662500D02*
X134565000Y-97690000D01*
X144441000Y-92934000D02*
X145525000Y-91850000D01*
X153850000Y-69850000D02*
X153850000Y-69250000D01*
D38*
X158200000Y-83125000D02*
X162150000Y-83125000D01*
D37*
X152040000Y-70710000D02*
X152990000Y-70710000D01*
X155342500Y-102892500D02*
X155272500Y-102962500D01*
D38*
X166500000Y-83930000D02*
X166500000Y-85500000D01*
X161000000Y-94000000D02*
X161660000Y-94660000D01*
D37*
X123950000Y-88125000D02*
X125975000Y-90150000D01*
D38*
X148287500Y-94712500D02*
X149500000Y-93500000D01*
D37*
X130537500Y-90150000D02*
X130537500Y-93662500D01*
D38*
X154162500Y-108012500D02*
X153612500Y-107462500D01*
X157700000Y-82625000D02*
X157700000Y-81375000D01*
X143600000Y-85860000D02*
X143610000Y-85850000D01*
X166450000Y-86500000D02*
X165200000Y-86500000D01*
X150362500Y-106712500D02*
X149462500Y-106712500D01*
D37*
X130537500Y-88075000D02*
X130537500Y-90150000D01*
X149462500Y-103662500D02*
X149462500Y-106712500D01*
X123950000Y-72825000D02*
X123950000Y-88125000D01*
D38*
X165000000Y-81500000D02*
X164225000Y-81500000D01*
D37*
X142925000Y-63250000D02*
X153825000Y-63250000D01*
D38*
X143720000Y-84990000D02*
X143720000Y-83550000D01*
X143610000Y-85850000D02*
X143610000Y-85100000D01*
X143720000Y-77310000D02*
X143720000Y-78600000D01*
D37*
X142925000Y-63250000D02*
X131250000Y-63250000D01*
D38*
X156525000Y-84800000D02*
X158200000Y-83125000D01*
X150000000Y-100000000D02*
X151000000Y-100000000D01*
D37*
X138025000Y-107975000D02*
X139150000Y-106850000D01*
X144340000Y-100010000D02*
X144441000Y-99909000D01*
X139250000Y-100010000D02*
X144340000Y-100010000D01*
D38*
X153602500Y-107472500D02*
X152232500Y-107472500D01*
X151122500Y-107472500D02*
X150362500Y-106712500D01*
D37*
X145525000Y-91850000D02*
X148287500Y-94612500D01*
D38*
X152212500Y-101212500D02*
X152212500Y-102962500D01*
X150000000Y-93500000D02*
X152500000Y-93500000D01*
D37*
X134565000Y-97690000D02*
X135340000Y-97690000D01*
X148287500Y-94612500D02*
X148287500Y-95050000D01*
D38*
X142960000Y-66910000D02*
X142950000Y-66900000D01*
D37*
X125975000Y-90150000D02*
X130537500Y-90150000D01*
D38*
X153612500Y-107462500D02*
X153602500Y-107472500D01*
D37*
X137025000Y-107975000D02*
X138025000Y-107975000D01*
D38*
X165750000Y-87200000D02*
X166450000Y-86500000D01*
D37*
X135340000Y-97690000D02*
X135340000Y-100010000D01*
D38*
X149500000Y-93500000D02*
X150000000Y-93500000D01*
X168405000Y-83405000D02*
X167025000Y-83405000D01*
D37*
X153825000Y-63250000D02*
X153850000Y-63275000D01*
X139150000Y-100110000D02*
X139250000Y-100010000D01*
D38*
X143720000Y-78600000D02*
X143720000Y-80650000D01*
D37*
X139150000Y-106850000D02*
X139150000Y-100110000D01*
D38*
X166500000Y-85500000D02*
X166450000Y-85550000D01*
X152500000Y-93500000D02*
X153000000Y-94000000D01*
X148287500Y-95050000D02*
X148287500Y-94712500D01*
X143610000Y-85100000D02*
X143720000Y-84990000D01*
X159862500Y-111212500D02*
X154712500Y-111212500D01*
X141760000Y-70500000D02*
X142960000Y-70500000D01*
X167025000Y-83405000D02*
X166500000Y-83930000D01*
D37*
X155272500Y-102962500D02*
X150162500Y-102962500D01*
X152990000Y-70710000D02*
X153850000Y-69850000D01*
D38*
X160000000Y-94000000D02*
X161000000Y-94000000D01*
D37*
X128600000Y-65900000D02*
X128600000Y-68175000D01*
D38*
X164000000Y-83000000D02*
X165000000Y-82000000D01*
D37*
X128600000Y-68175000D02*
X123950000Y-72825000D01*
D38*
X143510000Y-71050000D02*
X143510000Y-76350000D01*
X166450000Y-85550000D02*
X166450000Y-86500000D01*
D37*
X143600000Y-87450000D02*
X143600000Y-89925000D01*
D38*
X162150000Y-83125000D02*
X164000000Y-81275000D01*
X143600000Y-87450000D02*
X143600000Y-85860000D01*
X142960000Y-70500000D02*
X143510000Y-71050000D01*
X161660000Y-94660000D02*
X162320000Y-94000000D01*
X154712500Y-111212500D02*
X154162500Y-110662500D01*
X143510000Y-77100000D02*
X143720000Y-77310000D01*
X142960000Y-70500000D02*
X142960000Y-68740000D01*
X145650000Y-80650000D02*
X143720000Y-80650000D01*
X152232500Y-107472500D02*
X151122500Y-107472500D01*
X165200000Y-86500000D02*
X164000000Y-85300000D01*
X158200000Y-83125000D02*
X157700000Y-82625000D01*
X146260000Y-78600000D02*
X146260000Y-80040000D01*
X143510000Y-76350000D02*
X143510000Y-77100000D01*
X164225000Y-81500000D02*
X164000000Y-81275000D01*
D37*
X143600000Y-89925000D02*
X145525000Y-91850000D01*
D38*
X165000000Y-82000000D02*
X165000000Y-81500000D01*
X162320000Y-94000000D02*
X164000000Y-94000000D01*
D37*
X144441000Y-99909000D02*
X144441000Y-92934000D01*
D38*
X164500000Y-87200000D02*
X165750000Y-87200000D01*
D37*
X131250000Y-63250000D02*
X128600000Y-65900000D01*
D38*
X172350000Y-87800000D02*
X172350000Y-87350000D01*
X172350000Y-87350000D02*
X168405000Y-83405000D01*
D37*
X155342500Y-99762500D02*
X155342500Y-102892500D01*
X135340000Y-100010000D02*
X139250000Y-100010000D01*
D38*
X156100000Y-84800000D02*
X156525000Y-84800000D01*
D37*
%TO.N,/outAD*%
X146600000Y-97125000D02*
X146375000Y-97125000D01*
X147637500Y-108762500D02*
X145762500Y-108762500D01*
X145500000Y-98000000D02*
X145500000Y-101500000D01*
X146375000Y-97125000D02*
X145500000Y-98000000D01*
X145762500Y-108762500D02*
X145500000Y-108500000D01*
X145500000Y-108500000D02*
X145500000Y-105500000D01*
D38*
X146462500Y-96987500D02*
X146600000Y-97125000D01*
X146462500Y-95050000D02*
X146462500Y-96987500D01*
D37*
%TO.N,/+*%
X151925000Y-67150000D02*
X151925000Y-68055000D01*
X174850000Y-105575000D02*
X170462500Y-109962500D01*
D38*
X158912500Y-109662500D02*
X159862500Y-109662500D01*
X158562500Y-110012500D02*
X158912500Y-109662500D01*
X159950000Y-67750000D02*
X152460000Y-67750000D01*
D37*
X173575000Y-85300000D02*
X174850000Y-86575000D01*
D38*
X163160000Y-79725000D02*
X161510000Y-81375000D01*
X165500000Y-97300000D02*
X165500000Y-108000000D01*
X163250000Y-77250000D02*
X164000000Y-78000000D01*
X167641256Y-80865000D02*
X172076256Y-85300000D01*
X159950000Y-71400000D02*
X159950000Y-67750000D01*
X163250000Y-77200000D02*
X163250000Y-77250000D01*
D37*
X174850000Y-86575000D02*
X174850000Y-105575000D01*
D38*
X164200000Y-96000000D02*
X165500000Y-97300000D01*
X145060000Y-76350000D02*
X145060000Y-77150000D01*
X144960000Y-77250000D02*
X144990000Y-77280000D01*
D37*
X125700000Y-74275000D02*
X135425000Y-64550000D01*
D38*
X164000000Y-79725000D02*
X163160000Y-79725000D01*
D37*
X126350000Y-81525000D02*
X132850000Y-81525000D01*
D38*
X152040000Y-68170000D02*
X151155000Y-68170000D01*
X169000000Y-108000000D02*
X170462500Y-109462500D01*
X161375000Y-110875000D02*
X161650000Y-111150000D01*
X164000000Y-78000000D02*
X164000000Y-79725000D01*
X151155000Y-68170000D02*
X150525000Y-68800000D01*
X145085000Y-76325000D02*
X145060000Y-76350000D01*
X150525000Y-68800000D02*
X150525000Y-75750000D01*
X172076256Y-85300000D02*
X172350000Y-85300000D01*
X170462500Y-109462500D02*
X170462500Y-109962500D01*
X157182500Y-110012500D02*
X158562500Y-110012500D01*
X167025000Y-80865000D02*
X167641256Y-80865000D01*
X164000000Y-79725000D02*
X165140000Y-80865000D01*
D37*
X170462500Y-109962500D02*
X169275000Y-111150000D01*
D38*
X144990000Y-77280000D02*
X144990000Y-78600000D01*
X146575000Y-76325000D02*
X145085000Y-76325000D01*
X163250000Y-77200000D02*
X161250000Y-75200000D01*
X161250000Y-75200000D02*
X161250000Y-72700000D01*
D37*
X135425000Y-64550000D02*
X149325000Y-64550000D01*
D38*
X161250000Y-72700000D02*
X159950000Y-71400000D01*
D37*
X151925000Y-68055000D02*
X152040000Y-68170000D01*
D38*
X165140000Y-80865000D02*
X167025000Y-80865000D01*
X145060000Y-77150000D02*
X144960000Y-77250000D01*
X166890000Y-81000000D02*
X167025000Y-80865000D01*
D37*
X125700000Y-80875000D02*
X125700000Y-74275000D01*
D38*
X152460000Y-67750000D02*
X152040000Y-68170000D01*
D37*
X172350000Y-85300000D02*
X173575000Y-85300000D01*
X149325000Y-64550000D02*
X151925000Y-67150000D01*
X126350000Y-81525000D02*
X125700000Y-80875000D01*
D38*
X159862500Y-109662500D02*
X160162500Y-109662500D01*
X150525000Y-75750000D02*
X149950000Y-76325000D01*
X160162500Y-109662500D02*
X161375000Y-110875000D01*
%TO.N,Net-(CHP1-Pad2)*%
X139935000Y-70500000D02*
X139935000Y-72500000D01*
X139935000Y-70500000D02*
X139935000Y-68875000D01*
X139935000Y-68875000D02*
X140160000Y-68650000D01*
%TO.N,Net-(CHP1-Pad1)*%
X155150000Y-62075000D02*
X155225000Y-62150000D01*
X160500000Y-79025000D02*
X160500000Y-79775000D01*
X155200000Y-76225000D02*
X155200000Y-69225000D01*
X160500000Y-79025000D02*
X160500000Y-77900000D01*
X141710000Y-66910000D02*
X141700000Y-66900000D01*
X156275000Y-77300000D02*
X155200000Y-76225000D01*
X159900000Y-77300000D02*
X156275000Y-77300000D01*
X141710000Y-68650000D02*
X141710000Y-66910000D01*
X160240000Y-80035000D02*
X160240000Y-81375000D01*
X141700000Y-62075000D02*
X155150000Y-62075000D01*
X155200000Y-69225000D02*
X155225000Y-69200000D01*
X160500000Y-79775000D02*
X160240000Y-80035000D01*
X160500000Y-77900000D02*
X159900000Y-77300000D01*
%TO.N,Net-(CHP2-Pad2)*%
X146985000Y-72375000D02*
X147110000Y-72500000D01*
X146985000Y-70450000D02*
X146985000Y-72375000D01*
%TO.N,Net-(U4A--)*%
X142450000Y-77140000D02*
X142450000Y-78600000D01*
X141760000Y-76350000D02*
X141710000Y-76400000D01*
X141760000Y-72500000D02*
X141760000Y-74550000D01*
X141710000Y-76400000D02*
X142450000Y-77140000D01*
X141760000Y-74550000D02*
X141760000Y-76350000D01*
%TO.N,Net-(CHP2-Pad1)*%
X140160000Y-77580000D02*
X141180000Y-78600000D01*
X139525000Y-65650000D02*
X138710000Y-66465000D01*
X138710000Y-66465000D02*
X138710000Y-73950000D01*
X140160000Y-74775000D02*
X139935000Y-74550000D01*
X144050000Y-69800000D02*
X144050000Y-66425000D01*
X138710000Y-73950000D02*
X139310000Y-74550000D01*
X144050000Y-66425000D02*
X143275000Y-65650000D01*
X140160000Y-76400000D02*
X140160000Y-74775000D01*
X139310000Y-74550000D02*
X139935000Y-74550000D01*
X140160000Y-76400000D02*
X140160000Y-77580000D01*
X145435000Y-70450000D02*
X144700000Y-70450000D01*
X144700000Y-70450000D02*
X144050000Y-69800000D01*
X143275000Y-65650000D02*
X139525000Y-65650000D01*
%TO.N,Net-(U4C-+)*%
X147850000Y-91425000D02*
X148475000Y-90800000D01*
X145150000Y-89675000D02*
X146900000Y-91425000D01*
X145150000Y-87450000D02*
X145150000Y-89675000D01*
X148475000Y-87250000D02*
X147762500Y-86537500D01*
X148475000Y-90800000D02*
X148475000Y-87250000D01*
X146260000Y-84297500D02*
X146260000Y-83550000D01*
X146900000Y-91425000D02*
X147850000Y-91425000D01*
X147762500Y-86537500D02*
X147762500Y-85800000D01*
X147762500Y-85800000D02*
X146260000Y-84297500D01*
%TO.N,/Vout*%
X135830000Y-95075000D02*
X135825000Y-95080000D01*
D37*
X152040000Y-85950000D02*
X152040000Y-90385000D01*
X135340000Y-92390000D02*
X135340000Y-93965000D01*
X140450000Y-92350000D02*
X135380000Y-92350000D01*
D38*
X138590000Y-96135000D02*
X135345000Y-96135000D01*
D37*
X150650000Y-91775000D02*
X152040000Y-90385000D01*
X141045000Y-91755000D02*
X140450000Y-92350000D01*
X135380000Y-92350000D02*
X135340000Y-92390000D01*
X150575000Y-91775000D02*
X150650000Y-91775000D01*
X135340000Y-96140000D02*
X135340000Y-93965000D01*
%TO.N,/CON_BAT54S*%
X143015000Y-97050000D02*
X140500000Y-97050000D01*
D38*
%TO.N,/-*%
X145160000Y-85850000D02*
X145160000Y-85150000D01*
X145550000Y-85850000D02*
X147350000Y-87650000D01*
X172350000Y-93500000D02*
X170625000Y-93500000D01*
D37*
X172350000Y-95350000D02*
X172350000Y-99725000D01*
D38*
X145160000Y-85150000D02*
X144990000Y-84980000D01*
X168550000Y-86500000D02*
X172350000Y-90300000D01*
X152212500Y-106182500D02*
X152232500Y-106202500D01*
X145160000Y-85850000D02*
X145550000Y-85850000D01*
X176000000Y-93500000D02*
X176000000Y-86455001D01*
X176000000Y-86455001D02*
X172949999Y-83405000D01*
X158150000Y-88125000D02*
X157700000Y-87675000D01*
X157450000Y-90575000D02*
X171025000Y-90575000D01*
X167875000Y-88125000D02*
X168000000Y-88000000D01*
D37*
X172350000Y-93500000D02*
X172350000Y-90300000D01*
D38*
X144990000Y-84980000D02*
X144990000Y-83550000D01*
X147350000Y-87650000D02*
X147350000Y-90125000D01*
D37*
X172350000Y-90300000D02*
X171300000Y-90300000D01*
D38*
X168000000Y-86500000D02*
X168550000Y-86500000D01*
D37*
X152232500Y-106202500D02*
X154622500Y-106202500D01*
X152232500Y-106202500D02*
X152232500Y-105445000D01*
D38*
X172949999Y-83405000D02*
X171975000Y-83405000D01*
X157025000Y-90150000D02*
X157450000Y-90575000D01*
D37*
X154622500Y-106202500D02*
X157375000Y-103450000D01*
D38*
X156100000Y-86350000D02*
X157675000Y-86350000D01*
D37*
X172350000Y-95350000D02*
X172350000Y-93500000D01*
D38*
X157700000Y-87675000D02*
X157700000Y-86325000D01*
D37*
X152212500Y-104512500D02*
X152212500Y-105425000D01*
X152232500Y-105445000D02*
X152212500Y-105425000D01*
D38*
X171025000Y-90575000D02*
X171300000Y-90300000D01*
X147350000Y-90125000D02*
X147375000Y-90150000D01*
X158150000Y-88125000D02*
X167875000Y-88125000D01*
X157675000Y-86350000D02*
X157700000Y-86325000D01*
D37*
X157375000Y-103450000D02*
X157375000Y-99775000D01*
D38*
X168000000Y-88000000D02*
X168000000Y-86500000D01*
D37*
X172350000Y-99725000D02*
X172375000Y-99750000D01*
D38*
%TO.N,/ECG-*%
X163450000Y-70705000D02*
X163450000Y-75825000D01*
X162300000Y-69025000D02*
X162300000Y-69555000D01*
X162300000Y-69555000D02*
X163450000Y-70705000D01*
X170365000Y-80865000D02*
X171975000Y-80865000D01*
X164525000Y-76900000D02*
X166400000Y-76900000D01*
X163450000Y-75825000D02*
X164525000Y-76900000D01*
X166400000Y-76900000D02*
X170365000Y-80865000D01*
X162375000Y-69630000D02*
X162626000Y-69379000D01*
%TO.N,/ECG+*%
X167300000Y-74025000D02*
X168800000Y-74025000D01*
X173376000Y-78601000D02*
X173376000Y-81624000D01*
X172865000Y-82135000D02*
X171975000Y-82135000D01*
X168800000Y-74025000D02*
X173376000Y-78601000D01*
X173376000Y-81624000D02*
X172865000Y-82135000D01*
%TO.N,/INAout*%
X164125000Y-84375000D02*
X166365000Y-82135000D01*
X158970000Y-86325000D02*
X158970000Y-84955000D01*
X166365000Y-82135000D02*
X167025000Y-82135000D01*
X158970000Y-84955000D02*
X159550000Y-84375000D01*
X159550000Y-84375000D02*
X164125000Y-84375000D01*
D37*
%TO.N,/FesOut+*%
X159000000Y-98050000D02*
X158974000Y-98076000D01*
D38*
X158262500Y-106212500D02*
X158252500Y-106202500D01*
D37*
X159862500Y-98912500D02*
X159862500Y-103262500D01*
X147722500Y-99762500D02*
X147722500Y-101350000D01*
X147722500Y-102892500D02*
X147652500Y-102962500D01*
X149409000Y-98076000D02*
X147722500Y-99762500D01*
D38*
X158252500Y-106202500D02*
X157182500Y-106202500D01*
D37*
X147722500Y-101350000D02*
X147722500Y-102892500D01*
D38*
X159862500Y-103262500D02*
X159162500Y-103262500D01*
X158662500Y-105812500D02*
X158262500Y-106212500D01*
D37*
X142025000Y-102975000D02*
X147640000Y-102975000D01*
X158974000Y-98076000D02*
X149409000Y-98076000D01*
X147652500Y-106697500D02*
X147637500Y-106712500D01*
D38*
X158662500Y-103762500D02*
X158662500Y-105812500D01*
X159162500Y-103262500D02*
X158662500Y-103762500D01*
D37*
X147640000Y-102975000D02*
X147652500Y-102962500D01*
X159000000Y-98050000D02*
X159862500Y-98912500D01*
X147652500Y-102962500D02*
X147652500Y-106697500D01*
D38*
%TO.N,/SIN_BAT54S*%
X140150000Y-87450000D02*
X140150000Y-85850000D01*
X143015000Y-94510000D02*
X143015000Y-91315000D01*
X138625000Y-90550000D02*
X137750000Y-89675000D01*
X140150000Y-85850000D02*
X140150000Y-83950000D01*
X137750000Y-89675000D02*
X137750000Y-87450000D01*
X140150000Y-83950000D02*
X140550000Y-83550000D01*
X142250000Y-90550000D02*
X138625000Y-90550000D01*
X140550000Y-83550000D02*
X141180000Y-83550000D01*
X143015000Y-91315000D02*
X142250000Y-90550000D01*
%TO.N,Net-(U5B--)*%
X158675000Y-79750000D02*
X158970000Y-80045000D01*
X158675000Y-79025000D02*
X158675000Y-79750000D01*
X158970000Y-80045000D02*
X158970000Y-81375000D01*
X158675000Y-79025000D02*
X156950000Y-79025000D01*
%TO.N,Net-(U5A--)*%
X155125000Y-86800000D02*
X157450000Y-89125000D01*
X163250000Y-86325000D02*
X161510000Y-86325000D01*
X157450000Y-89125000D02*
X157500000Y-89175000D01*
X157500000Y-89175000D02*
X163250000Y-89175000D01*
X155125000Y-79025000D02*
X155125000Y-86800000D01*
X161510000Y-86325000D02*
X160240000Y-86325000D01*
%TO.N,Net-(R1how1-Pad1)*%
X148262500Y-112162500D02*
X152212500Y-112162500D01*
X147650000Y-110812500D02*
X147650000Y-111550000D01*
X163062500Y-111412500D02*
X163062500Y-105912500D01*
X152232500Y-110012500D02*
X152232500Y-112142500D01*
X152212500Y-112162500D02*
X162312500Y-112162500D01*
X162512500Y-105362500D02*
X161662500Y-105362500D01*
X162312500Y-112162500D02*
X163062500Y-111412500D01*
X152232500Y-112142500D02*
X152212500Y-112162500D01*
X147650000Y-111550000D02*
X148262500Y-112162500D01*
X163062500Y-105912500D02*
X162512500Y-105362500D01*
%TO.N,Net-(U3B--)*%
X157192500Y-107462500D02*
X157182500Y-107472500D01*
X159825000Y-107462500D02*
X157192500Y-107462500D01*
X159837500Y-105362500D02*
X159837500Y-107450000D01*
X159837500Y-107450000D02*
X159825000Y-107462500D01*
%TO.N,Net-(R2how1-Pad2)*%
X162612500Y-103262500D02*
X164062500Y-104712500D01*
X161687500Y-103262500D02*
X162612500Y-103262500D01*
X164162500Y-104812500D02*
X164162500Y-109512500D01*
X161132500Y-108742500D02*
X161650000Y-108225000D01*
X161712500Y-108287500D02*
X161650000Y-108225000D01*
X161712500Y-109512500D02*
X161712500Y-108287500D01*
X157182500Y-108742500D02*
X161132500Y-108742500D01*
X164062500Y-104712500D02*
X164162500Y-104812500D01*
X161650000Y-107462500D02*
X161650000Y-108225000D01*
%TO.N,Net-(U4B--)*%
X147530000Y-74680000D02*
X146900000Y-74050000D01*
X145285000Y-73575000D02*
X145285000Y-72500000D01*
X148300000Y-69100000D02*
X148600000Y-69400000D01*
X148600000Y-69400000D02*
X148600000Y-72500000D01*
X147530000Y-74680000D02*
X147530000Y-74620000D01*
X147650000Y-68450000D02*
X148300000Y-69100000D01*
X146900000Y-74050000D02*
X145760000Y-74050000D01*
X147530000Y-78600000D02*
X147530000Y-74680000D01*
X145285000Y-73575000D02*
X145760000Y-74050000D01*
X147530000Y-74620000D02*
X148600000Y-73550000D01*
X147100000Y-68450000D02*
X147650000Y-68450000D01*
X148600000Y-73550000D02*
X148600000Y-72500000D01*
%TO.N,Net-(R11-Pad1)*%
X145275000Y-66250000D02*
X145275000Y-68450000D01*
%TO.N,Net-(U4D--)*%
X141975000Y-85850000D02*
X141975000Y-85375000D01*
X141937500Y-85887500D02*
X141975000Y-85850000D01*
X142450000Y-84900000D02*
X142450000Y-83550000D01*
X141975000Y-85375000D02*
X142450000Y-84900000D01*
X141937500Y-89025000D02*
X141937500Y-85887500D01*
%TO.N,Net-(U4C--)*%
X147530000Y-82280000D02*
X146875000Y-81625000D01*
X146875000Y-81625000D02*
X143250000Y-81625000D01*
X147530000Y-83550000D02*
X148800000Y-83550000D01*
X139800000Y-80625000D02*
X139000000Y-81425000D01*
X142250000Y-80625000D02*
X139800000Y-80625000D01*
X139000000Y-81425000D02*
X139000000Y-87912500D01*
X139000000Y-87912500D02*
X140112500Y-89025000D01*
X143250000Y-81625000D02*
X142250000Y-80625000D01*
X147530000Y-83550000D02*
X147530000Y-82280000D01*
D37*
%TO.N,Net-(U8-GPIO20)*%
X135350000Y-83550000D02*
X135490000Y-83410000D01*
X135325000Y-83550000D02*
X135350000Y-83550000D01*
X128700000Y-86025000D02*
X132850000Y-86025000D01*
X128712500Y-88075000D02*
X128712500Y-86037500D01*
X126350000Y-86025000D02*
X128700000Y-86025000D01*
X132850000Y-86025000D02*
X135325000Y-83550000D01*
X135490000Y-83410000D02*
X136800000Y-83410000D01*
X128712500Y-86037500D02*
X128700000Y-86025000D01*
D38*
%TO.N,Net-(U3A--)*%
X149475000Y-110812500D02*
X149475000Y-108775000D01*
X149475000Y-108775000D02*
X149462500Y-108762500D01*
D39*
X152232500Y-108742500D02*
X149482500Y-108742500D01*
D38*
X149482500Y-108742500D02*
X149462500Y-108762500D01*
%TO.N,/fnc*%
X168850000Y-101975000D02*
X166675000Y-104150000D01*
X129475000Y-79725000D02*
X131450000Y-79725000D01*
X155000000Y-92500000D02*
X155000000Y-95040000D01*
X166675000Y-104150000D02*
X166675000Y-111775000D01*
X167950000Y-92450000D02*
X162125000Y-92450000D01*
X133100000Y-98125000D02*
X126650000Y-91675000D01*
X140300000Y-114275000D02*
X139625000Y-113600000D01*
X133725000Y-75000000D02*
X135475000Y-73250000D01*
X139625000Y-113600000D02*
X139625000Y-111075000D01*
X134275000Y-110125000D02*
X133100000Y-108950000D01*
X129450000Y-79750000D02*
X129475000Y-79725000D01*
X131450000Y-79725000D02*
X133725000Y-77450000D01*
X122425000Y-88675000D02*
X122425000Y-79750000D01*
X155000000Y-95040000D02*
X154040000Y-96000000D01*
X164175000Y-114275000D02*
X140300000Y-114275000D01*
X139625000Y-111075000D02*
X138675000Y-110125000D01*
X138675000Y-110125000D02*
X134275000Y-110125000D01*
X162125000Y-92450000D02*
X162000000Y-92575000D01*
X135475000Y-73250000D02*
X136800000Y-73250000D01*
X126650000Y-91675000D02*
X125425000Y-91675000D01*
X166675000Y-111775000D02*
X164175000Y-114275000D01*
X133725000Y-77450000D02*
X133725000Y-75000000D01*
X133100000Y-108950000D02*
X133100000Y-98125000D01*
X167950000Y-92450000D02*
X168850000Y-93350000D01*
X168850000Y-93350000D02*
X168850000Y-101975000D01*
X125425000Y-91675000D02*
X122425000Y-88675000D01*
D37*
%TO.N,/clk*%
X156580000Y-91855000D02*
X156580000Y-96000000D01*
X153750000Y-89025000D02*
X153750000Y-76525000D01*
X153015000Y-75790000D02*
X152040000Y-75790000D01*
X153750000Y-76525000D02*
X153015000Y-75790000D01*
X153750000Y-89025000D02*
X156580000Y-91855000D01*
D38*
%TO.N,/data*%
X159120000Y-96000000D02*
X158500000Y-95380000D01*
X124750000Y-92900000D02*
X126025000Y-92900000D01*
X130400000Y-78400000D02*
X130375000Y-78375000D01*
X122425000Y-78375000D02*
X121575000Y-78375000D01*
X129450000Y-78375000D02*
X129450000Y-78060000D01*
X136800000Y-70710000D02*
X135290000Y-70710000D01*
X139550000Y-115175000D02*
X145350000Y-115175000D01*
X158500000Y-95380000D02*
X158500000Y-92000000D01*
X121050000Y-89200000D02*
X124750000Y-92900000D01*
X158850000Y-91650000D02*
X169125000Y-91650000D01*
X131950000Y-98825000D02*
X131950000Y-110025000D01*
X167700000Y-112025000D02*
X164550000Y-115175000D01*
X138450000Y-112150000D02*
X138450000Y-114075000D01*
X135290000Y-70710000D02*
X131875000Y-74125000D01*
X131875000Y-76925000D02*
X130400000Y-78400000D01*
X169700000Y-92225000D02*
X169700000Y-102375000D01*
X126025000Y-92900000D02*
X131950000Y-98825000D01*
X131875000Y-74125000D02*
X131875000Y-76925000D01*
X133175000Y-111250000D02*
X137550000Y-111250000D01*
X164550000Y-115175000D02*
X145350000Y-115175000D01*
X145350000Y-115175000D02*
X145200000Y-115175000D01*
X167700000Y-104375000D02*
X167700000Y-112025000D01*
X158500000Y-92000000D02*
X158850000Y-91650000D01*
X121575000Y-78375000D02*
X121050000Y-78900000D01*
X137550000Y-111250000D02*
X138450000Y-112150000D01*
X169125000Y-91650000D02*
X169700000Y-92225000D01*
X169700000Y-102375000D02*
X167700000Y-104375000D01*
X131950000Y-110025000D02*
X133175000Y-111250000D01*
X121050000Y-78900000D02*
X121050000Y-89200000D01*
X130375000Y-78375000D02*
X129450000Y-78375000D01*
X138450000Y-114075000D02*
X139550000Y-115175000D01*
D37*
%TO.N,Net-(AD1-OUT)*%
X150375000Y-97125000D02*
X151500000Y-96000000D01*
X148150000Y-97125000D02*
X150375000Y-97125000D01*
D38*
%TO.N,Net-(R11-Pad2)*%
X147100000Y-66250000D02*
X148150000Y-66250000D01*
X148800000Y-78600000D02*
X148800000Y-74875000D01*
X148800000Y-78600000D02*
X149450000Y-78600000D01*
X149450000Y-78600000D02*
X149850000Y-79000000D01*
X149450000Y-74225000D02*
X149450000Y-67650000D01*
X149450000Y-67650000D02*
X149500000Y-67600000D01*
X149587500Y-85187500D02*
X149587500Y-85800000D01*
X148150000Y-66250000D02*
X149500000Y-67600000D01*
X149850000Y-79000000D02*
X149850000Y-84925000D01*
X148800000Y-74875000D02*
X149450000Y-74225000D01*
X149850000Y-84925000D02*
X149587500Y-85187500D01*
D37*
%TO.N,unconnected-(U8-GPIO8-Pad8)*%
X136785000Y-75775000D02*
X136800000Y-75790000D01*
%TD*%
%TA.AperFunction,Conductor*%
%TO.N,GNDREF*%
G36*
X172016040Y-60519685D02*
G01*
X172036242Y-60535881D01*
X172315904Y-60812756D01*
X172349696Y-60873910D01*
X172345060Y-60943626D01*
X172303470Y-60999769D01*
X172238128Y-61024513D01*
X172221713Y-61024680D01*
X172218507Y-61024500D01*
X172218504Y-61024500D01*
X171881496Y-61024500D01*
X171881491Y-61024500D01*
X171546618Y-61062231D01*
X171546602Y-61062233D01*
X171218046Y-61137223D01*
X171218034Y-61137227D01*
X170899945Y-61248532D01*
X170596316Y-61394752D01*
X170310962Y-61574053D01*
X170047477Y-61784174D01*
X169809174Y-62022477D01*
X169599053Y-62285962D01*
X169419752Y-62571316D01*
X169273532Y-62874945D01*
X169162227Y-63193034D01*
X169162223Y-63193046D01*
X169087233Y-63521602D01*
X169087231Y-63521618D01*
X169049500Y-63856491D01*
X169049500Y-64193508D01*
X169087231Y-64528381D01*
X169087233Y-64528397D01*
X169162223Y-64856953D01*
X169162227Y-64856965D01*
X169273532Y-65175054D01*
X169419752Y-65478683D01*
X169419754Y-65478686D01*
X169599054Y-65764039D01*
X169748735Y-65951733D01*
X169794166Y-66008703D01*
X169809175Y-66027523D01*
X170047477Y-66265825D01*
X170310961Y-66475946D01*
X170596314Y-66655246D01*
X170899949Y-66801469D01*
X171138848Y-66885063D01*
X171218034Y-66912772D01*
X171218046Y-66912776D01*
X171546606Y-66987767D01*
X171881492Y-67025499D01*
X171881493Y-67025500D01*
X171881496Y-67025500D01*
X172218507Y-67025500D01*
X172218507Y-67025499D01*
X172553394Y-66987767D01*
X172881954Y-66912776D01*
X173200051Y-66801469D01*
X173503686Y-66655246D01*
X173789039Y-66475946D01*
X174052523Y-66265825D01*
X174290825Y-66027523D01*
X174500946Y-65764039D01*
X174680246Y-65478686D01*
X174826469Y-65175051D01*
X174937776Y-64856954D01*
X175012767Y-64528394D01*
X175050500Y-64193504D01*
X175050500Y-63856496D01*
X175047199Y-63827196D01*
X175059253Y-63758374D01*
X175106602Y-63706994D01*
X175174213Y-63689370D01*
X175240618Y-63711096D01*
X175257660Y-63725193D01*
X177463893Y-65909438D01*
X177497685Y-65970592D01*
X177500642Y-65995990D01*
X177899278Y-97531918D01*
X177899288Y-97533485D01*
X177899288Y-105549350D01*
X177879603Y-105616389D01*
X177862969Y-105637031D01*
X166636819Y-116863181D01*
X166575496Y-116896666D01*
X166549138Y-116899500D01*
X159164322Y-116899500D01*
X159162624Y-116899488D01*
X140839624Y-116648488D01*
X140772860Y-116627887D01*
X140727833Y-116574462D01*
X140718837Y-116505173D01*
X140748730Y-116442021D01*
X140808020Y-116405056D01*
X140841322Y-116400500D01*
X164646448Y-116400500D01*
X164646449Y-116400500D01*
X164836972Y-116370324D01*
X165020429Y-116310715D01*
X165078442Y-116281155D01*
X165192302Y-116223142D01*
X165348360Y-116109759D01*
X168634759Y-112823359D01*
X168748142Y-112667302D01*
X168748475Y-112666647D01*
X168748670Y-112666440D01*
X168750687Y-112663150D01*
X168751377Y-112663573D01*
X168796437Y-112615845D01*
X168864255Y-112599036D01*
X168897285Y-112604992D01*
X168923632Y-112613553D01*
X169011110Y-112627408D01*
X169156903Y-112650500D01*
X169156908Y-112650500D01*
X169393097Y-112650500D01*
X169626368Y-112613553D01*
X169652713Y-112604993D01*
X169850992Y-112540568D01*
X170061433Y-112433343D01*
X170252510Y-112294517D01*
X170419517Y-112127510D01*
X170558343Y-111936433D01*
X170665568Y-111725992D01*
X170666621Y-111722748D01*
X170696873Y-111673376D01*
X171511673Y-110858578D01*
X175899173Y-106471078D01*
X176026433Y-106295919D01*
X176124726Y-106103009D01*
X176191630Y-105897097D01*
X176191879Y-105895528D01*
X176225500Y-105683254D01*
X176225500Y-95089394D01*
X176245185Y-95022355D01*
X176297989Y-94976600D01*
X176330098Y-94966921D01*
X176351368Y-94963553D01*
X176575992Y-94890568D01*
X176786433Y-94783343D01*
X176977510Y-94644517D01*
X177144517Y-94477510D01*
X177283343Y-94286433D01*
X177390568Y-94075992D01*
X177463553Y-93851368D01*
X177480652Y-93743409D01*
X177500500Y-93618097D01*
X177500500Y-93381902D01*
X177463553Y-93148631D01*
X177415097Y-92999500D01*
X177390568Y-92924008D01*
X177390566Y-92924005D01*
X177390566Y-92924003D01*
X177283342Y-92713566D01*
X177249182Y-92666549D01*
X177225702Y-92600743D01*
X177225500Y-92593663D01*
X177225500Y-86358552D01*
X177195324Y-86168029D01*
X177135715Y-85984572D01*
X177090636Y-85896100D01*
X177048142Y-85812699D01*
X176934759Y-85656642D01*
X175576503Y-84298386D01*
X174093299Y-82815181D01*
X174059814Y-82753858D01*
X174064798Y-82684166D01*
X174093299Y-82639819D01*
X174094315Y-82638803D01*
X174310759Y-82422360D01*
X174310761Y-82422356D01*
X174310764Y-82422354D01*
X174412243Y-82282678D01*
X174424141Y-82266302D01*
X174441899Y-82231450D01*
X174511715Y-82094429D01*
X174571324Y-81910972D01*
X174601500Y-81720449D01*
X174601500Y-78504551D01*
X174571324Y-78314028D01*
X174511715Y-78130571D01*
X174424141Y-77958698D01*
X174384816Y-77904572D01*
X174384816Y-77904571D01*
X174310762Y-77802643D01*
X169598362Y-73090243D01*
X169598360Y-73090241D01*
X169442302Y-72976858D01*
X169306566Y-72907698D01*
X169306566Y-72907697D01*
X169306564Y-72907697D01*
X169270429Y-72889285D01*
X169086972Y-72829676D01*
X169086970Y-72829675D01*
X169086968Y-72829675D01*
X168925399Y-72804085D01*
X168862264Y-72774156D01*
X168834312Y-72737907D01*
X168717065Y-72507798D01*
X168715055Y-72503853D01*
X168561982Y-72293166D01*
X168377834Y-72109018D01*
X168167147Y-71955945D01*
X167935108Y-71837715D01*
X167687430Y-71757239D01*
X167687428Y-71757238D01*
X167687426Y-71757238D01*
X167430217Y-71716500D01*
X167430212Y-71716500D01*
X167169788Y-71716500D01*
X167169783Y-71716500D01*
X166912573Y-71757238D01*
X166664889Y-71837716D01*
X166432852Y-71955945D01*
X166222163Y-72109020D01*
X166137681Y-72193503D01*
X166076358Y-72226988D01*
X166006666Y-72222004D01*
X165962319Y-72193503D01*
X165877836Y-72109020D01*
X165877834Y-72109018D01*
X165667147Y-71955945D01*
X165435108Y-71837715D01*
X165187430Y-71757239D01*
X165187428Y-71757238D01*
X165187426Y-71757238D01*
X164930217Y-71716500D01*
X164930212Y-71716500D01*
X164799500Y-71716500D01*
X164732461Y-71696815D01*
X164686706Y-71644011D01*
X164675500Y-71592500D01*
X164675500Y-70608551D01*
X164649169Y-70442306D01*
X164645324Y-70418028D01*
X164615260Y-70325500D01*
X164605456Y-70295326D01*
X164585718Y-70234577D01*
X164585716Y-70234571D01*
X164524946Y-70115304D01*
X164498142Y-70062698D01*
X164415850Y-69949434D01*
X164392371Y-69883630D01*
X164405685Y-69820255D01*
X164407930Y-69815849D01*
X164487285Y-69660108D01*
X164567761Y-69412430D01*
X164596761Y-69229332D01*
X164608500Y-69155217D01*
X164608500Y-69093995D01*
X166599499Y-69093995D01*
X166626418Y-69229322D01*
X166626421Y-69229332D01*
X166679221Y-69356804D01*
X166679228Y-69356817D01*
X166755885Y-69471541D01*
X166755888Y-69471545D01*
X166853454Y-69569111D01*
X166853458Y-69569114D01*
X166968182Y-69645771D01*
X166968195Y-69645778D01*
X167095667Y-69698578D01*
X167095672Y-69698580D01*
X167095676Y-69698580D01*
X167095677Y-69698581D01*
X167231004Y-69725500D01*
X167231007Y-69725500D01*
X167368995Y-69725500D01*
X167460041Y-69707389D01*
X167504328Y-69698580D01*
X167631811Y-69645775D01*
X167746542Y-69569114D01*
X167844114Y-69471542D01*
X167920775Y-69356811D01*
X167973580Y-69229328D01*
X167988323Y-69155212D01*
X168000500Y-69093995D01*
X168000500Y-68956004D01*
X167973581Y-68820677D01*
X167973580Y-68820676D01*
X167973580Y-68820672D01*
X167973578Y-68820667D01*
X167920778Y-68693195D01*
X167920771Y-68693182D01*
X167844114Y-68578458D01*
X167844111Y-68578454D01*
X167746545Y-68480888D01*
X167746541Y-68480885D01*
X167631817Y-68404228D01*
X167631804Y-68404221D01*
X167504332Y-68351421D01*
X167504322Y-68351418D01*
X167368995Y-68324500D01*
X167368993Y-68324500D01*
X167231007Y-68324500D01*
X167231005Y-68324500D01*
X167095677Y-68351418D01*
X167095667Y-68351421D01*
X166968195Y-68404221D01*
X166968182Y-68404228D01*
X166853458Y-68480885D01*
X166853454Y-68480888D01*
X166755888Y-68578454D01*
X166755885Y-68578458D01*
X166679228Y-68693182D01*
X166679221Y-68693195D01*
X166626421Y-68820667D01*
X166626418Y-68820677D01*
X166599500Y-68956004D01*
X166599500Y-68956007D01*
X166599500Y-69093993D01*
X166599500Y-69093995D01*
X166599499Y-69093995D01*
X164608500Y-69093995D01*
X164608500Y-68894782D01*
X164567761Y-68637573D01*
X164567761Y-68637570D01*
X164487285Y-68389892D01*
X164369055Y-68157853D01*
X164215982Y-67947166D01*
X164031834Y-67763018D01*
X163821147Y-67609945D01*
X163589108Y-67491715D01*
X163341430Y-67411239D01*
X163341428Y-67411238D01*
X163341426Y-67411238D01*
X163084217Y-67370500D01*
X163084212Y-67370500D01*
X161515788Y-67370500D01*
X161515783Y-67370500D01*
X161258566Y-67411239D01*
X161253827Y-67412377D01*
X161253568Y-67411301D01*
X161188998Y-67413141D01*
X161129168Y-67377056D01*
X161102599Y-67331536D01*
X161085715Y-67279571D01*
X160998141Y-67107698D01*
X160884759Y-66951641D01*
X160748359Y-66815241D01*
X160592302Y-66701859D01*
X160420429Y-66614285D01*
X160357983Y-66593995D01*
X166599499Y-66593995D01*
X166626418Y-66729322D01*
X166626421Y-66729332D01*
X166679221Y-66856804D01*
X166679228Y-66856817D01*
X166755885Y-66971541D01*
X166755888Y-66971545D01*
X166853454Y-67069111D01*
X166853458Y-67069114D01*
X166968182Y-67145771D01*
X166968195Y-67145778D01*
X167095667Y-67198578D01*
X167095672Y-67198580D01*
X167095676Y-67198580D01*
X167095677Y-67198581D01*
X167231004Y-67225500D01*
X167231007Y-67225500D01*
X167368995Y-67225500D01*
X167460041Y-67207389D01*
X167504328Y-67198580D01*
X167631811Y-67145775D01*
X167746542Y-67069114D01*
X167844114Y-66971542D01*
X167920775Y-66856811D01*
X167973580Y-66729328D01*
X167991137Y-66641063D01*
X168000500Y-66593995D01*
X168000500Y-66456004D01*
X167973581Y-66320677D01*
X167973580Y-66320676D01*
X167973580Y-66320672D01*
X167950862Y-66265825D01*
X167920778Y-66193195D01*
X167920771Y-66193182D01*
X167844114Y-66078458D01*
X167844111Y-66078454D01*
X167746545Y-65980888D01*
X167746541Y-65980885D01*
X167631817Y-65904228D01*
X167631804Y-65904221D01*
X167504332Y-65851421D01*
X167504322Y-65851418D01*
X167368995Y-65824500D01*
X167368993Y-65824500D01*
X167231007Y-65824500D01*
X167231005Y-65824500D01*
X167095677Y-65851418D01*
X167095667Y-65851421D01*
X166968195Y-65904221D01*
X166968182Y-65904228D01*
X166853458Y-65980885D01*
X166853454Y-65980888D01*
X166755888Y-66078454D01*
X166755885Y-66078458D01*
X166679228Y-66193182D01*
X166679221Y-66193195D01*
X166626421Y-66320667D01*
X166626418Y-66320677D01*
X166599500Y-66456004D01*
X166599500Y-66456007D01*
X166599500Y-66593993D01*
X166599500Y-66593995D01*
X166599499Y-66593995D01*
X160357983Y-66593995D01*
X160236972Y-66554676D01*
X160236969Y-66554675D01*
X160090614Y-66531495D01*
X160046449Y-66524500D01*
X160046448Y-66524500D01*
X158115888Y-66524500D01*
X158048849Y-66504815D01*
X158003094Y-66452011D01*
X157994271Y-66424691D01*
X157973581Y-66320679D01*
X157973581Y-66320677D01*
X157973580Y-66320672D01*
X157950862Y-66265825D01*
X157920778Y-66193195D01*
X157920771Y-66193182D01*
X157844114Y-66078458D01*
X157844111Y-66078454D01*
X157746545Y-65980888D01*
X157746541Y-65980885D01*
X157631817Y-65904228D01*
X157631804Y-65904221D01*
X157504332Y-65851421D01*
X157504322Y-65851418D01*
X157368995Y-65824500D01*
X157368993Y-65824500D01*
X157231007Y-65824500D01*
X157231005Y-65824500D01*
X157095677Y-65851418D01*
X157095667Y-65851421D01*
X156968195Y-65904221D01*
X156968182Y-65904228D01*
X156853458Y-65980885D01*
X156853454Y-65980888D01*
X156755888Y-66078454D01*
X156755885Y-66078458D01*
X156679228Y-66193182D01*
X156679221Y-66193195D01*
X156626421Y-66320667D01*
X156626418Y-66320679D01*
X156605729Y-66424691D01*
X156573344Y-66486602D01*
X156512629Y-66521176D01*
X156484112Y-66524500D01*
X153226039Y-66524500D01*
X153159000Y-66504815D01*
X153115554Y-66456795D01*
X153101433Y-66429081D01*
X152974172Y-66253922D01*
X152821078Y-66100828D01*
X150232432Y-63512181D01*
X150198947Y-63450858D01*
X150203931Y-63381166D01*
X150245803Y-63325233D01*
X150311267Y-63300816D01*
X150320113Y-63300500D01*
X154215434Y-63300500D01*
X154282473Y-63320185D01*
X154288319Y-63324182D01*
X154425457Y-63423818D01*
X154438567Y-63433343D01*
X154571000Y-63500821D01*
X154649003Y-63540566D01*
X154649005Y-63540566D01*
X154649008Y-63540568D01*
X154769412Y-63579689D01*
X154873631Y-63613553D01*
X155106903Y-63650500D01*
X155106908Y-63650500D01*
X155343097Y-63650500D01*
X155576368Y-63613553D01*
X155800992Y-63540568D01*
X155800995Y-63540566D01*
X155805625Y-63539062D01*
X155806055Y-63540388D01*
X155869269Y-63533591D01*
X155931749Y-63564863D01*
X155967403Y-63624951D01*
X155971256Y-63655621D01*
X155971256Y-64341492D01*
X168257056Y-64341492D01*
X168257056Y-60624000D01*
X168276741Y-60556961D01*
X168329545Y-60511206D01*
X168381056Y-60500000D01*
X171949001Y-60500000D01*
X172016040Y-60519685D01*
G37*
%TD.AperFunction*%
%TA.AperFunction,Conductor*%
G36*
X155174356Y-107545697D02*
G01*
X155205184Y-107608398D01*
X155207000Y-107629542D01*
X155207000Y-107693515D01*
X155213150Y-107782124D01*
X155213152Y-107782139D01*
X155261965Y-107989675D01*
X155261968Y-107989686D01*
X155291873Y-108057415D01*
X155300944Y-108126694D01*
X155291873Y-108157585D01*
X155261968Y-108225313D01*
X155261965Y-108225324D01*
X155213152Y-108432860D01*
X155213150Y-108432875D01*
X155207000Y-108521484D01*
X155207000Y-108963515D01*
X155213150Y-109052124D01*
X155213152Y-109052139D01*
X155261965Y-109259675D01*
X155261968Y-109259686D01*
X155291873Y-109327415D01*
X155300944Y-109396694D01*
X155291873Y-109427585D01*
X155261968Y-109495313D01*
X155261965Y-109495324D01*
X155213152Y-109702860D01*
X155213150Y-109702875D01*
X155207000Y-109791484D01*
X155207000Y-110233515D01*
X155213150Y-110322124D01*
X155213152Y-110322140D01*
X155261965Y-110529676D01*
X155261967Y-110529682D01*
X155261968Y-110529685D01*
X155348091Y-110724737D01*
X155348093Y-110724740D01*
X155348094Y-110724742D01*
X155360548Y-110742923D01*
X155382195Y-110809354D01*
X155364490Y-110876944D01*
X155313054Y-110924231D01*
X155258249Y-110937000D01*
X154156751Y-110937000D01*
X154089712Y-110917315D01*
X154043957Y-110864511D01*
X154034013Y-110795353D01*
X154054452Y-110742923D01*
X154061409Y-110732764D01*
X154066909Y-110724737D01*
X154153032Y-110529685D01*
X154196520Y-110344788D01*
X154201847Y-110322140D01*
X154201847Y-110322136D01*
X154201849Y-110322130D01*
X154208000Y-110233512D01*
X154208000Y-109791488D01*
X154201849Y-109702870D01*
X154201847Y-109702860D01*
X154201847Y-109702859D01*
X154153034Y-109495323D01*
X154153031Y-109495312D01*
X154123127Y-109427587D01*
X154114055Y-109358308D01*
X154123126Y-109327415D01*
X154153032Y-109259685D01*
X154169365Y-109190241D01*
X154201847Y-109052140D01*
X154201847Y-109052136D01*
X154201849Y-109052130D01*
X154208000Y-108963512D01*
X154208000Y-108521488D01*
X154201849Y-108432870D01*
X154201847Y-108432860D01*
X154201847Y-108432859D01*
X154153034Y-108225323D01*
X154153032Y-108225317D01*
X154153032Y-108225315D01*
X154066909Y-108030263D01*
X153946411Y-107854358D01*
X153946406Y-107854352D01*
X153881735Y-107789681D01*
X153848250Y-107728358D01*
X153853234Y-107658666D01*
X153895106Y-107602733D01*
X153960570Y-107578316D01*
X153969416Y-107578000D01*
X154730753Y-107578000D01*
X154730754Y-107578000D01*
X154944597Y-107544130D01*
X155024775Y-107518078D01*
X155044682Y-107511611D01*
X155114523Y-107509616D01*
X155174356Y-107545697D01*
G37*
%TD.AperFunction*%
%TA.AperFunction,Conductor*%
G36*
X134332661Y-97331186D02*
G01*
X134399507Y-97377497D01*
X134482759Y-97435175D01*
X134683604Y-97526403D01*
X134683605Y-97526403D01*
X134683607Y-97526404D01*
X134897515Y-97580304D01*
X135027067Y-97590500D01*
X135652932Y-97590499D01*
X135782485Y-97580304D01*
X135996393Y-97526404D01*
X136197239Y-97435176D01*
X136273168Y-97382571D01*
X136339485Y-97360575D01*
X136343785Y-97360500D01*
X136787420Y-97360500D01*
X136854459Y-97380185D01*
X136900214Y-97432989D01*
X136910158Y-97502147D01*
X136908126Y-97512890D01*
X136858152Y-97725360D01*
X136858150Y-97725375D01*
X136852000Y-97813984D01*
X136852000Y-98256015D01*
X136858150Y-98344624D01*
X136858152Y-98344640D01*
X136906965Y-98552176D01*
X136906967Y-98552181D01*
X136906968Y-98552185D01*
X136993091Y-98747237D01*
X136993092Y-98747238D01*
X137113588Y-98923141D01*
X137113593Y-98923147D01*
X137264352Y-99073906D01*
X137264358Y-99073911D01*
X137440263Y-99194409D01*
X137635315Y-99280532D01*
X137635321Y-99280533D01*
X137635323Y-99280534D01*
X137842859Y-99329347D01*
X137842864Y-99329347D01*
X137842870Y-99329349D01*
X137889981Y-99332619D01*
X137931484Y-99335500D01*
X137931488Y-99335500D01*
X139248516Y-99335500D01*
X139283959Y-99333039D01*
X139337130Y-99329349D01*
X139337136Y-99329347D01*
X139337140Y-99329347D01*
X139544676Y-99280534D01*
X139544674Y-99280534D01*
X139544685Y-99280532D01*
X139739737Y-99194409D01*
X139915642Y-99073911D01*
X140066411Y-98923142D01*
X140186909Y-98747237D01*
X140273032Y-98552185D01*
X140273035Y-98552173D01*
X140280341Y-98521111D01*
X140314851Y-98460359D01*
X140376728Y-98427908D01*
X140401047Y-98425500D01*
X141243659Y-98425500D01*
X141310698Y-98445185D01*
X141339761Y-98471139D01*
X141453890Y-98611109D01*
X141547803Y-98687684D01*
X141611593Y-98739698D01*
X141791951Y-98833909D01*
X141987582Y-98889886D01*
X142106963Y-98900500D01*
X143923036Y-98900499D01*
X143989521Y-98894588D01*
X144058039Y-98908259D01*
X144108290Y-98956804D01*
X144124500Y-99018101D01*
X144124500Y-100864665D01*
X144110987Y-100920955D01*
X144109431Y-100924007D01*
X144109430Y-100924011D01*
X144036447Y-101148627D01*
X144036447Y-101148630D01*
X143999500Y-101381902D01*
X143999500Y-101475500D01*
X143996949Y-101484185D01*
X143998238Y-101493147D01*
X143987259Y-101517187D01*
X143979815Y-101542539D01*
X143972974Y-101548466D01*
X143969213Y-101556703D01*
X143946978Y-101570992D01*
X143927011Y-101588294D01*
X143916496Y-101590581D01*
X143910435Y-101594477D01*
X143875500Y-101599500D01*
X143640880Y-101599500D01*
X143573841Y-101579815D01*
X143567994Y-101575818D01*
X143563296Y-101572405D01*
X143546147Y-101559945D01*
X143314108Y-101441715D01*
X143066430Y-101361239D01*
X143066428Y-101361238D01*
X143066426Y-101361238D01*
X142809217Y-101320500D01*
X142809212Y-101320500D01*
X141240788Y-101320500D01*
X141240783Y-101320500D01*
X140983573Y-101361238D01*
X140735889Y-101441716D01*
X140503852Y-101559945D01*
X140293163Y-101713020D01*
X140109020Y-101897163D01*
X139955945Y-102107852D01*
X139837716Y-102339889D01*
X139757238Y-102587573D01*
X139716500Y-102844782D01*
X139716500Y-103105217D01*
X139757238Y-103362426D01*
X139757239Y-103362430D01*
X139776445Y-103421541D01*
X139837716Y-103610110D01*
X139857318Y-103648581D01*
X139955945Y-103842147D01*
X140109018Y-104052834D01*
X140109020Y-104052836D01*
X140193503Y-104137319D01*
X140226988Y-104198642D01*
X140222004Y-104268334D01*
X140193503Y-104312681D01*
X140109020Y-104397163D01*
X139955945Y-104607852D01*
X139837716Y-104839889D01*
X139757238Y-105087573D01*
X139716500Y-105344782D01*
X139716500Y-105605217D01*
X139757238Y-105862426D01*
X139757239Y-105862430D01*
X139837715Y-106110108D01*
X139955945Y-106342147D01*
X140109018Y-106552834D01*
X140293166Y-106736982D01*
X140503853Y-106890055D01*
X140735892Y-107008285D01*
X140983570Y-107088761D01*
X141080026Y-107104038D01*
X141240783Y-107129500D01*
X141620740Y-107129500D01*
X141687779Y-107149185D01*
X141733534Y-107201989D01*
X141743478Y-107271147D01*
X141714453Y-107334703D01*
X141689631Y-107356602D01*
X141578458Y-107430885D01*
X141578454Y-107430888D01*
X141480888Y-107528454D01*
X141480885Y-107528458D01*
X141404228Y-107643182D01*
X141404221Y-107643195D01*
X141351421Y-107770667D01*
X141351418Y-107770677D01*
X141324500Y-107906004D01*
X141324500Y-107906007D01*
X141324500Y-108043993D01*
X141324500Y-108043995D01*
X141324499Y-108043995D01*
X141351418Y-108179322D01*
X141351421Y-108179332D01*
X141404221Y-108306804D01*
X141404228Y-108306817D01*
X141480885Y-108421541D01*
X141480888Y-108421545D01*
X141578454Y-108519111D01*
X141578458Y-108519114D01*
X141689631Y-108593398D01*
X141734436Y-108647010D01*
X141743143Y-108716335D01*
X141712989Y-108779363D01*
X141653545Y-108816082D01*
X141620740Y-108820500D01*
X141240783Y-108820500D01*
X140983573Y-108861238D01*
X140735889Y-108941716D01*
X140503852Y-109059945D01*
X140293163Y-109213020D01*
X140109020Y-109397163D01*
X140109020Y-109397164D01*
X140109018Y-109397166D01*
X140086916Y-109427587D01*
X140013941Y-109528028D01*
X139958611Y-109570693D01*
X139888997Y-109576672D01*
X139827202Y-109544066D01*
X139825942Y-109542823D01*
X139473362Y-109190243D01*
X139473360Y-109190241D01*
X139317302Y-109076858D01*
X139203442Y-109018844D01*
X139203439Y-109018842D01*
X139145431Y-108989286D01*
X139145430Y-108989285D01*
X139145429Y-108989285D01*
X138961972Y-108929676D01*
X138961970Y-108929675D01*
X138961969Y-108929675D01*
X138815614Y-108906495D01*
X138771449Y-108899500D01*
X138771448Y-108899500D01*
X134833981Y-108899500D01*
X134766942Y-108879815D01*
X134746300Y-108863181D01*
X134361819Y-108478700D01*
X134328334Y-108417377D01*
X134325500Y-108391019D01*
X134325500Y-103799459D01*
X134345185Y-103732420D01*
X134397989Y-103686665D01*
X134449915Y-103678020D01*
X134449915Y-103675500D01*
X134593995Y-103675500D01*
X134685041Y-103657389D01*
X134729328Y-103648580D01*
X134856811Y-103595775D01*
X134971542Y-103519114D01*
X135069114Y-103421542D01*
X135145775Y-103306811D01*
X135198580Y-103179328D01*
X135225500Y-103043995D01*
X136324499Y-103043995D01*
X136351418Y-103179322D01*
X136351421Y-103179332D01*
X136404221Y-103306804D01*
X136404228Y-103306817D01*
X136480885Y-103421541D01*
X136480888Y-103421545D01*
X136578454Y-103519111D01*
X136578458Y-103519114D01*
X136693182Y-103595771D01*
X136693195Y-103595778D01*
X136820667Y-103648578D01*
X136820672Y-103648580D01*
X136820676Y-103648580D01*
X136820677Y-103648581D01*
X136956004Y-103675500D01*
X136956007Y-103675500D01*
X137093995Y-103675500D01*
X137185041Y-103657389D01*
X137229328Y-103648580D01*
X137356811Y-103595775D01*
X137471542Y-103519114D01*
X137569114Y-103421542D01*
X137645775Y-103306811D01*
X137698580Y-103179328D01*
X137725500Y-103043993D01*
X137725500Y-102906007D01*
X137725500Y-102906004D01*
X137698581Y-102770677D01*
X137698580Y-102770676D01*
X137698580Y-102770672D01*
X137698578Y-102770667D01*
X137645778Y-102643195D01*
X137645771Y-102643182D01*
X137569114Y-102528458D01*
X137569111Y-102528454D01*
X137471545Y-102430888D01*
X137471541Y-102430885D01*
X137356817Y-102354228D01*
X137356804Y-102354221D01*
X137229332Y-102301421D01*
X137229322Y-102301418D01*
X137093995Y-102274500D01*
X137093993Y-102274500D01*
X136956007Y-102274500D01*
X136956005Y-102274500D01*
X136820677Y-102301418D01*
X136820667Y-102301421D01*
X136693195Y-102354221D01*
X136693182Y-102354228D01*
X136578458Y-102430885D01*
X136578454Y-102430888D01*
X136480888Y-102528454D01*
X136480885Y-102528458D01*
X136404228Y-102643182D01*
X136404221Y-102643195D01*
X136351421Y-102770667D01*
X136351418Y-102770677D01*
X136324500Y-102906004D01*
X136324500Y-102906007D01*
X136324500Y-103043993D01*
X136324500Y-103043995D01*
X136324499Y-103043995D01*
X135225500Y-103043995D01*
X135225500Y-103043993D01*
X135225500Y-102906007D01*
X135225500Y-102906004D01*
X135198581Y-102770677D01*
X135198580Y-102770676D01*
X135198580Y-102770672D01*
X135198578Y-102770667D01*
X135145778Y-102643195D01*
X135145771Y-102643182D01*
X135069114Y-102528458D01*
X135069111Y-102528454D01*
X134971545Y-102430888D01*
X134971541Y-102430885D01*
X134856817Y-102354228D01*
X134856804Y-102354221D01*
X134729332Y-102301421D01*
X134729322Y-102301418D01*
X134593995Y-102274500D01*
X134593993Y-102274500D01*
X134456007Y-102274500D01*
X134449915Y-102274500D01*
X134449915Y-102271765D01*
X134392778Y-102260806D01*
X134342168Y-102212635D01*
X134325500Y-102150540D01*
X134325500Y-98028551D01*
X134295324Y-97838030D01*
X134295324Y-97838028D01*
X134235715Y-97654571D01*
X134151561Y-97489410D01*
X134138665Y-97420741D01*
X134164941Y-97356000D01*
X134222048Y-97315743D01*
X134291853Y-97312751D01*
X134332661Y-97331186D01*
G37*
%TD.AperFunction*%
%TA.AperFunction,Conductor*%
G36*
X155828887Y-99471185D02*
G01*
X155874642Y-99523989D01*
X155884586Y-99593147D01*
X155884321Y-99594899D01*
X155874500Y-99656903D01*
X155874500Y-99893097D01*
X155911446Y-100126368D01*
X155955018Y-100260466D01*
X155984432Y-100350992D01*
X155984433Y-100350993D01*
X155984434Y-100350997D01*
X155985984Y-100354038D01*
X155999500Y-100410334D01*
X155999500Y-102828887D01*
X155979815Y-102895926D01*
X155963181Y-102916568D01*
X154089068Y-104790681D01*
X154062140Y-104805384D01*
X154036322Y-104821977D01*
X154030121Y-104822868D01*
X154027745Y-104824166D01*
X154001387Y-104827000D01*
X153812000Y-104827000D01*
X153744961Y-104807315D01*
X153699206Y-104754511D01*
X153688000Y-104703000D01*
X153687999Y-104224575D01*
X153687998Y-104224567D01*
X153677804Y-104095015D01*
X153623904Y-103881107D01*
X153532676Y-103680261D01*
X153531123Y-103678020D01*
X153407050Y-103498931D01*
X153251068Y-103342949D01*
X153069743Y-103217326D01*
X152868895Y-103126096D01*
X152726287Y-103090162D01*
X152654985Y-103072196D01*
X152525433Y-103062000D01*
X152525431Y-103062000D01*
X151899575Y-103062000D01*
X151899560Y-103062001D01*
X151770015Y-103072196D01*
X151556104Y-103126096D01*
X151355256Y-103217326D01*
X151173931Y-103342949D01*
X151017949Y-103498931D01*
X150892326Y-103680256D01*
X150801096Y-103881104D01*
X150747196Y-104095015D01*
X150737000Y-104224561D01*
X150737000Y-104800424D01*
X150737001Y-104800439D01*
X150747196Y-104929986D01*
X150764827Y-104999957D01*
X150762119Y-105069774D01*
X150722095Y-105127044D01*
X150714665Y-105132552D01*
X150669352Y-105163593D01*
X150518593Y-105314352D01*
X150518588Y-105314358D01*
X150398092Y-105490261D01*
X150311967Y-105685317D01*
X150311965Y-105685323D01*
X150263152Y-105892859D01*
X150263150Y-105892875D01*
X150257000Y-105981484D01*
X150257000Y-106423515D01*
X150263150Y-106512124D01*
X150263152Y-106512140D01*
X150311965Y-106719676D01*
X150311967Y-106719682D01*
X150311968Y-106719685D01*
X150398091Y-106914737D01*
X150471904Y-107022490D01*
X150474966Y-107026960D01*
X150496612Y-107093392D01*
X150478907Y-107160981D01*
X150427471Y-107208268D01*
X150358635Y-107220241D01*
X150321385Y-107209936D01*
X150139681Y-107127403D01*
X150139678Y-107127402D01*
X149921420Y-107072405D01*
X149921413Y-107072404D01*
X149789222Y-107062000D01*
X149789217Y-107062000D01*
X149274499Y-107062000D01*
X149207460Y-107042315D01*
X149161705Y-106989511D01*
X149150499Y-106938000D01*
X149150499Y-106198291D01*
X149150498Y-106198276D01*
X149143560Y-106110110D01*
X149140096Y-106066088D01*
X149118778Y-105981488D01*
X149085098Y-105847824D01*
X149085097Y-105847822D01*
X149085096Y-105847817D01*
X149039099Y-105746551D01*
X149028000Y-105695273D01*
X149028000Y-104643071D01*
X149047685Y-104576032D01*
X149073637Y-104546970D01*
X149163609Y-104473609D01*
X149292198Y-104315907D01*
X149386409Y-104135549D01*
X149442386Y-103939918D01*
X149453000Y-103820537D01*
X149452999Y-102104464D01*
X149442386Y-101985082D01*
X149386409Y-101789451D01*
X149292198Y-101609093D01*
X149182851Y-101474990D01*
X149155743Y-101410595D01*
X149167752Y-101341765D01*
X149200589Y-101300532D01*
X149233609Y-101273609D01*
X149362198Y-101115907D01*
X149456409Y-100935549D01*
X149512386Y-100739918D01*
X149523000Y-100620537D01*
X149522999Y-99958611D01*
X149542683Y-99891573D01*
X149559318Y-99870931D01*
X149942431Y-99487819D01*
X150003754Y-99454334D01*
X150030112Y-99451500D01*
X155761848Y-99451500D01*
X155828887Y-99471185D01*
G37*
%TD.AperFunction*%
%TA.AperFunction,Conductor*%
G36*
X160453542Y-92882463D02*
G01*
X160478097Y-92885281D01*
X160486478Y-92892134D01*
X160496867Y-92895185D01*
X160513051Y-92913863D01*
X160532186Y-92929509D01*
X160539501Y-92944388D01*
X160542622Y-92947989D01*
X160547757Y-92961178D01*
X160609432Y-93150992D01*
X160716657Y-93361433D01*
X160855483Y-93552510D01*
X161022490Y-93719517D01*
X161213567Y-93858343D01*
X161297490Y-93901104D01*
X161424003Y-93965566D01*
X161424005Y-93965566D01*
X161424008Y-93965568D01*
X161540849Y-94003532D01*
X161648631Y-94038553D01*
X161881903Y-94075500D01*
X161881908Y-94075500D01*
X162118097Y-94075500D01*
X162351368Y-94038553D01*
X162371259Y-94032090D01*
X162575992Y-93965568D01*
X162786433Y-93858343D01*
X162977510Y-93719517D01*
X162985208Y-93711819D01*
X163046531Y-93678334D01*
X163072889Y-93675500D01*
X167391019Y-93675500D01*
X167420459Y-93684144D01*
X167450446Y-93690668D01*
X167455461Y-93694422D01*
X167458058Y-93695185D01*
X167478700Y-93711819D01*
X167588181Y-93821300D01*
X167621666Y-93882623D01*
X167624500Y-93908981D01*
X167624500Y-94231945D01*
X167604815Y-94298984D01*
X167552011Y-94344739D01*
X167482853Y-94354683D01*
X167453048Y-94346506D01*
X167319996Y-94291395D01*
X167319994Y-94291394D01*
X167319993Y-94291394D01*
X167092014Y-94230307D01*
X167092013Y-94230306D01*
X167092010Y-94230306D01*
X166858020Y-94199501D01*
X166858017Y-94199500D01*
X166858011Y-94199500D01*
X166621989Y-94199500D01*
X166621983Y-94199500D01*
X166621979Y-94199501D01*
X166387989Y-94230306D01*
X166160006Y-94291394D01*
X165941954Y-94381714D01*
X165941943Y-94381719D01*
X165737545Y-94499730D01*
X165547080Y-94645879D01*
X165546191Y-94644720D01*
X165488338Y-94671537D01*
X165419124Y-94661983D01*
X165393298Y-94645385D01*
X165392920Y-94645879D01*
X165202454Y-94499730D01*
X165202453Y-94499729D01*
X165202450Y-94499727D01*
X165086358Y-94432701D01*
X164998056Y-94381719D01*
X164998045Y-94381714D01*
X164779993Y-94291394D01*
X164750767Y-94283563D01*
X164552014Y-94230307D01*
X164552013Y-94230306D01*
X164552010Y-94230306D01*
X164318020Y-94199501D01*
X164318017Y-94199500D01*
X164318011Y-94199500D01*
X164081989Y-94199500D01*
X164081983Y-94199500D01*
X164081979Y-94199501D01*
X163847989Y-94230306D01*
X163620006Y-94291394D01*
X163401954Y-94381714D01*
X163401943Y-94381719D01*
X163197545Y-94499730D01*
X163010302Y-94643406D01*
X163010295Y-94643412D01*
X162843412Y-94810295D01*
X162843406Y-94810302D01*
X162699730Y-94997545D01*
X162581719Y-95201943D01*
X162581714Y-95201954D01*
X162491394Y-95420006D01*
X162430306Y-95647989D01*
X162399501Y-95881979D01*
X162399500Y-95881995D01*
X162399500Y-96118004D01*
X162399501Y-96118020D01*
X162430306Y-96352010D01*
X162491394Y-96579993D01*
X162581714Y-96798045D01*
X162581719Y-96798056D01*
X162652677Y-96920957D01*
X162699727Y-97002450D01*
X162699729Y-97002453D01*
X162699730Y-97002454D01*
X162843406Y-97189697D01*
X162843412Y-97189704D01*
X163010295Y-97356587D01*
X163010302Y-97356593D01*
X163112714Y-97435176D01*
X163197550Y-97500273D01*
X163315499Y-97568371D01*
X163401943Y-97618280D01*
X163401948Y-97618282D01*
X163401951Y-97618284D01*
X163620007Y-97708606D01*
X163847986Y-97769693D01*
X164081989Y-97800500D01*
X164150500Y-97800500D01*
X164217539Y-97820185D01*
X164263294Y-97872989D01*
X164274500Y-97924500D01*
X164274500Y-102892019D01*
X164254815Y-102959058D01*
X164202011Y-103004813D01*
X164132853Y-103014757D01*
X164069297Y-102985732D01*
X164062819Y-102979700D01*
X163410862Y-102327743D01*
X163410860Y-102327741D01*
X163254802Y-102214358D01*
X163140942Y-102156344D01*
X163082929Y-102126785D01*
X163006495Y-102101950D01*
X163002285Y-102100232D01*
X162978380Y-102081175D01*
X162953141Y-102063916D01*
X162947740Y-102056747D01*
X162947652Y-102056677D01*
X162947623Y-102056591D01*
X162947206Y-102056038D01*
X162913823Y-102007852D01*
X162913819Y-102007846D01*
X162754654Y-101848681D01*
X162754650Y-101848678D01*
X162754645Y-101848674D01*
X162569632Y-101720497D01*
X162569630Y-101720495D01*
X162569626Y-101720493D01*
X162553169Y-101713018D01*
X162364681Y-101627403D01*
X162364678Y-101627402D01*
X162146420Y-101572405D01*
X162146413Y-101572404D01*
X162014222Y-101562000D01*
X161362000Y-101562000D01*
X161294961Y-101542315D01*
X161249206Y-101489511D01*
X161238000Y-101438000D01*
X161238000Y-98804246D01*
X161204130Y-98590403D01*
X161159618Y-98453407D01*
X161137227Y-98384493D01*
X161137226Y-98384490D01*
X161038932Y-98191580D01*
X160911672Y-98016422D01*
X160758578Y-97863328D01*
X160572549Y-97677299D01*
X160368452Y-97473201D01*
X160334967Y-97411878D01*
X160339951Y-97342186D01*
X160368450Y-97297840D01*
X160476592Y-97189699D01*
X160620273Y-97002450D01*
X160738284Y-96798049D01*
X160828606Y-96579993D01*
X160889693Y-96352014D01*
X160920500Y-96118011D01*
X160920500Y-95881989D01*
X160889693Y-95647986D01*
X160828606Y-95420007D01*
X160738284Y-95201951D01*
X160738282Y-95201948D01*
X160738280Y-95201943D01*
X160677167Y-95096093D01*
X160620273Y-94997550D01*
X160499881Y-94840652D01*
X160476593Y-94810302D01*
X160476587Y-94810295D01*
X160309704Y-94643412D01*
X160309697Y-94643406D01*
X160122454Y-94499730D01*
X160122453Y-94499729D01*
X160122450Y-94499727D01*
X160006358Y-94432701D01*
X159918056Y-94381719D01*
X159918049Y-94381716D01*
X159802046Y-94333665D01*
X159747643Y-94289823D01*
X159725579Y-94223529D01*
X159725500Y-94219104D01*
X159725500Y-92999500D01*
X159745185Y-92932461D01*
X159797989Y-92886706D01*
X159849500Y-92875500D01*
X160429828Y-92875500D01*
X160453542Y-92882463D01*
G37*
%TD.AperFunction*%
%TA.AperFunction,Conductor*%
G36*
X141036517Y-60519685D02*
G01*
X141082272Y-60572489D01*
X141092216Y-60641647D01*
X141063191Y-60705203D01*
X141025773Y-60734485D01*
X140913566Y-60791657D01*
X140838516Y-60846185D01*
X140722490Y-60930483D01*
X140722488Y-60930485D01*
X140722487Y-60930485D01*
X140555485Y-61097487D01*
X140555485Y-61097488D01*
X140555483Y-61097490D01*
X140495862Y-61179550D01*
X140416657Y-61288566D01*
X140309433Y-61499003D01*
X140236446Y-61723631D01*
X140199500Y-61956902D01*
X140199500Y-62193097D01*
X140236446Y-62426368D01*
X140309433Y-62650996D01*
X140416657Y-62861433D01*
X140501068Y-62977614D01*
X140524548Y-63043421D01*
X140508723Y-63111475D01*
X140458617Y-63160170D01*
X140400750Y-63174500D01*
X135316741Y-63174500D01*
X135102902Y-63208368D01*
X134896986Y-63275275D01*
X134704077Y-63373569D01*
X134528928Y-63500821D01*
X134528923Y-63500825D01*
X124650827Y-73378921D01*
X124612922Y-73431093D01*
X124560750Y-73502903D01*
X124560749Y-73502903D01*
X124560749Y-73502904D01*
X124523569Y-73554076D01*
X124425273Y-73746990D01*
X124425272Y-73746993D01*
X124358370Y-73952901D01*
X124324500Y-74166746D01*
X124324500Y-80983253D01*
X124354214Y-81170858D01*
X124354215Y-81170866D01*
X124354812Y-81174630D01*
X124358370Y-81197097D01*
X124363654Y-81213361D01*
X124364942Y-81219159D01*
X124364069Y-81232162D01*
X124366831Y-81262230D01*
X124349501Y-81393869D01*
X124349500Y-81393886D01*
X124349500Y-81656127D01*
X124368411Y-81799759D01*
X124383730Y-81916116D01*
X124444764Y-82143899D01*
X124451602Y-82169418D01*
X124451605Y-82169428D01*
X124551953Y-82411690D01*
X124551958Y-82411700D01*
X124683075Y-82638803D01*
X124842718Y-82846851D01*
X124842726Y-82846860D01*
X125028140Y-83032274D01*
X125028148Y-83032281D01*
X125236196Y-83191924D01*
X125463299Y-83323041D01*
X125463309Y-83323046D01*
X125705571Y-83423394D01*
X125705581Y-83423398D01*
X125958884Y-83491270D01*
X126218880Y-83525500D01*
X126218887Y-83525500D01*
X126481113Y-83525500D01*
X126481120Y-83525500D01*
X126741116Y-83491270D01*
X126994419Y-83423398D01*
X127236697Y-83323043D01*
X127463803Y-83191924D01*
X127671851Y-83032282D01*
X127767315Y-82936817D01*
X127828636Y-82903334D01*
X127854995Y-82900500D01*
X131345005Y-82900500D01*
X131412044Y-82920185D01*
X131432681Y-82936814D01*
X131503720Y-83007853D01*
X131528148Y-83032281D01*
X131736196Y-83191924D01*
X131963299Y-83323041D01*
X131963309Y-83323046D01*
X132205571Y-83423394D01*
X132205581Y-83423398D01*
X132458884Y-83491270D01*
X132718880Y-83525500D01*
X132718887Y-83525500D01*
X132981113Y-83525500D01*
X132981120Y-83525500D01*
X133106233Y-83509028D01*
X133175268Y-83519793D01*
X133227524Y-83566173D01*
X133246410Y-83633442D01*
X133225930Y-83700243D01*
X133210100Y-83719648D01*
X132941568Y-83988181D01*
X132880245Y-84021666D01*
X132853887Y-84024500D01*
X132718872Y-84024500D01*
X132487772Y-84054926D01*
X132458884Y-84058730D01*
X132205581Y-84126602D01*
X132205571Y-84126605D01*
X131963309Y-84226953D01*
X131963299Y-84226958D01*
X131736196Y-84358075D01*
X131528148Y-84517718D01*
X131480417Y-84565449D01*
X131432684Y-84613182D01*
X131371364Y-84646666D01*
X131345005Y-84649500D01*
X127854995Y-84649500D01*
X127787956Y-84629815D01*
X127767318Y-84613185D01*
X127671851Y-84517718D01*
X127636499Y-84490591D01*
X127463803Y-84358075D01*
X127236700Y-84226958D01*
X127236690Y-84226953D01*
X126994428Y-84126605D01*
X126994421Y-84126603D01*
X126994419Y-84126602D01*
X126741116Y-84058730D01*
X126683339Y-84051123D01*
X126481127Y-84024500D01*
X126481120Y-84024500D01*
X126218880Y-84024500D01*
X126218872Y-84024500D01*
X125987772Y-84054926D01*
X125958884Y-84058730D01*
X125705581Y-84126602D01*
X125705571Y-84126605D01*
X125463309Y-84226953D01*
X125463299Y-84226958D01*
X125236196Y-84358075D01*
X125028148Y-84517718D01*
X124842718Y-84703148D01*
X124683075Y-84911196D01*
X124551958Y-85138299D01*
X124551953Y-85138309D01*
X124451605Y-85380571D01*
X124451602Y-85380581D01*
X124397262Y-85583384D01*
X124383730Y-85633885D01*
X124349500Y-85893872D01*
X124349500Y-86156127D01*
X124372430Y-86330289D01*
X124383730Y-86416116D01*
X124448804Y-86658977D01*
X124451602Y-86669418D01*
X124451605Y-86669428D01*
X124551953Y-86911690D01*
X124551958Y-86911700D01*
X124683075Y-87138803D01*
X124842718Y-87346851D01*
X124842726Y-87346860D01*
X125028140Y-87532274D01*
X125028148Y-87532281D01*
X125028149Y-87532282D01*
X125065293Y-87560784D01*
X125236196Y-87691924D01*
X125463299Y-87823041D01*
X125463309Y-87823046D01*
X125653919Y-87901999D01*
X125705581Y-87923398D01*
X125958884Y-87991270D01*
X126218880Y-88025500D01*
X126218887Y-88025500D01*
X126481113Y-88025500D01*
X126481120Y-88025500D01*
X126741116Y-87991270D01*
X126994419Y-87923398D01*
X127028046Y-87909468D01*
X127097515Y-87901999D01*
X127159995Y-87933273D01*
X127195648Y-87993362D01*
X127199500Y-88024029D01*
X127199500Y-88589208D01*
X127199501Y-88589223D01*
X127209904Y-88721413D01*
X127209905Y-88721420D01*
X127264902Y-88939678D01*
X127264903Y-88939681D01*
X127357991Y-89144622D01*
X127357997Y-89144632D01*
X127486174Y-89329645D01*
X127486178Y-89329650D01*
X127486181Y-89329654D01*
X127645346Y-89488819D01*
X127645350Y-89488822D01*
X127645354Y-89488825D01*
X127718091Y-89539217D01*
X127830374Y-89617007D01*
X128035317Y-89710096D01*
X128035321Y-89710097D01*
X128253579Y-89765094D01*
X128253581Y-89765094D01*
X128253588Y-89765096D01*
X128385783Y-89775500D01*
X129039216Y-89775499D01*
X129171412Y-89765096D01*
X129389683Y-89710096D01*
X129594626Y-89617007D01*
X129779654Y-89488819D01*
X129938819Y-89329654D01*
X130067007Y-89144626D01*
X130160096Y-88939683D01*
X130215096Y-88721412D01*
X130225500Y-88589217D01*
X130225499Y-87560784D01*
X130223409Y-87534228D01*
X130237773Y-87465852D01*
X130286825Y-87416095D01*
X130347027Y-87400500D01*
X131345005Y-87400500D01*
X131412044Y-87420185D01*
X131432681Y-87436814D01*
X131528149Y-87532282D01*
X131565293Y-87560784D01*
X131736196Y-87691924D01*
X131963299Y-87823041D01*
X131963309Y-87823046D01*
X132153919Y-87901999D01*
X132205581Y-87923398D01*
X132458884Y-87991270D01*
X132718880Y-88025500D01*
X132718887Y-88025500D01*
X132981113Y-88025500D01*
X132981120Y-88025500D01*
X133241116Y-87991270D01*
X133494419Y-87923398D01*
X133736697Y-87823043D01*
X133963803Y-87691924D01*
X134171851Y-87532282D01*
X134171855Y-87532277D01*
X134171860Y-87532274D01*
X134357274Y-87346860D01*
X134357277Y-87346855D01*
X134357282Y-87346851D01*
X134516924Y-87138803D01*
X134648043Y-86911697D01*
X134748398Y-86669419D01*
X134816270Y-86416116D01*
X134850500Y-86156120D01*
X134850500Y-86021112D01*
X134859144Y-85991671D01*
X134865668Y-85961685D01*
X134869422Y-85956669D01*
X134870185Y-85954073D01*
X134886815Y-85933435D01*
X134913820Y-85906430D01*
X134975142Y-85872946D01*
X135044834Y-85877930D01*
X135100767Y-85919802D01*
X135125184Y-85985266D01*
X135125500Y-85994112D01*
X135125500Y-86059746D01*
X135125501Y-86059763D01*
X135154150Y-86277378D01*
X135210963Y-86489407D01*
X135294962Y-86692198D01*
X135294967Y-86692209D01*
X135404712Y-86882291D01*
X135404723Y-86882307D01*
X135538341Y-87056442D01*
X135538347Y-87056449D01*
X135693550Y-87211652D01*
X135693557Y-87211658D01*
X135817560Y-87306808D01*
X135867701Y-87345283D01*
X135867708Y-87345287D01*
X136057790Y-87455032D01*
X136057806Y-87455040D01*
X136179637Y-87505503D01*
X136234041Y-87549343D01*
X136254658Y-87600666D01*
X136286446Y-87801368D01*
X136359433Y-88025996D01*
X136418733Y-88142377D01*
X136466657Y-88236433D01*
X136500818Y-88283451D01*
X136524298Y-88349257D01*
X136524500Y-88356336D01*
X136524500Y-89771449D01*
X136525142Y-89775500D01*
X136554675Y-89961969D01*
X136554676Y-89961972D01*
X136614285Y-90145429D01*
X136628406Y-90173142D01*
X136701858Y-90317302D01*
X136815241Y-90473360D01*
X136815243Y-90473362D01*
X137104700Y-90762819D01*
X137138185Y-90824142D01*
X137133201Y-90893834D01*
X137091329Y-90949767D01*
X137025865Y-90974184D01*
X137017019Y-90974500D01*
X136987956Y-90974500D01*
X136920917Y-90954815D01*
X136891854Y-90928860D01*
X136851111Y-90878892D01*
X136693409Y-90750304D01*
X136693410Y-90750304D01*
X136693407Y-90750302D01*
X136513049Y-90656091D01*
X136513048Y-90656090D01*
X136513045Y-90656089D01*
X136373870Y-90616267D01*
X136317418Y-90600114D01*
X136317415Y-90600113D01*
X136317413Y-90600113D01*
X136251102Y-90594217D01*
X136198037Y-90589500D01*
X136198032Y-90589500D01*
X134481971Y-90589500D01*
X134481965Y-90589500D01*
X134481964Y-90589501D01*
X134470316Y-90590536D01*
X134362584Y-90600113D01*
X134166954Y-90656089D01*
X134155265Y-90662195D01*
X133986593Y-90750302D01*
X133986591Y-90750303D01*
X133986590Y-90750304D01*
X133828890Y-90878890D01*
X133700304Y-91036590D01*
X133606089Y-91216954D01*
X133550114Y-91412583D01*
X133550113Y-91412586D01*
X133542607Y-91497016D01*
X133540343Y-91522488D01*
X133539500Y-91531966D01*
X133539500Y-93248028D01*
X133539501Y-93248034D01*
X133550113Y-93367415D01*
X133606089Y-93563045D01*
X133606090Y-93563048D01*
X133606091Y-93563049D01*
X133700302Y-93743407D01*
X133700304Y-93743409D01*
X133828888Y-93901106D01*
X133828889Y-93901107D01*
X133828891Y-93901109D01*
X133918861Y-93974470D01*
X133958378Y-94032090D01*
X133964500Y-94070571D01*
X133964500Y-95402719D01*
X133953400Y-95453998D01*
X133943043Y-95476800D01*
X133928596Y-95508607D01*
X133874696Y-95722515D01*
X133864500Y-95852061D01*
X133864500Y-96427924D01*
X133864501Y-96427939D01*
X133874696Y-96557484D01*
X133928596Y-96771395D01*
X134019760Y-96972099D01*
X134029563Y-97041278D01*
X134000408Y-97104774D01*
X133941553Y-97142428D01*
X133871683Y-97142285D01*
X133819180Y-97111061D01*
X127448362Y-90740243D01*
X127448360Y-90740241D01*
X127292302Y-90626858D01*
X127172012Y-90565568D01*
X127120429Y-90539285D01*
X126936972Y-90479676D01*
X126936970Y-90479675D01*
X126936969Y-90479675D01*
X126790614Y-90456495D01*
X126746449Y-90449500D01*
X126746448Y-90449500D01*
X125983980Y-90449500D01*
X125916941Y-90429815D01*
X125896299Y-90413181D01*
X123686819Y-88203700D01*
X123653334Y-88142377D01*
X123650500Y-88116019D01*
X123650500Y-80656336D01*
X123670185Y-80589297D01*
X123674170Y-80583466D01*
X123708343Y-80536433D01*
X123815568Y-80325992D01*
X123888553Y-80101368D01*
X123893817Y-80068134D01*
X123925500Y-79868097D01*
X123925500Y-79631902D01*
X123888553Y-79398631D01*
X123844258Y-79262307D01*
X123815568Y-79174008D01*
X123787434Y-79118793D01*
X123774538Y-79050127D01*
X123787434Y-79006207D01*
X123815568Y-78950992D01*
X123888553Y-78726368D01*
X123896394Y-78676861D01*
X123925500Y-78493097D01*
X123925500Y-78256902D01*
X123888553Y-78023631D01*
X123831482Y-77847987D01*
X123815568Y-77799008D01*
X123815566Y-77799005D01*
X123815566Y-77799003D01*
X123735535Y-77641934D01*
X123708343Y-77588567D01*
X123569517Y-77397490D01*
X123402510Y-77230483D01*
X123355215Y-77196121D01*
X123312551Y-77140791D01*
X123306572Y-77071178D01*
X123323107Y-77029832D01*
X123355246Y-76978686D01*
X123501469Y-76675051D01*
X123612776Y-76356954D01*
X123687767Y-76028394D01*
X123725500Y-75693504D01*
X123725500Y-75356496D01*
X123687767Y-75021606D01*
X123612776Y-74693046D01*
X123610338Y-74686080D01*
X123550571Y-74515274D01*
X123501469Y-74374949D01*
X123355246Y-74071314D01*
X123175946Y-73785961D01*
X122965825Y-73522477D01*
X122727523Y-73284175D01*
X122464039Y-73074054D01*
X122178686Y-72894754D01*
X122178683Y-72894752D01*
X121875054Y-72748532D01*
X121556965Y-72637227D01*
X121556953Y-72637223D01*
X121228397Y-72562233D01*
X121228381Y-72562231D01*
X120893508Y-72524500D01*
X120893504Y-72524500D01*
X120556496Y-72524500D01*
X120556491Y-72524500D01*
X120221618Y-72562231D01*
X120221602Y-72562233D01*
X119893046Y-72637223D01*
X119893034Y-72637227D01*
X119574945Y-72748532D01*
X119271316Y-72894752D01*
X118985962Y-73074053D01*
X118722477Y-73284174D01*
X118711681Y-73294971D01*
X118650358Y-73328456D01*
X118580666Y-73323472D01*
X118524733Y-73281600D01*
X118500316Y-73216136D01*
X118500000Y-73207290D01*
X118500000Y-69551362D01*
X118519685Y-69484323D01*
X118536319Y-69463681D01*
X127463681Y-60536319D01*
X127525004Y-60502834D01*
X127551362Y-60500000D01*
X140969478Y-60500000D01*
X141036517Y-60519685D01*
G37*
%TD.AperFunction*%
%TA.AperFunction,Conductor*%
G36*
X143700096Y-86284690D02*
G01*
X143732032Y-86341445D01*
X143772372Y-86501539D01*
X143772374Y-86501543D01*
X143773596Y-86506393D01*
X143810744Y-86588179D01*
X143811009Y-86588777D01*
X143815510Y-86622855D01*
X143820332Y-86656890D01*
X143820106Y-86657657D01*
X143820158Y-86658045D01*
X143819718Y-86658977D01*
X143810531Y-86690270D01*
X143763599Y-86793597D01*
X143763596Y-86793606D01*
X143709696Y-87007515D01*
X143699500Y-87137061D01*
X143699500Y-87762924D01*
X143699501Y-87762939D01*
X143705444Y-87838450D01*
X143709696Y-87892485D01*
X143719974Y-87933273D01*
X143763596Y-88106395D01*
X143854822Y-88307236D01*
X143854823Y-88307238D01*
X143902428Y-88375951D01*
X143924425Y-88442267D01*
X143924500Y-88446567D01*
X143924500Y-89771449D01*
X143925142Y-89775500D01*
X143954675Y-89961969D01*
X143954676Y-89961972D01*
X144014285Y-90145429D01*
X144028406Y-90173142D01*
X144101858Y-90317302D01*
X144114551Y-90334772D01*
X144118603Y-90342377D01*
X144124004Y-90368492D01*
X144132966Y-90393608D01*
X144130972Y-90402180D01*
X144132755Y-90410799D01*
X144123181Y-90435685D01*
X144117141Y-90461662D01*
X144110828Y-90467796D01*
X144107669Y-90476010D01*
X144104535Y-90478306D01*
X144166436Y-90465763D01*
X144231546Y-90491111D01*
X144243508Y-90501627D01*
X146101641Y-92359759D01*
X146257698Y-92473142D01*
X146341997Y-92516094D01*
X146429571Y-92560716D01*
X146429577Y-92560718D01*
X146553419Y-92600956D01*
X146553420Y-92600956D01*
X146613028Y-92620324D01*
X146803551Y-92650500D01*
X146803552Y-92650500D01*
X147946448Y-92650500D01*
X147946449Y-92650500D01*
X148136972Y-92620324D01*
X148320429Y-92560715D01*
X148395450Y-92522490D01*
X148492302Y-92473142D01*
X148648360Y-92359759D01*
X148912037Y-92096081D01*
X148973355Y-92062599D01*
X149043047Y-92067583D01*
X149098981Y-92109454D01*
X149117645Y-92145446D01*
X149184433Y-92350996D01*
X149291290Y-92560713D01*
X149291657Y-92561433D01*
X149430483Y-92752510D01*
X149597490Y-92919517D01*
X149788567Y-93058343D01*
X149857551Y-93093492D01*
X149999003Y-93165566D01*
X149999005Y-93165566D01*
X149999008Y-93165568D01*
X150119412Y-93204689D01*
X150223631Y-93238553D01*
X150456903Y-93275500D01*
X150456908Y-93275500D01*
X150693097Y-93275500D01*
X150926368Y-93238553D01*
X151150992Y-93165568D01*
X151361433Y-93058343D01*
X151552510Y-92919517D01*
X151719517Y-92752510D01*
X151858343Y-92561433D01*
X151900877Y-92477952D01*
X151923675Y-92446574D01*
X153089173Y-91281078D01*
X153216433Y-91105919D01*
X153314726Y-90913009D01*
X153344904Y-90820129D01*
X153384342Y-90762454D01*
X153448700Y-90735256D01*
X153517547Y-90747171D01*
X153550516Y-90770767D01*
X153991180Y-91211431D01*
X154024665Y-91272754D01*
X154019681Y-91342446D01*
X153991180Y-91386793D01*
X153855485Y-91522487D01*
X153855485Y-91522488D01*
X153855483Y-91522490D01*
X153795862Y-91604550D01*
X153716657Y-91713566D01*
X153609433Y-91924003D01*
X153536446Y-92148631D01*
X153499500Y-92381902D01*
X153499500Y-92618097D01*
X153536446Y-92851368D01*
X153609433Y-93075996D01*
X153647646Y-93150992D01*
X153716657Y-93286433D01*
X153750818Y-93333451D01*
X153774298Y-93399257D01*
X153774500Y-93406336D01*
X153774500Y-94111977D01*
X153754815Y-94179016D01*
X153702011Y-94224771D01*
X153682596Y-94231751D01*
X153584025Y-94258163D01*
X153460006Y-94291394D01*
X153241954Y-94381714D01*
X153241943Y-94381719D01*
X153037545Y-94499730D01*
X152847080Y-94645879D01*
X152846191Y-94644720D01*
X152788338Y-94671537D01*
X152719124Y-94661983D01*
X152693298Y-94645385D01*
X152692920Y-94645879D01*
X152502454Y-94499730D01*
X152502453Y-94499729D01*
X152502450Y-94499727D01*
X152386358Y-94432701D01*
X152298056Y-94381719D01*
X152298045Y-94381714D01*
X152079993Y-94291394D01*
X152050767Y-94283563D01*
X151852014Y-94230307D01*
X151852013Y-94230306D01*
X151852010Y-94230306D01*
X151618020Y-94199501D01*
X151618017Y-94199500D01*
X151618011Y-94199500D01*
X151381989Y-94199500D01*
X151381983Y-94199500D01*
X151381979Y-94199501D01*
X151147989Y-94230306D01*
X150920006Y-94291394D01*
X150701954Y-94381714D01*
X150701943Y-94381719D01*
X150497545Y-94499730D01*
X150310302Y-94643406D01*
X150310295Y-94643412D01*
X150143412Y-94810295D01*
X150143406Y-94810302D01*
X149999730Y-94997545D01*
X149881719Y-95201943D01*
X149881714Y-95201954D01*
X149791394Y-95420006D01*
X149730306Y-95647990D01*
X149729969Y-95649687D01*
X149729728Y-95650146D01*
X149729257Y-95651907D01*
X149728863Y-95651801D01*
X149697586Y-95711599D01*
X149636872Y-95746175D01*
X149608351Y-95749500D01*
X148887280Y-95749500D01*
X148835999Y-95738399D01*
X148781395Y-95713596D01*
X148627141Y-95674728D01*
X148567485Y-95659696D01*
X148545893Y-95657996D01*
X148437938Y-95649500D01*
X148437933Y-95649500D01*
X148099500Y-95649500D01*
X148032461Y-95629815D01*
X147986706Y-95577011D01*
X147975500Y-95525500D01*
X147975499Y-94535791D01*
X147975498Y-94535783D01*
X147965096Y-94403588D01*
X147961347Y-94388711D01*
X147910097Y-94185321D01*
X147910096Y-94185318D01*
X147907646Y-94179925D01*
X147817007Y-93980374D01*
X147762090Y-93901106D01*
X147688825Y-93795354D01*
X147688822Y-93795350D01*
X147688819Y-93795346D01*
X147529654Y-93636181D01*
X147529650Y-93636178D01*
X147529645Y-93636174D01*
X147344632Y-93507997D01*
X147344630Y-93507995D01*
X147344626Y-93507993D01*
X147139683Y-93414904D01*
X147139681Y-93414903D01*
X147139678Y-93414902D01*
X146921420Y-93359905D01*
X146921413Y-93359904D01*
X146877347Y-93356436D01*
X146789217Y-93349500D01*
X146789215Y-93349500D01*
X146135791Y-93349500D01*
X146135776Y-93349501D01*
X146003586Y-93359904D01*
X146003579Y-93359905D01*
X145785321Y-93414902D01*
X145785318Y-93414903D01*
X145580377Y-93507991D01*
X145580367Y-93507997D01*
X145395354Y-93636174D01*
X145395342Y-93636184D01*
X145236184Y-93795342D01*
X145236174Y-93795354D01*
X145107997Y-93980367D01*
X145107991Y-93980377D01*
X145050383Y-94107206D01*
X145004736Y-94160104D01*
X144937737Y-94179925D01*
X144870657Y-94160377D01*
X144824795Y-94107666D01*
X144817709Y-94088019D01*
X144771054Y-93913900D01*
X144769016Y-93908981D01*
X144700434Y-93743409D01*
X144678224Y-93689788D01*
X144556936Y-93479711D01*
X144409265Y-93287262D01*
X144409260Y-93287256D01*
X144276819Y-93154815D01*
X144243334Y-93093492D01*
X144240500Y-93067134D01*
X144240500Y-91218551D01*
X144222661Y-91105919D01*
X144210324Y-91028028D01*
X144150715Y-90844571D01*
X144063141Y-90672698D01*
X144055509Y-90662194D01*
X144032029Y-90596389D01*
X144047853Y-90528335D01*
X144066171Y-90510532D01*
X144058408Y-90512104D01*
X144051310Y-90517306D01*
X144024694Y-90518935D01*
X143998557Y-90524232D01*
X143990355Y-90521038D01*
X143981571Y-90521577D01*
X143958297Y-90508557D01*
X143933448Y-90498883D01*
X143921487Y-90488368D01*
X143422310Y-89989191D01*
X143388825Y-89927868D01*
X143389749Y-89871213D01*
X143440096Y-89671412D01*
X143450500Y-89539217D01*
X143450499Y-88510784D01*
X143440096Y-88378588D01*
X143422117Y-88307239D01*
X143385097Y-88160321D01*
X143385096Y-88160318D01*
X143360603Y-88106395D01*
X143292007Y-87955374D01*
X143255029Y-87901999D01*
X143185072Y-87801021D01*
X143163075Y-87734704D01*
X143163000Y-87730405D01*
X143163000Y-87194335D01*
X143182685Y-87127296D01*
X143199319Y-87106654D01*
X143201319Y-87104654D01*
X143329507Y-86919626D01*
X143422596Y-86714683D01*
X143477596Y-86496412D01*
X143488000Y-86364217D01*
X143487999Y-86364212D01*
X143488173Y-86362014D01*
X143513057Y-86296726D01*
X143569288Y-86255255D01*
X143639014Y-86250768D01*
X143700096Y-86284690D01*
G37*
%TD.AperFunction*%
%TA.AperFunction,Conductor*%
G36*
X144888772Y-95192039D02*
G01*
X144936383Y-95243176D01*
X144949500Y-95298682D01*
X144949500Y-95562007D01*
X144949500Y-95562020D01*
X144949501Y-95564216D01*
X144952937Y-95607880D01*
X144952949Y-95608039D01*
X144945658Y-95642103D01*
X144938548Y-95675950D01*
X144938378Y-95676122D01*
X144938327Y-95676361D01*
X144913776Y-95701077D01*
X144889497Y-95725706D01*
X144889260Y-95725759D01*
X144889088Y-95725933D01*
X144855117Y-95733442D01*
X144821332Y-95741045D01*
X144821102Y-95740961D01*
X144820865Y-95741014D01*
X144788257Y-95728977D01*
X144755695Y-95717096D01*
X144755520Y-95716892D01*
X144755319Y-95716818D01*
X144754308Y-95715477D01*
X144719387Y-95674713D01*
X144704699Y-95646595D01*
X144704698Y-95646593D01*
X144637529Y-95564217D01*
X144636308Y-95562719D01*
X144609199Y-95498322D01*
X144621208Y-95429493D01*
X144625012Y-95422376D01*
X144678224Y-95330212D01*
X144710939Y-95251228D01*
X144754779Y-95196827D01*
X144821073Y-95174761D01*
X144888772Y-95192039D01*
G37*
%TD.AperFunction*%
%TA.AperFunction,Conductor*%
G36*
X168415182Y-83372347D02*
G01*
X168420486Y-83377349D01*
X170338181Y-85295044D01*
X170371666Y-85356367D01*
X170374500Y-85382725D01*
X170374500Y-85421288D01*
X170393451Y-85565243D01*
X170406162Y-85661789D01*
X170446599Y-85812699D01*
X170468946Y-85896100D01*
X170520727Y-86021112D01*
X170561776Y-86120212D01*
X170683064Y-86330289D01*
X170683066Y-86330292D01*
X170683067Y-86330293D01*
X170830733Y-86522736D01*
X170830739Y-86522743D01*
X171002256Y-86694260D01*
X171002263Y-86694266D01*
X171085132Y-86757853D01*
X171194711Y-86841936D01*
X171404788Y-86963224D01*
X171628900Y-87056054D01*
X171863211Y-87118838D01*
X172014863Y-87138803D01*
X172103711Y-87150500D01*
X172103712Y-87150500D01*
X172596289Y-87150500D01*
X172653462Y-87142973D01*
X172836789Y-87118838D01*
X173071100Y-87056054D01*
X173217085Y-86995584D01*
X173236958Y-86993447D01*
X173255688Y-86986462D01*
X173270984Y-86989789D01*
X173286550Y-86988116D01*
X173304427Y-86997064D01*
X173323961Y-87001314D01*
X173346247Y-87017997D01*
X173349029Y-87019390D01*
X173352215Y-87022465D01*
X173438181Y-87108431D01*
X173471666Y-87169754D01*
X173474500Y-87196112D01*
X173474500Y-88351956D01*
X173454815Y-88418995D01*
X173402011Y-88464750D01*
X173332853Y-88474694D01*
X173320203Y-88472198D01*
X173271412Y-88459904D01*
X173271413Y-88459904D01*
X173139222Y-88449500D01*
X173139217Y-88449500D01*
X172283980Y-88449500D01*
X172216941Y-88429815D01*
X172196299Y-88413181D01*
X170784432Y-87001314D01*
X169348360Y-85565241D01*
X169238312Y-85485286D01*
X169192300Y-85451856D01*
X169143894Y-85427193D01*
X169112509Y-85404391D01*
X169013567Y-85305449D01*
X169013566Y-85305448D01*
X169013564Y-85305446D01*
X168832243Y-85179826D01*
X168631395Y-85088596D01*
X168488787Y-85052662D01*
X168417485Y-85034696D01*
X168287933Y-85024500D01*
X168287931Y-85024500D01*
X167712075Y-85024500D01*
X167712060Y-85024501D01*
X167582515Y-85034696D01*
X167368604Y-85088596D01*
X167167756Y-85179826D01*
X166986431Y-85305449D01*
X166830449Y-85461431D01*
X166704826Y-85642756D01*
X166613596Y-85843604D01*
X166559696Y-86057515D01*
X166551936Y-86156120D01*
X166549500Y-86187067D01*
X166549500Y-86496420D01*
X166549501Y-86775500D01*
X166529817Y-86842539D01*
X166477013Y-86888294D01*
X166425501Y-86899500D01*
X164811725Y-86899500D01*
X164744686Y-86879815D01*
X164698931Y-86827011D01*
X164688987Y-86757853D01*
X164693794Y-86737182D01*
X164713552Y-86676372D01*
X164713552Y-86676371D01*
X164713553Y-86676368D01*
X164737885Y-86522743D01*
X164750500Y-86443097D01*
X164750500Y-86206902D01*
X164713553Y-85973631D01*
X164661263Y-85812701D01*
X164640568Y-85749008D01*
X164640566Y-85749005D01*
X164640565Y-85749000D01*
X164591168Y-85652053D01*
X164589497Y-85643156D01*
X164584282Y-85635759D01*
X164583149Y-85609356D01*
X164578272Y-85583384D01*
X164581675Y-85574997D01*
X164581288Y-85565954D01*
X164594610Y-85543128D01*
X164604549Y-85518644D01*
X164612878Y-85511832D01*
X164616510Y-85505611D01*
X164645342Y-85485286D01*
X164645352Y-85485277D01*
X164672493Y-85471449D01*
X164767302Y-85423142D01*
X164923360Y-85309759D01*
X166761300Y-83471819D01*
X166822623Y-83438334D01*
X166848981Y-83435500D01*
X167921016Y-83435500D01*
X167956459Y-83433039D01*
X168009630Y-83429349D01*
X168009636Y-83429347D01*
X168009640Y-83429347D01*
X168217176Y-83380534D01*
X168217172Y-83380534D01*
X168217185Y-83380532D01*
X168282718Y-83351595D01*
X168351996Y-83342524D01*
X168415182Y-83372347D01*
G37*
%TD.AperFunction*%
%TA.AperFunction,Conductor*%
G36*
X157585018Y-80691020D02*
G01*
X157642289Y-80731043D01*
X157668829Y-80795676D01*
X157669500Y-80808554D01*
X157669500Y-82271015D01*
X157675650Y-82359624D01*
X157675652Y-82359640D01*
X157724465Y-82567176D01*
X157724467Y-82567182D01*
X157724468Y-82567185D01*
X157810591Y-82762237D01*
X157810592Y-82762238D01*
X157931088Y-82938141D01*
X157931093Y-82938147D01*
X158081852Y-83088906D01*
X158081858Y-83088911D01*
X158257763Y-83209409D01*
X158452815Y-83295532D01*
X158452821Y-83295533D01*
X158452823Y-83295534D01*
X158595184Y-83329018D01*
X158655936Y-83363528D01*
X158688386Y-83425405D01*
X158682231Y-83495004D01*
X158654475Y-83537405D01*
X158035243Y-84156637D01*
X158035243Y-84156638D01*
X158035241Y-84156640D01*
X157984156Y-84226953D01*
X157932256Y-84298386D01*
X157876926Y-84341051D01*
X157831938Y-84349500D01*
X157478984Y-84349500D01*
X157390375Y-84355650D01*
X157390359Y-84355652D01*
X157182823Y-84404465D01*
X157182817Y-84404467D01*
X156987761Y-84490592D01*
X156811858Y-84611088D01*
X156811852Y-84611093D01*
X156661093Y-84761852D01*
X156661086Y-84761860D01*
X156599460Y-84851823D01*
X156590088Y-84859472D01*
X156584216Y-84870048D01*
X156563525Y-84881155D01*
X156545334Y-84896005D01*
X156531785Y-84898194D01*
X156522656Y-84903096D01*
X156487435Y-84905363D01*
X156464774Y-84903580D01*
X156399485Y-84878698D01*
X156358013Y-84822467D01*
X156350500Y-84779962D01*
X156350500Y-80838032D01*
X156370185Y-80770993D01*
X156422989Y-80725238D01*
X156485763Y-80716211D01*
X156485884Y-80714686D01*
X156491085Y-80715095D01*
X156491088Y-80715096D01*
X156623283Y-80725500D01*
X157276716Y-80725499D01*
X157408912Y-80715096D01*
X157515201Y-80688313D01*
X157585018Y-80691020D01*
G37*
%TD.AperFunction*%
%TA.AperFunction,Conductor*%
G36*
X163542117Y-81161424D02*
G01*
X163557510Y-81165303D01*
X163557512Y-81165303D01*
X163557515Y-81165304D01*
X163674367Y-81174500D01*
X163739654Y-81199384D01*
X163752318Y-81210437D01*
X164341643Y-81799762D01*
X164352458Y-81807619D01*
X164463199Y-81888076D01*
X164497698Y-81913141D01*
X164584398Y-81957317D01*
X164587228Y-81958952D01*
X164609169Y-81981977D01*
X164632287Y-82003811D01*
X164633098Y-82007088D01*
X164635428Y-82009533D01*
X164641437Y-82040762D01*
X164649082Y-82071632D01*
X164647992Y-82074827D01*
X164648631Y-82078144D01*
X164636801Y-82107666D01*
X164626544Y-82137767D01*
X164623103Y-82141853D01*
X164622644Y-82143001D01*
X164621381Y-82143899D01*
X164612877Y-82154002D01*
X163653700Y-83113181D01*
X163592377Y-83146666D01*
X163566019Y-83149500D01*
X162636916Y-83149500D01*
X162569877Y-83129815D01*
X162524122Y-83077011D01*
X162514178Y-83007853D01*
X162543203Y-82944297D01*
X162548720Y-82938371D01*
X162548906Y-82938146D01*
X162548911Y-82938142D01*
X162669409Y-82762237D01*
X162755532Y-82567185D01*
X162789595Y-82422360D01*
X162804347Y-82359640D01*
X162804347Y-82359636D01*
X162804349Y-82359630D01*
X162810500Y-82271012D01*
X162810500Y-81858980D01*
X162830185Y-81791941D01*
X162846815Y-81771303D01*
X163424136Y-81193981D01*
X163433858Y-81188672D01*
X163440787Y-81180022D01*
X163463983Y-81172223D01*
X163485457Y-81160498D01*
X163498239Y-81160706D01*
X163507014Y-81157757D01*
X163542117Y-81161424D01*
G37*
%TD.AperFunction*%
%TA.AperFunction,Conductor*%
G36*
X146335138Y-79944873D02*
G01*
X146368331Y-79983180D01*
X146370588Y-79987232D01*
X146370590Y-79987235D01*
X146370591Y-79987237D01*
X146426007Y-80068134D01*
X146491088Y-80163141D01*
X146491093Y-80163147D01*
X146515765Y-80187819D01*
X146549250Y-80249142D01*
X146544266Y-80318834D01*
X146502394Y-80374767D01*
X146436930Y-80399184D01*
X146428084Y-80399500D01*
X146091916Y-80399500D01*
X146024877Y-80379815D01*
X145979122Y-80327011D01*
X145969178Y-80257853D01*
X145998203Y-80194297D01*
X146004235Y-80187819D01*
X146028906Y-80163147D01*
X146028911Y-80163142D01*
X146149409Y-79987237D01*
X146149412Y-79987230D01*
X146151669Y-79983180D01*
X146201486Y-79934189D01*
X146269881Y-79919909D01*
X146335138Y-79944873D01*
G37*
%TD.AperFunction*%
%TA.AperFunction,Conductor*%
G36*
X142778892Y-69894405D02*
G01*
X142826451Y-69945590D01*
X142837984Y-69981585D01*
X142845911Y-70031637D01*
X142854676Y-70086972D01*
X142863882Y-70115304D01*
X142914284Y-70270427D01*
X142914287Y-70270434D01*
X142926970Y-70295324D01*
X143001858Y-70442302D01*
X143115241Y-70598360D01*
X143115243Y-70598361D01*
X143115243Y-70598362D01*
X143874983Y-71358101D01*
X143908468Y-71419424D01*
X143903484Y-71489115D01*
X143900201Y-71497063D01*
X143837403Y-71635318D01*
X143837402Y-71635321D01*
X143782405Y-71853579D01*
X143782404Y-71853586D01*
X143772000Y-71985777D01*
X143772000Y-73014208D01*
X143772001Y-73014223D01*
X143782404Y-73146413D01*
X143782405Y-73146420D01*
X143837402Y-73364678D01*
X143837403Y-73364681D01*
X143930491Y-73569622D01*
X143930497Y-73569632D01*
X144060708Y-73757581D01*
X144081253Y-73808797D01*
X144089675Y-73861970D01*
X144149282Y-74045423D01*
X144149284Y-74045428D01*
X144149285Y-74045429D01*
X144166681Y-74079571D01*
X144236856Y-74217300D01*
X144270922Y-74264187D01*
X144350241Y-74373360D01*
X144350243Y-74373362D01*
X144662961Y-74686080D01*
X144696446Y-74747403D01*
X144691462Y-74817095D01*
X144649590Y-74873028D01*
X144605579Y-74894002D01*
X144428608Y-74938595D01*
X144227756Y-75029826D01*
X144046431Y-75155449D01*
X143890449Y-75311431D01*
X143764826Y-75492756D01*
X143673596Y-75693604D01*
X143619696Y-75907515D01*
X143609500Y-76037061D01*
X143609500Y-76269337D01*
X143589815Y-76336376D01*
X143537011Y-76382131D01*
X143467853Y-76392075D01*
X143404297Y-76363050D01*
X143387992Y-76345285D01*
X143387923Y-76345345D01*
X143386254Y-76343391D01*
X143385183Y-76342224D01*
X143384759Y-76341640D01*
X143195436Y-76152317D01*
X143161951Y-76090994D01*
X143159499Y-76074364D01*
X143156564Y-76037067D01*
X143150304Y-75957515D01*
X143096404Y-75743607D01*
X143096403Y-75743605D01*
X143096402Y-75743600D01*
X143094566Y-75738354D01*
X143097181Y-75737438D01*
X143088777Y-75679920D01*
X143109630Y-75626664D01*
X143114507Y-75619626D01*
X143207596Y-75414683D01*
X143262596Y-75196412D01*
X143273000Y-75064217D01*
X143272999Y-74035784D01*
X143262596Y-73903588D01*
X143252109Y-73861970D01*
X143207598Y-73685323D01*
X143207596Y-73685320D01*
X143207596Y-73685317D01*
X143158068Y-73576280D01*
X143148266Y-73507103D01*
X143158067Y-73473721D01*
X143207596Y-73364683D01*
X143216725Y-73328456D01*
X143262594Y-73146420D01*
X143262594Y-73146419D01*
X143262596Y-73146412D01*
X143273000Y-73014217D01*
X143272999Y-71985784D01*
X143262596Y-71853588D01*
X143258596Y-71837715D01*
X143207597Y-71635321D01*
X143207596Y-71635318D01*
X143193439Y-71604151D01*
X143114507Y-71430374D01*
X142986319Y-71245346D01*
X142827154Y-71086181D01*
X142827150Y-71086178D01*
X142827145Y-71086174D01*
X142642132Y-70957997D01*
X142642130Y-70957995D01*
X142642126Y-70957993D01*
X142461510Y-70875954D01*
X142437181Y-70864903D01*
X142437178Y-70864902D01*
X142218920Y-70809905D01*
X142218913Y-70809904D01*
X142086722Y-70799500D01*
X142086717Y-70799500D01*
X141571999Y-70799500D01*
X141504960Y-70779815D01*
X141459205Y-70727011D01*
X141447999Y-70675500D01*
X141447999Y-70249499D01*
X141467684Y-70182460D01*
X141520488Y-70136705D01*
X141571999Y-70125499D01*
X141997924Y-70125499D01*
X141997932Y-70125499D01*
X142127485Y-70115304D01*
X142341393Y-70061404D01*
X142542239Y-69970176D01*
X142542242Y-69970173D01*
X142542244Y-69970173D01*
X142644894Y-69899056D01*
X142711210Y-69877058D01*
X142778892Y-69894405D01*
G37*
%TD.AperFunction*%
%TA.AperFunction,Conductor*%
G36*
X153609185Y-68978050D02*
G01*
X153618147Y-68976762D01*
X153642187Y-68987740D01*
X153667539Y-68995185D01*
X153673466Y-69002025D01*
X153681703Y-69005787D01*
X153695992Y-69028021D01*
X153713294Y-69047989D01*
X153715581Y-69058503D01*
X153719477Y-69064565D01*
X153724500Y-69099500D01*
X153724500Y-69318097D01*
X153761446Y-69551368D01*
X153834433Y-69775996D01*
X153941658Y-69986435D01*
X153950816Y-69999039D01*
X153974298Y-70064844D01*
X153974500Y-70071927D01*
X153974500Y-74543542D01*
X153954815Y-74610581D01*
X153902011Y-74656336D01*
X153832853Y-74666280D01*
X153777615Y-74643860D01*
X153735922Y-74613569D01*
X153735921Y-74613568D01*
X153735919Y-74613567D01*
X153674115Y-74582076D01*
X153543009Y-74515273D01*
X153543006Y-74515272D01*
X153419138Y-74475026D01*
X153361463Y-74435589D01*
X153334264Y-74371230D01*
X153346178Y-74302384D01*
X153359080Y-74281609D01*
X153370565Y-74266640D01*
X153435283Y-74182299D01*
X153545036Y-73992202D01*
X153629037Y-73789405D01*
X153685849Y-73577380D01*
X153714500Y-73359753D01*
X153714500Y-73140247D01*
X153685849Y-72922620D01*
X153629037Y-72710595D01*
X153598646Y-72637223D01*
X153545035Y-72507795D01*
X153545032Y-72507790D01*
X153435287Y-72317708D01*
X153435283Y-72317701D01*
X153396808Y-72267560D01*
X153301658Y-72143557D01*
X153301652Y-72143550D01*
X153146449Y-71988347D01*
X153146442Y-71988341D01*
X152972307Y-71854723D01*
X152972305Y-71854721D01*
X152972299Y-71854717D01*
X152972294Y-71854714D01*
X152972291Y-71854712D01*
X152782209Y-71744967D01*
X152782198Y-71744962D01*
X152579407Y-71660963D01*
X152367378Y-71604150D01*
X152149763Y-71575501D01*
X152149758Y-71575500D01*
X152149753Y-71575500D01*
X151930247Y-71575500D01*
X151930241Y-71575500D01*
X151930236Y-71575501D01*
X151890685Y-71580708D01*
X151821649Y-71569942D01*
X151769394Y-71523562D01*
X151750500Y-71457769D01*
X151750500Y-69962230D01*
X151770185Y-69895191D01*
X151822989Y-69849436D01*
X151890684Y-69839291D01*
X151930247Y-69844500D01*
X151930254Y-69844500D01*
X152149746Y-69844500D01*
X152149753Y-69844500D01*
X152367380Y-69815849D01*
X152579405Y-69759037D01*
X152782202Y-69675036D01*
X152972299Y-69565283D01*
X153146444Y-69431657D01*
X153301657Y-69276444D01*
X153435283Y-69102299D01*
X153472695Y-69037499D01*
X153523262Y-68989284D01*
X153580082Y-68975500D01*
X153600500Y-68975500D01*
X153609185Y-68978050D01*
G37*
%TD.AperFunction*%
%TD*%
%TA.AperFunction,NonConductor*%
G36*
X154679992Y-60504533D02*
G01*
X154696076Y-60504074D01*
X154712826Y-60514174D01*
X154731592Y-60519685D01*
X154742127Y-60531843D01*
X154755909Y-60540154D01*
X154764540Y-60557709D01*
X154777347Y-60572489D01*
X154779636Y-60588413D01*
X154786737Y-60602855D01*
X154784507Y-60622286D01*
X154787291Y-60641647D01*
X154780606Y-60656284D01*
X154778772Y-60672269D01*
X154766392Y-60687408D01*
X154758266Y-60705203D01*
X154744235Y-60714505D01*
X154734544Y-60726358D01*
X154702872Y-60741930D01*
X154649008Y-60759432D01*
X154649005Y-60759433D01*
X154585763Y-60791657D01*
X154518719Y-60825818D01*
X154498765Y-60835985D01*
X154442470Y-60849500D01*
X142606337Y-60849500D01*
X142539298Y-60829815D01*
X142533460Y-60825824D01*
X142486433Y-60791657D01*
X142423188Y-60759432D01*
X142374227Y-60734485D01*
X142323431Y-60686510D01*
X142306636Y-60618689D01*
X142329174Y-60552554D01*
X142383889Y-60509103D01*
X142430522Y-60500000D01*
X154664553Y-60500000D01*
X154679992Y-60504533D01*
G37*
%TD.AperFunction*%
%TA.AperFunction,NonConductor*%
G36*
X137493095Y-65945185D02*
G01*
X137538850Y-65997989D01*
X137548794Y-66067147D01*
X137543987Y-66087818D01*
X137514675Y-66178030D01*
X137484500Y-66368551D01*
X137484500Y-66458241D01*
X137464815Y-66525280D01*
X137412011Y-66571035D01*
X137342853Y-66580979D01*
X137328407Y-66578016D01*
X137127378Y-66524150D01*
X136909763Y-66495501D01*
X136909758Y-66495500D01*
X136909753Y-66495500D01*
X136690247Y-66495500D01*
X136690241Y-66495500D01*
X136690236Y-66495501D01*
X136472621Y-66524150D01*
X136260592Y-66580963D01*
X136057801Y-66664962D01*
X136057797Y-66664964D01*
X135994294Y-66701627D01*
X135867701Y-66774717D01*
X135867694Y-66774721D01*
X135864187Y-66776747D01*
X135863442Y-66775457D01*
X135802698Y-66794480D01*
X135800480Y-66794500D01*
X135425113Y-66794500D01*
X135358074Y-66774815D01*
X135312319Y-66722011D01*
X135302375Y-66652853D01*
X135331400Y-66589297D01*
X135337432Y-66582819D01*
X135958432Y-65961819D01*
X136019755Y-65928334D01*
X136046113Y-65925500D01*
X137426056Y-65925500D01*
X137493095Y-65945185D01*
G37*
%TD.AperFunction*%
%TA.AperFunction,NonConductor*%
G36*
X161318898Y-70648316D02*
G01*
X161515783Y-70679500D01*
X161515788Y-70679500D01*
X161640019Y-70679500D01*
X161707058Y-70699185D01*
X161727700Y-70715819D01*
X162188181Y-71176299D01*
X162221666Y-71237622D01*
X162224500Y-71263980D01*
X162224500Y-71642019D01*
X162204815Y-71709058D01*
X162152011Y-71754813D01*
X162082853Y-71764757D01*
X162019297Y-71735732D01*
X162012819Y-71729700D01*
X161211819Y-70928700D01*
X161197115Y-70901772D01*
X161180523Y-70875954D01*
X161179631Y-70869753D01*
X161178334Y-70867377D01*
X161175500Y-70841019D01*
X161175500Y-70770789D01*
X161195185Y-70703750D01*
X161247989Y-70657995D01*
X161317147Y-70648051D01*
X161318898Y-70648316D01*
G37*
%TD.AperFunction*%
%TA.AperFunction,NonConductor*%
G36*
X158667539Y-68995185D02*
G01*
X158713294Y-69047989D01*
X158724500Y-69099500D01*
X158724500Y-71496448D01*
X158754675Y-71686969D01*
X158754676Y-71686972D01*
X158813439Y-71867826D01*
X158814286Y-71870431D01*
X158830039Y-71901348D01*
X158835342Y-71929587D01*
X158843553Y-71957119D01*
X158841710Y-71963494D01*
X158842935Y-71970017D01*
X158832130Y-71996638D01*
X158824152Y-72024241D01*
X158818479Y-72030272D01*
X158816659Y-72034758D01*
X158801152Y-72051012D01*
X158796951Y-72054682D01*
X158722166Y-72109018D01*
X158634731Y-72196452D01*
X158631598Y-72199191D01*
X158603507Y-72212163D01*
X158576358Y-72226988D01*
X158572069Y-72226681D01*
X158568166Y-72228484D01*
X158537528Y-72224211D01*
X158506666Y-72222004D01*
X158502498Y-72219325D01*
X158498966Y-72218833D01*
X158490752Y-72211776D01*
X158462319Y-72193503D01*
X158377836Y-72109020D01*
X158377834Y-72109018D01*
X158167147Y-71955945D01*
X157935108Y-71837715D01*
X157687430Y-71757239D01*
X157687428Y-71757238D01*
X157687426Y-71757238D01*
X157430217Y-71716500D01*
X157430212Y-71716500D01*
X157169788Y-71716500D01*
X157169783Y-71716500D01*
X156912573Y-71757238D01*
X156664886Y-71837717D01*
X156605794Y-71867826D01*
X156537125Y-71880722D01*
X156472385Y-71854445D01*
X156432128Y-71797339D01*
X156425500Y-71757341D01*
X156425500Y-70140746D01*
X156445185Y-70073707D01*
X156449173Y-70067871D01*
X156508343Y-69986433D01*
X156615568Y-69775992D01*
X156662611Y-69631208D01*
X156702049Y-69573533D01*
X156766407Y-69546335D01*
X156835254Y-69558250D01*
X156849433Y-69566425D01*
X156968182Y-69645771D01*
X156968195Y-69645778D01*
X157095667Y-69698578D01*
X157095672Y-69698580D01*
X157095676Y-69698580D01*
X157095677Y-69698581D01*
X157231004Y-69725500D01*
X157231007Y-69725500D01*
X157368995Y-69725500D01*
X157460041Y-69707389D01*
X157504328Y-69698580D01*
X157631811Y-69645775D01*
X157746542Y-69569114D01*
X157844114Y-69471542D01*
X157920775Y-69356811D01*
X157973580Y-69229328D01*
X157988323Y-69155212D01*
X158000500Y-69093995D01*
X158001097Y-69087933D01*
X158003817Y-69088200D01*
X158020185Y-69032461D01*
X158072989Y-68986706D01*
X158124500Y-68975500D01*
X158600500Y-68975500D01*
X158667539Y-68995185D01*
G37*
%TD.AperFunction*%
%TA.AperFunction,NonConductor*%
G36*
X165761667Y-78128271D02*
G01*
X165771423Y-78126994D01*
X165794641Y-78137953D01*
X165819269Y-78145185D01*
X165825710Y-78152618D01*
X165834607Y-78156818D01*
X165848214Y-78178589D01*
X165865024Y-78197989D01*
X165866423Y-78207724D01*
X165871638Y-78216067D01*
X165871314Y-78241736D01*
X165874968Y-78267147D01*
X165870881Y-78276096D01*
X165870757Y-78285932D01*
X165856608Y-78307349D01*
X165845943Y-78330703D01*
X165836639Y-78337576D01*
X165832245Y-78344229D01*
X165802318Y-78362933D01*
X165668909Y-78421839D01*
X165637761Y-78435592D01*
X165461858Y-78556088D01*
X165461852Y-78556093D01*
X165437181Y-78580765D01*
X165375858Y-78614250D01*
X165306166Y-78609266D01*
X165250233Y-78567394D01*
X165225816Y-78501930D01*
X165225500Y-78493084D01*
X165225500Y-78249500D01*
X165245185Y-78182461D01*
X165297989Y-78136706D01*
X165349500Y-78125500D01*
X165752230Y-78125500D01*
X165761667Y-78128271D01*
G37*
%TD.AperFunction*%
%TA.AperFunction,NonConductor*%
G36*
X168763000Y-75721136D02*
G01*
X168764262Y-75722381D01*
X171127145Y-78085264D01*
X171160630Y-78146587D01*
X171155646Y-78216279D01*
X171113774Y-78272212D01*
X171048310Y-78296629D01*
X171048050Y-78296647D01*
X170990375Y-78300650D01*
X170990359Y-78300652D01*
X170782823Y-78349465D01*
X170782817Y-78349467D01*
X170782815Y-78349468D01*
X170625638Y-78418868D01*
X170587761Y-78435592D01*
X170411858Y-78556088D01*
X170411852Y-78556093D01*
X170261093Y-78706852D01*
X170261086Y-78706860D01*
X170214935Y-78774233D01*
X170160809Y-78818415D01*
X170091388Y-78826321D01*
X170028713Y-78795440D01*
X170024955Y-78791836D01*
X167708580Y-76475461D01*
X167675095Y-76414138D01*
X167680079Y-76344446D01*
X167721951Y-76288513D01*
X167757938Y-76269851D01*
X167935108Y-76212285D01*
X168167147Y-76094055D01*
X168377834Y-75940982D01*
X168561982Y-75756834D01*
X168576262Y-75737178D01*
X168631591Y-75694512D01*
X168701204Y-75688531D01*
X168763000Y-75721136D01*
G37*
%TD.AperFunction*%
%TA.AperFunction,NonConductor*%
G36*
X161898893Y-77586568D02*
G01*
X161921030Y-77604149D01*
X162180361Y-77863480D01*
X162198604Y-77888589D01*
X162199316Y-77888154D01*
X162201855Y-77892298D01*
X162201858Y-77892302D01*
X162315241Y-78048360D01*
X162315243Y-78048362D01*
X162679251Y-78412370D01*
X162712736Y-78473693D01*
X162707752Y-78543385D01*
X162665880Y-78599318D01*
X162647870Y-78610532D01*
X162577169Y-78646556D01*
X162517693Y-78676861D01*
X162361647Y-78790234D01*
X162224680Y-78927201D01*
X162163357Y-78960685D01*
X162093665Y-78955701D01*
X162037732Y-78913829D01*
X162013315Y-78848365D01*
X162012999Y-78839519D01*
X162012999Y-78510791D01*
X162012998Y-78510776D01*
X162012750Y-78507619D01*
X162002596Y-78378588D01*
X161995258Y-78349468D01*
X161947597Y-78160321D01*
X161947596Y-78160318D01*
X161946006Y-78156818D01*
X161854507Y-77955374D01*
X161854505Y-77955371D01*
X161854503Y-77955367D01*
X161734555Y-77782234D01*
X161730069Y-77771052D01*
X161724435Y-77764734D01*
X161714011Y-77731019D01*
X161710876Y-77711224D01*
X161719831Y-77641934D01*
X161764827Y-77588482D01*
X161831579Y-77567843D01*
X161898893Y-77586568D01*
G37*
%TD.AperFunction*%
%TA.AperFunction,NonConductor*%
G36*
X127233598Y-77710811D02*
G01*
X127422582Y-77764886D01*
X127541963Y-77775500D01*
X127896399Y-77775499D01*
X127963437Y-77795183D01*
X128009192Y-77847987D01*
X128019136Y-77917146D01*
X128014329Y-77937817D01*
X127986447Y-78023627D01*
X127986447Y-78023630D01*
X127949500Y-78256902D01*
X127949500Y-78493097D01*
X127986446Y-78726368D01*
X128059434Y-78950999D01*
X128087564Y-79006206D01*
X128100460Y-79074875D01*
X128087564Y-79118794D01*
X128059434Y-79174000D01*
X127986446Y-79398631D01*
X127949500Y-79631902D01*
X127949500Y-79868097D01*
X127970208Y-79998841D01*
X127961254Y-80068134D01*
X127916257Y-80121586D01*
X127849506Y-80142226D01*
X127782192Y-80123501D01*
X127760054Y-80105920D01*
X127671860Y-80017726D01*
X127671851Y-80017718D01*
X127463803Y-79858075D01*
X127236707Y-79726962D01*
X127236700Y-79726959D01*
X127236697Y-79726957D01*
X127224842Y-79722046D01*
X127152046Y-79691892D01*
X127097643Y-79648051D01*
X127075579Y-79581756D01*
X127075500Y-79577332D01*
X127075500Y-77830030D01*
X127095185Y-77762991D01*
X127147989Y-77717236D01*
X127217147Y-77707292D01*
X127233598Y-77710811D01*
G37*
%TD.AperFunction*%
%TA.AperFunction,NonConductor*%
G36*
X138613481Y-75741003D02*
G01*
X138616147Y-75740620D01*
X138645663Y-75754099D01*
X138675705Y-75766325D01*
X138678178Y-75768948D01*
X138679703Y-75769645D01*
X138696873Y-75788780D01*
X138699915Y-75792007D01*
X138700184Y-75792389D01*
X138708681Y-75804654D01*
X138709125Y-75805098D01*
X138712465Y-75809845D01*
X138722117Y-75838255D01*
X138734087Y-75865773D01*
X138733239Y-75870993D01*
X138734941Y-75876001D01*
X138731292Y-75911492D01*
X138719696Y-75957511D01*
X138719696Y-75957513D01*
X138709500Y-76087061D01*
X138709500Y-76712924D01*
X138709501Y-76712939D01*
X138714849Y-76780889D01*
X138719696Y-76842485D01*
X138733294Y-76896449D01*
X138773596Y-77056395D01*
X138864822Y-77257236D01*
X138864823Y-77257238D01*
X138912428Y-77325951D01*
X138934425Y-77392267D01*
X138934500Y-77396567D01*
X138934500Y-77676448D01*
X138964675Y-77866969D01*
X139024284Y-78050427D01*
X139024287Y-78050434D01*
X139045619Y-78092298D01*
X139048707Y-78098359D01*
X139111858Y-78222302D01*
X139225241Y-78378360D01*
X139225243Y-78378362D01*
X139843181Y-78996300D01*
X139857884Y-79023227D01*
X139874477Y-79049046D01*
X139875368Y-79055246D01*
X139876666Y-79057623D01*
X139879500Y-79083981D01*
X139879500Y-79275500D01*
X139859815Y-79342539D01*
X139807011Y-79388294D01*
X139755500Y-79399500D01*
X139703551Y-79399500D01*
X139667697Y-79405178D01*
X139513030Y-79429675D01*
X139329571Y-79489284D01*
X139271557Y-79518843D01*
X139271557Y-79518844D01*
X139214627Y-79547851D01*
X139157697Y-79576858D01*
X139081928Y-79631908D01*
X139001640Y-79690241D01*
X139001638Y-79690243D01*
X139001637Y-79690243D01*
X138512133Y-80179747D01*
X138450810Y-80213232D01*
X138381118Y-80208248D01*
X138325185Y-80166376D01*
X138309890Y-80139517D01*
X138305036Y-80127798D01*
X138305032Y-80127790D01*
X138195287Y-79937708D01*
X138195283Y-79937701D01*
X138061657Y-79763556D01*
X138061652Y-79763550D01*
X137985783Y-79687681D01*
X137952298Y-79626358D01*
X137957282Y-79556666D01*
X137985783Y-79512319D01*
X138061652Y-79436449D01*
X138061657Y-79436444D01*
X138195283Y-79262299D01*
X138305036Y-79072202D01*
X138389037Y-78869405D01*
X138445849Y-78657380D01*
X138474500Y-78439753D01*
X138474500Y-78220247D01*
X138445849Y-78002620D01*
X138389037Y-77790595D01*
X138382855Y-77775671D01*
X138322432Y-77629797D01*
X138305036Y-77587798D01*
X138305034Y-77587795D01*
X138305032Y-77587790D01*
X138195287Y-77397708D01*
X138195283Y-77397701D01*
X138061657Y-77223556D01*
X138061652Y-77223550D01*
X137985783Y-77147681D01*
X137952298Y-77086358D01*
X137957282Y-77016666D01*
X137985783Y-76972319D01*
X138061652Y-76896449D01*
X138061657Y-76896444D01*
X138195283Y-76722299D01*
X138305036Y-76532202D01*
X138389037Y-76329405D01*
X138445849Y-76117380D01*
X138474500Y-75899753D01*
X138474500Y-75863358D01*
X138483637Y-75832240D01*
X138491467Y-75800748D01*
X138493427Y-75798900D01*
X138494185Y-75796319D01*
X138518690Y-75775084D01*
X138542308Y-75752821D01*
X138544955Y-75752326D01*
X138546989Y-75750564D01*
X138579102Y-75745946D01*
X138610989Y-75739989D01*
X138613481Y-75741003D01*
G37*
%TD.AperFunction*%
%TA.AperFunction,NonConductor*%
G36*
X148183165Y-80481689D02*
G01*
X148184192Y-80481555D01*
X148215084Y-80490626D01*
X148252432Y-80507116D01*
X148282812Y-80520531D01*
X148282813Y-80520531D01*
X148282815Y-80520532D01*
X148282819Y-80520533D01*
X148282823Y-80520534D01*
X148490361Y-80569347D01*
X148490370Y-80569349D01*
X148509087Y-80570648D01*
X148574600Y-80594926D01*
X148616590Y-80650770D01*
X148624500Y-80694350D01*
X148624500Y-81342019D01*
X148604815Y-81409058D01*
X148552011Y-81454813D01*
X148482853Y-81464757D01*
X148419297Y-81435732D01*
X148412819Y-81429700D01*
X147763636Y-80780517D01*
X147730151Y-80719194D01*
X147735135Y-80649502D01*
X147777007Y-80593569D01*
X147834957Y-80571954D01*
X147834677Y-80570098D01*
X147839624Y-80569349D01*
X147839630Y-80569349D01*
X147839635Y-80569347D01*
X147839640Y-80569347D01*
X148047176Y-80520534D01*
X148047172Y-80520534D01*
X148047185Y-80520532D01*
X148114914Y-80490626D01*
X148148066Y-80486285D01*
X148181100Y-80481111D01*
X148183165Y-80481689D01*
G37*
%TD.AperFunction*%
%TA.AperFunction,NonConductor*%
G36*
X135155703Y-76205503D02*
G01*
X135193477Y-76264281D01*
X135194275Y-76267123D01*
X135210963Y-76329407D01*
X135294962Y-76532198D01*
X135294967Y-76532209D01*
X135404712Y-76722291D01*
X135404723Y-76722307D01*
X135538341Y-76896442D01*
X135538347Y-76896449D01*
X135614217Y-76972319D01*
X135647702Y-77033642D01*
X135642718Y-77103334D01*
X135614217Y-77147681D01*
X135538347Y-77223550D01*
X135538341Y-77223557D01*
X135404723Y-77397692D01*
X135404712Y-77397708D01*
X135294967Y-77587790D01*
X135294962Y-77587801D01*
X135210963Y-77790592D01*
X135154150Y-78002621D01*
X135125501Y-78220236D01*
X135125500Y-78220253D01*
X135125500Y-78439746D01*
X135125501Y-78439763D01*
X135154150Y-78657378D01*
X135210963Y-78869407D01*
X135294962Y-79072198D01*
X135294967Y-79072209D01*
X135404712Y-79262291D01*
X135404723Y-79262307D01*
X135538341Y-79436442D01*
X135538347Y-79436449D01*
X135614217Y-79512319D01*
X135647702Y-79573642D01*
X135642718Y-79643334D01*
X135614217Y-79687681D01*
X135538347Y-79763550D01*
X135538341Y-79763557D01*
X135404723Y-79937692D01*
X135404712Y-79937708D01*
X135294967Y-80127790D01*
X135294962Y-80127801D01*
X135210963Y-80330592D01*
X135154150Y-80542621D01*
X135125501Y-80760236D01*
X135125500Y-80760253D01*
X135125500Y-80979746D01*
X135125501Y-80979763D01*
X135154150Y-81197378D01*
X135210963Y-81409407D01*
X135294962Y-81612198D01*
X135294967Y-81612209D01*
X135404712Y-81802291D01*
X135404722Y-81802306D01*
X135434213Y-81840740D01*
X135459406Y-81905909D01*
X135445367Y-81974354D01*
X135396552Y-82024343D01*
X135355234Y-82038698D01*
X135167902Y-82068368D01*
X135038339Y-82110467D01*
X134961991Y-82135274D01*
X134961987Y-82135275D01*
X134957358Y-82136780D01*
X134956819Y-82135122D01*
X134894814Y-82141766D01*
X134832346Y-82110467D01*
X134796716Y-82050365D01*
X134797101Y-81987652D01*
X134816270Y-81916116D01*
X134850500Y-81656120D01*
X134850500Y-81393880D01*
X134816270Y-81133884D01*
X134748398Y-80880581D01*
X134730774Y-80838032D01*
X134648046Y-80638309D01*
X134648041Y-80638299D01*
X134516924Y-80411196D01*
X134365019Y-80213232D01*
X134357282Y-80203149D01*
X134357281Y-80203148D01*
X134357274Y-80203140D01*
X134171860Y-80017726D01*
X134171851Y-80017718D01*
X133963803Y-79858075D01*
X133736700Y-79726958D01*
X133736685Y-79726951D01*
X133515326Y-79635262D01*
X133460922Y-79591421D01*
X133438857Y-79525127D01*
X133456136Y-79457428D01*
X133475093Y-79433024D01*
X134659759Y-78248360D01*
X134773142Y-78092302D01*
X134841725Y-77957698D01*
X134860715Y-77920429D01*
X134920324Y-77736972D01*
X134950500Y-77546449D01*
X134950500Y-76299216D01*
X134970185Y-76232177D01*
X135022989Y-76186422D01*
X135092147Y-76176478D01*
X135155703Y-76205503D01*
G37*
%TD.AperFunction*%
%TA.AperFunction,NonConductor*%
G36*
X169068333Y-88767298D02*
G01*
X169112681Y-88795799D01*
X169454701Y-89137819D01*
X169488186Y-89199142D01*
X169483202Y-89268834D01*
X169441330Y-89324767D01*
X169375866Y-89349184D01*
X169367020Y-89349500D01*
X168656199Y-89349500D01*
X168589160Y-89329815D01*
X168543405Y-89277011D01*
X168533461Y-89207853D01*
X168562486Y-89144297D01*
X168583313Y-89125182D01*
X168673360Y-89059759D01*
X168934759Y-88798359D01*
X168937319Y-88795799D01*
X168998642Y-88762314D01*
X169068333Y-88767298D01*
G37*
%TD.AperFunction*%
%TA.AperFunction,NonConductor*%
G36*
X118705203Y-77748997D02*
G01*
X118711681Y-77755029D01*
X118722477Y-77765825D01*
X118985961Y-77975946D01*
X119271314Y-78155246D01*
X119574949Y-78301469D01*
X119712122Y-78349468D01*
X119802572Y-78381118D01*
X119859348Y-78421839D01*
X119885095Y-78486792D01*
X119879549Y-78536475D01*
X119873175Y-78556093D01*
X119855899Y-78609266D01*
X119854675Y-78613032D01*
X119826609Y-78790234D01*
X119824500Y-78803551D01*
X119824500Y-89296449D01*
X119828985Y-89324767D01*
X119854675Y-89486969D01*
X119854676Y-89486972D01*
X119871651Y-89539217D01*
X119872048Y-89540437D01*
X119874043Y-89610278D01*
X119837962Y-89670111D01*
X119775261Y-89700939D01*
X119705847Y-89692974D01*
X119666436Y-89666436D01*
X118536319Y-88536319D01*
X118502834Y-88474996D01*
X118500000Y-88448638D01*
X118500000Y-77842710D01*
X118519685Y-77775671D01*
X118572489Y-77729916D01*
X118641647Y-77719972D01*
X118705203Y-77748997D01*
G37*
%TD.AperFunction*%
%TA.AperFunction,NonConductor*%
G36*
X150603873Y-87337173D02*
G01*
X150651436Y-87388355D01*
X150664500Y-87443756D01*
X150664500Y-89763886D01*
X150644815Y-89830925D01*
X150628181Y-89851567D01*
X150162721Y-90317026D01*
X150113360Y-90347275D01*
X149999007Y-90384432D01*
X149880795Y-90444664D01*
X149812125Y-90457560D01*
X149747385Y-90431283D01*
X149707128Y-90374177D01*
X149700500Y-90334179D01*
X149700500Y-87624499D01*
X149720185Y-87557460D01*
X149772989Y-87511705D01*
X149824500Y-87500499D01*
X149914208Y-87500499D01*
X149914216Y-87500499D01*
X150046412Y-87490096D01*
X150264683Y-87435096D01*
X150469626Y-87342007D01*
X150469876Y-87341833D01*
X150470007Y-87341789D01*
X150474474Y-87339256D01*
X150474976Y-87340141D01*
X150536190Y-87319831D01*
X150603873Y-87337173D01*
G37*
%TD.AperFunction*%
%TA.AperFunction,NonConductor*%
G36*
X141306805Y-93517291D02*
G01*
X141355505Y-93567391D01*
X141369388Y-93635868D01*
X141353235Y-93687260D01*
X141351778Y-93689782D01*
X141351773Y-93689794D01*
X141258947Y-93913895D01*
X141196161Y-94148214D01*
X141164500Y-94388711D01*
X141164500Y-94631288D01*
X141196161Y-94871785D01*
X141258947Y-95106104D01*
X141351773Y-95330205D01*
X141351775Y-95330210D01*
X141404977Y-95422360D01*
X141410110Y-95443520D01*
X141419743Y-95463044D01*
X141418183Y-95476800D01*
X141421449Y-95490260D01*
X141414326Y-95510838D01*
X141411875Y-95532470D01*
X141400004Y-95552217D01*
X141398596Y-95556287D01*
X141393696Y-95562713D01*
X141339760Y-95628861D01*
X141282141Y-95668378D01*
X141243659Y-95674500D01*
X140391746Y-95674500D01*
X140391745Y-95674500D01*
X140388847Y-95674728D01*
X140387762Y-95674500D01*
X140386874Y-95674500D01*
X140386874Y-95674313D01*
X140320471Y-95660358D01*
X140270718Y-95611303D01*
X140265698Y-95601206D01*
X140186909Y-95422763D01*
X140066411Y-95246858D01*
X140066406Y-95246852D01*
X139915647Y-95096093D01*
X139915641Y-95096088D01*
X139739738Y-94975592D01*
X139739739Y-94975592D01*
X139739737Y-94975591D01*
X139544685Y-94889468D01*
X139544683Y-94889467D01*
X139544682Y-94889467D01*
X139544676Y-94889465D01*
X139337140Y-94840652D01*
X139337124Y-94840650D01*
X139248516Y-94834500D01*
X139248512Y-94834500D01*
X137931488Y-94834500D01*
X137931484Y-94834500D01*
X137842875Y-94840650D01*
X137842860Y-94840652D01*
X137635324Y-94889465D01*
X137635309Y-94889470D01*
X137613873Y-94898935D01*
X137563789Y-94909500D01*
X137150469Y-94909500D01*
X137083430Y-94889815D01*
X137037675Y-94837011D01*
X137027996Y-94804898D01*
X137027324Y-94800662D01*
X137025324Y-94788029D01*
X137025323Y-94788025D01*
X137025323Y-94788024D01*
X136965716Y-94604575D01*
X136965716Y-94604574D01*
X136912296Y-94499730D01*
X136878142Y-94432698D01*
X136764759Y-94276640D01*
X136751819Y-94263700D01*
X136737115Y-94236772D01*
X136720523Y-94210954D01*
X136719631Y-94204753D01*
X136718334Y-94202377D01*
X136715500Y-94176019D01*
X136715500Y-94070571D01*
X136735185Y-94003532D01*
X136761137Y-93974470D01*
X136851109Y-93901109D01*
X136937341Y-93795354D01*
X136957085Y-93771140D01*
X137014706Y-93731622D01*
X137053187Y-93725500D01*
X140558253Y-93725500D01*
X140558254Y-93725500D01*
X140772097Y-93691630D01*
X140978009Y-93624726D01*
X141170919Y-93526433D01*
X141172946Y-93524959D01*
X141173851Y-93524636D01*
X141175075Y-93523887D01*
X141175232Y-93524143D01*
X141238749Y-93501473D01*
X141306805Y-93517291D01*
G37*
%TD.AperFunction*%
%TA.AperFunction,NonConductor*%
G36*
X171063522Y-100567153D02*
G01*
X171067147Y-100566632D01*
X171095837Y-100579734D01*
X171125220Y-100591174D01*
X171128678Y-100594732D01*
X171130703Y-100595657D01*
X171149816Y-100616482D01*
X171230483Y-100727510D01*
X171230485Y-100727512D01*
X171343810Y-100840837D01*
X171377295Y-100902160D01*
X171372311Y-100971852D01*
X171330439Y-101027785D01*
X171283722Y-101049409D01*
X171118048Y-101087223D01*
X171118043Y-101087224D01*
X171090451Y-101096879D01*
X171020672Y-101100439D01*
X170960046Y-101065708D01*
X170927821Y-101003714D01*
X170925500Y-100979836D01*
X170925500Y-100689370D01*
X170934381Y-100659122D01*
X170941527Y-100628395D01*
X170944154Y-100625841D01*
X170945185Y-100622331D01*
X170969009Y-100601686D01*
X170991633Y-100579701D01*
X170995221Y-100578973D01*
X170997989Y-100576576D01*
X171029206Y-100572087D01*
X171060111Y-100565825D01*
X171063522Y-100567153D01*
G37*
%TD.AperFunction*%
%TA.AperFunction,NonConductor*%
G36*
X167584996Y-97677299D02*
G01*
X167620648Y-97737388D01*
X167624500Y-97768054D01*
X167624500Y-101416019D01*
X167604815Y-101483058D01*
X167588181Y-101503700D01*
X166937181Y-102154700D01*
X166875858Y-102188185D01*
X166806166Y-102183201D01*
X166750233Y-102141329D01*
X166725816Y-102075865D01*
X166725500Y-102067019D01*
X166725500Y-97924500D01*
X166745185Y-97857461D01*
X166797989Y-97811706D01*
X166849500Y-97800500D01*
X166858004Y-97800500D01*
X166858011Y-97800500D01*
X167092014Y-97769693D01*
X167319993Y-97708606D01*
X167453047Y-97653492D01*
X167522517Y-97646024D01*
X167584996Y-97677299D01*
G37*
%TD.AperFunction*%
%TA.AperFunction,NonConductor*%
G36*
X169080535Y-105029405D02*
G01*
X169095195Y-105030755D01*
X169111679Y-105043628D01*
X169130703Y-105052316D01*
X169139627Y-105065454D01*
X169150262Y-105073759D01*
X169166539Y-105105069D01*
X169170786Y-105117205D01*
X169173534Y-105125059D01*
X169319752Y-105428683D01*
X169319754Y-105428686D01*
X169499054Y-105714039D01*
X169709175Y-105977523D01*
X169947477Y-106215825D01*
X170210961Y-106425946D01*
X170496314Y-106605246D01*
X170799949Y-106751469D01*
X171038848Y-106835063D01*
X171118034Y-106862772D01*
X171118046Y-106862776D01*
X171305522Y-106905565D01*
X171366500Y-106939673D01*
X171399358Y-107001334D01*
X171393663Y-107070972D01*
X171365610Y-107114137D01*
X170694114Y-107785633D01*
X170686168Y-107789971D01*
X170680743Y-107797219D01*
X170655983Y-107806453D01*
X170632791Y-107819118D01*
X170623761Y-107818472D01*
X170615279Y-107821636D01*
X170589458Y-107816019D01*
X170563099Y-107814134D01*
X170554045Y-107808315D01*
X170547006Y-107806784D01*
X170518752Y-107785633D01*
X170507436Y-107774317D01*
X170473951Y-107712994D01*
X170472649Y-107706068D01*
X170463553Y-107648632D01*
X170390568Y-107424008D01*
X170390566Y-107424005D01*
X170390566Y-107424003D01*
X170286872Y-107220493D01*
X170283343Y-107213567D01*
X170144517Y-107022490D01*
X169977510Y-106855483D01*
X169786433Y-106716657D01*
X169575996Y-106609433D01*
X169351368Y-106536446D01*
X169118097Y-106499500D01*
X169118092Y-106499500D01*
X169049500Y-106499500D01*
X168982461Y-106479815D01*
X168936706Y-106427011D01*
X168925500Y-106375500D01*
X168925500Y-105146029D01*
X168929647Y-105131905D01*
X168928897Y-105117205D01*
X168939292Y-105099056D01*
X168945185Y-105078990D01*
X168956308Y-105069351D01*
X168963626Y-105056577D01*
X168982185Y-105046928D01*
X168997989Y-105033235D01*
X169012556Y-105031140D01*
X169025619Y-105024350D01*
X169046447Y-105026267D01*
X169067147Y-105023291D01*
X169080535Y-105029405D01*
G37*
%TD.AperFunction*%
%TA.AperFunction,NonConductor*%
G36*
X165368834Y-110530707D02*
G01*
X165424767Y-110572579D01*
X165449184Y-110638043D01*
X165449500Y-110646889D01*
X165449500Y-111216019D01*
X165429815Y-111283058D01*
X165413181Y-111303700D01*
X163703700Y-113013181D01*
X163676772Y-113027884D01*
X163650954Y-113044477D01*
X163644753Y-113045368D01*
X163642377Y-113046666D01*
X163616019Y-113049500D01*
X163457981Y-113049500D01*
X163390942Y-113029815D01*
X163345187Y-112977011D01*
X163335243Y-112907853D01*
X163364268Y-112844297D01*
X163370300Y-112837819D01*
X163679661Y-112528458D01*
X163997259Y-112210860D01*
X164110641Y-112054802D01*
X164128155Y-112020428D01*
X164198215Y-111882929D01*
X164257824Y-111699472D01*
X164288000Y-111508949D01*
X164288000Y-111117732D01*
X164307685Y-111050693D01*
X164360489Y-111004938D01*
X164392603Y-110995259D01*
X164513868Y-110976053D01*
X164738492Y-110903068D01*
X164948933Y-110795843D01*
X165140010Y-110657017D01*
X165237819Y-110559208D01*
X165299142Y-110525723D01*
X165368834Y-110530707D01*
G37*
%TD.AperFunction*%
%TA.AperFunction,NonConductor*%
G36*
X144043834Y-106552496D02*
G01*
X144099767Y-106594368D01*
X144124184Y-106659832D01*
X144124500Y-106668678D01*
X144124500Y-108608252D01*
X144150594Y-108773000D01*
X144150594Y-108773001D01*
X144158369Y-108822095D01*
X144158370Y-108822100D01*
X144225272Y-109028006D01*
X144225273Y-109028009D01*
X144250164Y-109076859D01*
X144319542Y-109213020D01*
X144323569Y-109220922D01*
X144437329Y-109377500D01*
X144450827Y-109396078D01*
X144713328Y-109658578D01*
X144866422Y-109811672D01*
X145041581Y-109938933D01*
X145136197Y-109987142D01*
X145234490Y-110037226D01*
X145234493Y-110037227D01*
X145337447Y-110070678D01*
X145440403Y-110104130D01*
X145654246Y-110138000D01*
X146015472Y-110138000D01*
X146082511Y-110157685D01*
X146128266Y-110210489D01*
X146139090Y-110271729D01*
X146137000Y-110298277D01*
X146137000Y-111326708D01*
X146137001Y-111326723D01*
X146147404Y-111458913D01*
X146147405Y-111458920D01*
X146202402Y-111677178D01*
X146202403Y-111677181D01*
X146295491Y-111882122D01*
X146295497Y-111882132D01*
X146423674Y-112067145D01*
X146423678Y-112067150D01*
X146423681Y-112067154D01*
X146541283Y-112184756D01*
X146582848Y-112226321D01*
X146653572Y-112275319D01*
X146683274Y-112304362D01*
X146715238Y-112348357D01*
X146715243Y-112348363D01*
X147204700Y-112837819D01*
X147238185Y-112899142D01*
X147233201Y-112968833D01*
X147191330Y-113024767D01*
X147125865Y-113049184D01*
X147117019Y-113049500D01*
X144457500Y-113049500D01*
X144390461Y-113029815D01*
X144344706Y-112977011D01*
X144333500Y-112925500D01*
X144333500Y-112844782D01*
X144296876Y-112613552D01*
X144292761Y-112587570D01*
X144212285Y-112339892D01*
X144094055Y-112107853D01*
X143940982Y-111897166D01*
X143856497Y-111812681D01*
X143823012Y-111751358D01*
X143827996Y-111681666D01*
X143856497Y-111637319D01*
X143940982Y-111552834D01*
X144094055Y-111342147D01*
X144212285Y-111110108D01*
X144292761Y-110862430D01*
X144311689Y-110742923D01*
X144333500Y-110605217D01*
X144333500Y-110344782D01*
X144298127Y-110121449D01*
X144292761Y-110087570D01*
X144212285Y-109839892D01*
X144094055Y-109607853D01*
X143940982Y-109397166D01*
X143756834Y-109213018D01*
X143546147Y-109059945D01*
X143314108Y-108941715D01*
X143066430Y-108861239D01*
X143066428Y-108861238D01*
X143066426Y-108861238D01*
X142809217Y-108820500D01*
X142809212Y-108820500D01*
X142429260Y-108820500D01*
X142362221Y-108800815D01*
X142316466Y-108748011D01*
X142306522Y-108678853D01*
X142335547Y-108615297D01*
X142360369Y-108593398D01*
X142401055Y-108566211D01*
X142471542Y-108519114D01*
X142569114Y-108421542D01*
X142645775Y-108306811D01*
X142698580Y-108179328D01*
X142712868Y-108107500D01*
X142725500Y-108043995D01*
X142725500Y-107906004D01*
X142698581Y-107770677D01*
X142698580Y-107770676D01*
X142698580Y-107770672D01*
X142674689Y-107712994D01*
X142645778Y-107643195D01*
X142645771Y-107643182D01*
X142569114Y-107528458D01*
X142569111Y-107528454D01*
X142471545Y-107430888D01*
X142471541Y-107430885D01*
X142360369Y-107356602D01*
X142315564Y-107302990D01*
X142306857Y-107233665D01*
X142337011Y-107170637D01*
X142396455Y-107133918D01*
X142429260Y-107129500D01*
X142809217Y-107129500D01*
X142952110Y-107106867D01*
X143066430Y-107088761D01*
X143314108Y-107008285D01*
X143546147Y-106890055D01*
X143756834Y-106736982D01*
X143912819Y-106580997D01*
X143974142Y-106547512D01*
X144043834Y-106552496D01*
G37*
%TD.AperFunction*%
%TA.AperFunction,NonConductor*%
G36*
X124409557Y-94077950D02*
G01*
X124463028Y-94095324D01*
X124653551Y-94125500D01*
X125466019Y-94125500D01*
X125533058Y-94145185D01*
X125553700Y-94161819D01*
X130688181Y-99296300D01*
X130721666Y-99357623D01*
X130724500Y-99383981D01*
X130724500Y-110121449D01*
X130730239Y-110157685D01*
X130754675Y-110311969D01*
X130754676Y-110311972D01*
X130814285Y-110495429D01*
X130841836Y-110549500D01*
X130901858Y-110667302D01*
X131015241Y-110823360D01*
X132376641Y-112184759D01*
X132532698Y-112298142D01*
X132614631Y-112339889D01*
X132704571Y-112385716D01*
X132704577Y-112385718D01*
X132801784Y-112417302D01*
X132801785Y-112417302D01*
X132888028Y-112445324D01*
X133078551Y-112475500D01*
X133271450Y-112475500D01*
X133788105Y-112475500D01*
X133855144Y-112495185D01*
X133900899Y-112547989D01*
X133910843Y-112617147D01*
X133902666Y-112646953D01*
X133851420Y-112770671D01*
X133851418Y-112770677D01*
X133824500Y-112906004D01*
X133824500Y-112906007D01*
X133824500Y-113043993D01*
X133824500Y-113043995D01*
X133824499Y-113043995D01*
X133851418Y-113179322D01*
X133851421Y-113179332D01*
X133904221Y-113306804D01*
X133904228Y-113306817D01*
X133980885Y-113421541D01*
X133980888Y-113421545D01*
X134078454Y-113519111D01*
X134078458Y-113519114D01*
X134193182Y-113595771D01*
X134193195Y-113595778D01*
X134320667Y-113648578D01*
X134320672Y-113648580D01*
X134320676Y-113648580D01*
X134320677Y-113648581D01*
X134456004Y-113675500D01*
X134456007Y-113675500D01*
X134593995Y-113675500D01*
X134685041Y-113657389D01*
X134729328Y-113648580D01*
X134856811Y-113595775D01*
X134971542Y-113519114D01*
X135069114Y-113421542D01*
X135145775Y-113306811D01*
X135198580Y-113179328D01*
X135224405Y-113049500D01*
X135225500Y-113043995D01*
X135225500Y-112906004D01*
X135198581Y-112770677D01*
X135198580Y-112770676D01*
X135198580Y-112770672D01*
X135147333Y-112646952D01*
X135139865Y-112577483D01*
X135171140Y-112515004D01*
X135231229Y-112479352D01*
X135261895Y-112475500D01*
X136288105Y-112475500D01*
X136355144Y-112495185D01*
X136400899Y-112547989D01*
X136410843Y-112617147D01*
X136402666Y-112646953D01*
X136351420Y-112770671D01*
X136351418Y-112770677D01*
X136324500Y-112906004D01*
X136324500Y-112906007D01*
X136324500Y-113043993D01*
X136324500Y-113043995D01*
X136324499Y-113043995D01*
X136351418Y-113179322D01*
X136351421Y-113179332D01*
X136404221Y-113306804D01*
X136404228Y-113306817D01*
X136480885Y-113421541D01*
X136480888Y-113421545D01*
X136578454Y-113519111D01*
X136578458Y-113519114D01*
X136693182Y-113595771D01*
X136693195Y-113595778D01*
X136820667Y-113648578D01*
X136820672Y-113648580D01*
X136820676Y-113648580D01*
X136820677Y-113648581D01*
X136956004Y-113675500D01*
X137100085Y-113675500D01*
X137100085Y-113678289D01*
X137156959Y-113689058D01*
X137207683Y-113737108D01*
X137224500Y-113799459D01*
X137224500Y-114171448D01*
X137254675Y-114361969D01*
X137314285Y-114545430D01*
X137314286Y-114545431D01*
X137322714Y-114561971D01*
X137322713Y-114561971D01*
X137322715Y-114561973D01*
X137401858Y-114717302D01*
X137515241Y-114873360D01*
X138751640Y-116109759D01*
X138907698Y-116223142D01*
X139021557Y-116281155D01*
X139021558Y-116281156D01*
X139050564Y-116295935D01*
X139079571Y-116310715D01*
X139263028Y-116370324D01*
X139330876Y-116381070D01*
X139394010Y-116410999D01*
X139430942Y-116470310D01*
X139429944Y-116540173D01*
X139391335Y-116598406D01*
X139327371Y-116626520D01*
X139309780Y-116627531D01*
X130122302Y-116501675D01*
X130055538Y-116481074D01*
X130010511Y-116427649D01*
X130000000Y-116377687D01*
X130000000Y-100000000D01*
X124283563Y-94283563D01*
X124250078Y-94222240D01*
X124255062Y-94152548D01*
X124296934Y-94096615D01*
X124362398Y-94072198D01*
X124409557Y-94077950D01*
G37*
%TD.AperFunction*%
M02*
