%TF.GenerationSoftware,KiCad,Pcbnew,9.0.6*%
%TF.CreationDate,2026-06-07T21:25:06-03:00*%
%TF.ProjectId,PCB PFC,50434220-5046-4432-9e6b-696361645f70,rev?*%
%TF.SameCoordinates,Original*%
%TF.FileFunction,Legend,Bot*%
%TF.FilePolarity,Positive*%
%FSLAX46Y46*%
G04 Gerber Fmt 4.6, Leading zero omitted, Abs format (unit mm)*
G04 Created by KiCad (PCBNEW 9.0.6) date 2026-06-07 21:25:06*
%MOMM*%
%LPD*%
G01*
G04 APERTURE LIST*
%ADD10C,0.150000*%
%ADD11C,0.120000*%
G04 APERTURE END LIST*
D10*
X141014166Y-71304819D02*
X141347499Y-70828628D01*
X141585594Y-71304819D02*
X141585594Y-70304819D01*
X141585594Y-70304819D02*
X141204642Y-70304819D01*
X141204642Y-70304819D02*
X141109404Y-70352438D01*
X141109404Y-70352438D02*
X141061785Y-70400057D01*
X141061785Y-70400057D02*
X141014166Y-70495295D01*
X141014166Y-70495295D02*
X141014166Y-70638152D01*
X141014166Y-70638152D02*
X141061785Y-70733390D01*
X141061785Y-70733390D02*
X141109404Y-70781009D01*
X141109404Y-70781009D02*
X141204642Y-70828628D01*
X141204642Y-70828628D02*
X141585594Y-70828628D01*
X140157023Y-70638152D02*
X140157023Y-71304819D01*
X140395118Y-70257200D02*
X140633213Y-70971485D01*
X140633213Y-70971485D02*
X140014166Y-70971485D01*
X149883333Y-110867319D02*
X150216666Y-110391128D01*
X150454761Y-110867319D02*
X150454761Y-109867319D01*
X150454761Y-109867319D02*
X150073809Y-109867319D01*
X150073809Y-109867319D02*
X149978571Y-109914938D01*
X149978571Y-109914938D02*
X149930952Y-109962557D01*
X149930952Y-109962557D02*
X149883333Y-110057795D01*
X149883333Y-110057795D02*
X149883333Y-110200652D01*
X149883333Y-110200652D02*
X149930952Y-110295890D01*
X149930952Y-110295890D02*
X149978571Y-110343509D01*
X149978571Y-110343509D02*
X150073809Y-110391128D01*
X150073809Y-110391128D02*
X150454761Y-110391128D01*
X149454761Y-110867319D02*
X149454761Y-110200652D01*
X149454761Y-109867319D02*
X149502380Y-109914938D01*
X149502380Y-109914938D02*
X149454761Y-109962557D01*
X149454761Y-109962557D02*
X149407142Y-109914938D01*
X149407142Y-109914938D02*
X149454761Y-109867319D01*
X149454761Y-109867319D02*
X149454761Y-109962557D01*
X149026190Y-110581604D02*
X148550000Y-110581604D01*
X149121428Y-110867319D02*
X148788095Y-109867319D01*
X148788095Y-109867319D02*
X148454762Y-110867319D01*
X148121428Y-110867319D02*
X148121428Y-109867319D01*
X148121428Y-109867319D02*
X147883333Y-109867319D01*
X147883333Y-109867319D02*
X147740476Y-109914938D01*
X147740476Y-109914938D02*
X147645238Y-110010176D01*
X147645238Y-110010176D02*
X147597619Y-110105414D01*
X147597619Y-110105414D02*
X147550000Y-110295890D01*
X147550000Y-110295890D02*
X147550000Y-110438747D01*
X147550000Y-110438747D02*
X147597619Y-110629223D01*
X147597619Y-110629223D02*
X147645238Y-110724461D01*
X147645238Y-110724461D02*
X147740476Y-110819700D01*
X147740476Y-110819700D02*
X147883333Y-110867319D01*
X147883333Y-110867319D02*
X148121428Y-110867319D01*
X146597619Y-110867319D02*
X147169047Y-110867319D01*
X146883333Y-110867319D02*
X146883333Y-109867319D01*
X146883333Y-109867319D02*
X146978571Y-110010176D01*
X146978571Y-110010176D02*
X147073809Y-110105414D01*
X147073809Y-110105414D02*
X147169047Y-110153033D01*
X155029580Y-84574999D02*
X155077200Y-84527380D01*
X155077200Y-84527380D02*
X155124819Y-84384523D01*
X155124819Y-84384523D02*
X155124819Y-84289285D01*
X155124819Y-84289285D02*
X155077200Y-84146428D01*
X155077200Y-84146428D02*
X154981961Y-84051190D01*
X154981961Y-84051190D02*
X154886723Y-84003571D01*
X154886723Y-84003571D02*
X154696247Y-83955952D01*
X154696247Y-83955952D02*
X154553390Y-83955952D01*
X154553390Y-83955952D02*
X154362914Y-84003571D01*
X154362914Y-84003571D02*
X154267676Y-84051190D01*
X154267676Y-84051190D02*
X154172438Y-84146428D01*
X154172438Y-84146428D02*
X154124819Y-84289285D01*
X154124819Y-84289285D02*
X154124819Y-84384523D01*
X154124819Y-84384523D02*
X154172438Y-84527380D01*
X154172438Y-84527380D02*
X154220057Y-84574999D01*
X155124819Y-85432142D02*
X154124819Y-85432142D01*
X155077200Y-85432142D02*
X155124819Y-85336904D01*
X155124819Y-85336904D02*
X155124819Y-85146428D01*
X155124819Y-85146428D02*
X155077200Y-85051190D01*
X155077200Y-85051190D02*
X155029580Y-85003571D01*
X155029580Y-85003571D02*
X154934342Y-84955952D01*
X154934342Y-84955952D02*
X154648628Y-84955952D01*
X154648628Y-84955952D02*
X154553390Y-85003571D01*
X154553390Y-85003571D02*
X154505771Y-85051190D01*
X154505771Y-85051190D02*
X154458152Y-85146428D01*
X154458152Y-85146428D02*
X154458152Y-85336904D01*
X154458152Y-85336904D02*
X154505771Y-85432142D01*
X155220057Y-85670238D02*
X155220057Y-86432142D01*
X154458152Y-87098809D02*
X155124819Y-87098809D01*
X154077200Y-86860714D02*
X154791485Y-86622619D01*
X154791485Y-86622619D02*
X154791485Y-87241666D01*
X170261904Y-77554819D02*
X170261904Y-78364342D01*
X170261904Y-78364342D02*
X170214285Y-78459580D01*
X170214285Y-78459580D02*
X170166666Y-78507200D01*
X170166666Y-78507200D02*
X170071428Y-78554819D01*
X170071428Y-78554819D02*
X169880952Y-78554819D01*
X169880952Y-78554819D02*
X169785714Y-78507200D01*
X169785714Y-78507200D02*
X169738095Y-78459580D01*
X169738095Y-78459580D02*
X169690476Y-78364342D01*
X169690476Y-78364342D02*
X169690476Y-77554819D01*
X168690476Y-78554819D02*
X169261904Y-78554819D01*
X168976190Y-78554819D02*
X168976190Y-77554819D01*
X168976190Y-77554819D02*
X169071428Y-77697676D01*
X169071428Y-77697676D02*
X169166666Y-77792914D01*
X169166666Y-77792914D02*
X169261904Y-77840533D01*
X145446428Y-89239580D02*
X145494047Y-89287200D01*
X145494047Y-89287200D02*
X145636904Y-89334819D01*
X145636904Y-89334819D02*
X145732142Y-89334819D01*
X145732142Y-89334819D02*
X145874999Y-89287200D01*
X145874999Y-89287200D02*
X145970237Y-89191961D01*
X145970237Y-89191961D02*
X146017856Y-89096723D01*
X146017856Y-89096723D02*
X146065475Y-88906247D01*
X146065475Y-88906247D02*
X146065475Y-88763390D01*
X146065475Y-88763390D02*
X146017856Y-88572914D01*
X146017856Y-88572914D02*
X145970237Y-88477676D01*
X145970237Y-88477676D02*
X145874999Y-88382438D01*
X145874999Y-88382438D02*
X145732142Y-88334819D01*
X145732142Y-88334819D02*
X145636904Y-88334819D01*
X145636904Y-88334819D02*
X145494047Y-88382438D01*
X145494047Y-88382438D02*
X145446428Y-88430057D01*
X144541666Y-89334819D02*
X145017856Y-89334819D01*
X145017856Y-89334819D02*
X145017856Y-88334819D01*
X144208332Y-89334819D02*
X144208332Y-88334819D01*
X144208332Y-88334819D02*
X143827380Y-88334819D01*
X143827380Y-88334819D02*
X143732142Y-88382438D01*
X143732142Y-88382438D02*
X143684523Y-88430057D01*
X143684523Y-88430057D02*
X143636904Y-88525295D01*
X143636904Y-88525295D02*
X143636904Y-88668152D01*
X143636904Y-88668152D02*
X143684523Y-88763390D01*
X143684523Y-88763390D02*
X143732142Y-88811009D01*
X143732142Y-88811009D02*
X143827380Y-88858628D01*
X143827380Y-88858628D02*
X144208332Y-88858628D01*
X143255951Y-88430057D02*
X143208332Y-88382438D01*
X143208332Y-88382438D02*
X143113094Y-88334819D01*
X143113094Y-88334819D02*
X142874999Y-88334819D01*
X142874999Y-88334819D02*
X142779761Y-88382438D01*
X142779761Y-88382438D02*
X142732142Y-88430057D01*
X142732142Y-88430057D02*
X142684523Y-88525295D01*
X142684523Y-88525295D02*
X142684523Y-88620533D01*
X142684523Y-88620533D02*
X142732142Y-88763390D01*
X142732142Y-88763390D02*
X143303570Y-89334819D01*
X143303570Y-89334819D02*
X142684523Y-89334819D01*
X145385000Y-87639580D02*
X145432619Y-87687200D01*
X145432619Y-87687200D02*
X145575476Y-87734819D01*
X145575476Y-87734819D02*
X145670714Y-87734819D01*
X145670714Y-87734819D02*
X145813571Y-87687200D01*
X145813571Y-87687200D02*
X145908809Y-87591961D01*
X145908809Y-87591961D02*
X145956428Y-87496723D01*
X145956428Y-87496723D02*
X146004047Y-87306247D01*
X146004047Y-87306247D02*
X146004047Y-87163390D01*
X146004047Y-87163390D02*
X145956428Y-86972914D01*
X145956428Y-86972914D02*
X145908809Y-86877676D01*
X145908809Y-86877676D02*
X145813571Y-86782438D01*
X145813571Y-86782438D02*
X145670714Y-86734819D01*
X145670714Y-86734819D02*
X145575476Y-86734819D01*
X145575476Y-86734819D02*
X145432619Y-86782438D01*
X145432619Y-86782438D02*
X145385000Y-86830057D01*
X144527857Y-87734819D02*
X144527857Y-86734819D01*
X144527857Y-87687200D02*
X144623095Y-87734819D01*
X144623095Y-87734819D02*
X144813571Y-87734819D01*
X144813571Y-87734819D02*
X144908809Y-87687200D01*
X144908809Y-87687200D02*
X144956428Y-87639580D01*
X144956428Y-87639580D02*
X145004047Y-87544342D01*
X145004047Y-87544342D02*
X145004047Y-87258628D01*
X145004047Y-87258628D02*
X144956428Y-87163390D01*
X144956428Y-87163390D02*
X144908809Y-87115771D01*
X144908809Y-87115771D02*
X144813571Y-87068152D01*
X144813571Y-87068152D02*
X144623095Y-87068152D01*
X144623095Y-87068152D02*
X144527857Y-87115771D01*
X144289762Y-87830057D02*
X143527857Y-87830057D01*
X143337380Y-86830057D02*
X143289761Y-86782438D01*
X143289761Y-86782438D02*
X143194523Y-86734819D01*
X143194523Y-86734819D02*
X142956428Y-86734819D01*
X142956428Y-86734819D02*
X142861190Y-86782438D01*
X142861190Y-86782438D02*
X142813571Y-86830057D01*
X142813571Y-86830057D02*
X142765952Y-86925295D01*
X142765952Y-86925295D02*
X142765952Y-87020533D01*
X142765952Y-87020533D02*
X142813571Y-87163390D01*
X142813571Y-87163390D02*
X143384999Y-87734819D01*
X143384999Y-87734819D02*
X142765952Y-87734819D01*
X162846428Y-105367319D02*
X163179761Y-104891128D01*
X163417856Y-105367319D02*
X163417856Y-104367319D01*
X163417856Y-104367319D02*
X163036904Y-104367319D01*
X163036904Y-104367319D02*
X162941666Y-104414938D01*
X162941666Y-104414938D02*
X162894047Y-104462557D01*
X162894047Y-104462557D02*
X162846428Y-104557795D01*
X162846428Y-104557795D02*
X162846428Y-104700652D01*
X162846428Y-104700652D02*
X162894047Y-104795890D01*
X162894047Y-104795890D02*
X162941666Y-104843509D01*
X162941666Y-104843509D02*
X163036904Y-104891128D01*
X163036904Y-104891128D02*
X163417856Y-104891128D01*
X161989285Y-104700652D02*
X161989285Y-105367319D01*
X162227380Y-104319700D02*
X162465475Y-105033985D01*
X162465475Y-105033985D02*
X161846428Y-105033985D01*
X161465475Y-105367319D02*
X161465475Y-104367319D01*
X161036904Y-105367319D02*
X161036904Y-104843509D01*
X161036904Y-104843509D02*
X161084523Y-104748271D01*
X161084523Y-104748271D02*
X161179761Y-104700652D01*
X161179761Y-104700652D02*
X161322618Y-104700652D01*
X161322618Y-104700652D02*
X161417856Y-104748271D01*
X161417856Y-104748271D02*
X161465475Y-104795890D01*
X160417856Y-105367319D02*
X160513094Y-105319700D01*
X160513094Y-105319700D02*
X160560713Y-105272080D01*
X160560713Y-105272080D02*
X160608332Y-105176842D01*
X160608332Y-105176842D02*
X160608332Y-104891128D01*
X160608332Y-104891128D02*
X160560713Y-104795890D01*
X160560713Y-104795890D02*
X160513094Y-104748271D01*
X160513094Y-104748271D02*
X160417856Y-104700652D01*
X160417856Y-104700652D02*
X160274999Y-104700652D01*
X160274999Y-104700652D02*
X160179761Y-104748271D01*
X160179761Y-104748271D02*
X160132142Y-104795890D01*
X160132142Y-104795890D02*
X160084523Y-104891128D01*
X160084523Y-104891128D02*
X160084523Y-105176842D01*
X160084523Y-105176842D02*
X160132142Y-105272080D01*
X160132142Y-105272080D02*
X160179761Y-105319700D01*
X160179761Y-105319700D02*
X160274999Y-105367319D01*
X160274999Y-105367319D02*
X160417856Y-105367319D01*
X159751189Y-104700652D02*
X159560713Y-105367319D01*
X159560713Y-105367319D02*
X159370237Y-104891128D01*
X159370237Y-104891128D02*
X159179761Y-105367319D01*
X159179761Y-105367319D02*
X158989285Y-104700652D01*
X158084523Y-105367319D02*
X158655951Y-105367319D01*
X158370237Y-105367319D02*
X158370237Y-104367319D01*
X158370237Y-104367319D02*
X158465475Y-104510176D01*
X158465475Y-104510176D02*
X158560713Y-104605414D01*
X158560713Y-104605414D02*
X158655951Y-104653033D01*
X139164819Y-80313095D02*
X139974342Y-80313095D01*
X139974342Y-80313095D02*
X140069580Y-80360714D01*
X140069580Y-80360714D02*
X140117200Y-80408333D01*
X140117200Y-80408333D02*
X140164819Y-80503571D01*
X140164819Y-80503571D02*
X140164819Y-80694047D01*
X140164819Y-80694047D02*
X140117200Y-80789285D01*
X140117200Y-80789285D02*
X140069580Y-80836904D01*
X140069580Y-80836904D02*
X139974342Y-80884523D01*
X139974342Y-80884523D02*
X139164819Y-80884523D01*
X139498152Y-81789285D02*
X140164819Y-81789285D01*
X139117200Y-81551190D02*
X139831485Y-81313095D01*
X139831485Y-81313095D02*
X139831485Y-81932142D01*
X140265594Y-99939819D02*
X140265594Y-98939819D01*
X140265594Y-98939819D02*
X140027499Y-98939819D01*
X140027499Y-98939819D02*
X139884642Y-98987438D01*
X139884642Y-98987438D02*
X139789404Y-99082676D01*
X139789404Y-99082676D02*
X139741785Y-99177914D01*
X139741785Y-99177914D02*
X139694166Y-99368390D01*
X139694166Y-99368390D02*
X139694166Y-99511247D01*
X139694166Y-99511247D02*
X139741785Y-99701723D01*
X139741785Y-99701723D02*
X139789404Y-99796961D01*
X139789404Y-99796961D02*
X139884642Y-99892200D01*
X139884642Y-99892200D02*
X140027499Y-99939819D01*
X140027499Y-99939819D02*
X140265594Y-99939819D01*
X139313213Y-99035057D02*
X139265594Y-98987438D01*
X139265594Y-98987438D02*
X139170356Y-98939819D01*
X139170356Y-98939819D02*
X138932261Y-98939819D01*
X138932261Y-98939819D02*
X138837023Y-98987438D01*
X138837023Y-98987438D02*
X138789404Y-99035057D01*
X138789404Y-99035057D02*
X138741785Y-99130295D01*
X138741785Y-99130295D02*
X138741785Y-99225533D01*
X138741785Y-99225533D02*
X138789404Y-99368390D01*
X138789404Y-99368390D02*
X139360832Y-99939819D01*
X139360832Y-99939819D02*
X138741785Y-99939819D01*
X159754166Y-81129819D02*
X160087499Y-80653628D01*
X160325594Y-81129819D02*
X160325594Y-80129819D01*
X160325594Y-80129819D02*
X159944642Y-80129819D01*
X159944642Y-80129819D02*
X159849404Y-80177438D01*
X159849404Y-80177438D02*
X159801785Y-80225057D01*
X159801785Y-80225057D02*
X159754166Y-80320295D01*
X159754166Y-80320295D02*
X159754166Y-80463152D01*
X159754166Y-80463152D02*
X159801785Y-80558390D01*
X159801785Y-80558390D02*
X159849404Y-80606009D01*
X159849404Y-80606009D02*
X159944642Y-80653628D01*
X159944642Y-80653628D02*
X160325594Y-80653628D01*
X159373213Y-80225057D02*
X159325594Y-80177438D01*
X159325594Y-80177438D02*
X159230356Y-80129819D01*
X159230356Y-80129819D02*
X158992261Y-80129819D01*
X158992261Y-80129819D02*
X158897023Y-80177438D01*
X158897023Y-80177438D02*
X158849404Y-80225057D01*
X158849404Y-80225057D02*
X158801785Y-80320295D01*
X158801785Y-80320295D02*
X158801785Y-80415533D01*
X158801785Y-80415533D02*
X158849404Y-80558390D01*
X158849404Y-80558390D02*
X159420832Y-81129819D01*
X159420832Y-81129819D02*
X158801785Y-81129819D01*
X132172619Y-90179819D02*
X132505952Y-89703628D01*
X132744047Y-90179819D02*
X132744047Y-89179819D01*
X132744047Y-89179819D02*
X132363095Y-89179819D01*
X132363095Y-89179819D02*
X132267857Y-89227438D01*
X132267857Y-89227438D02*
X132220238Y-89275057D01*
X132220238Y-89275057D02*
X132172619Y-89370295D01*
X132172619Y-89370295D02*
X132172619Y-89513152D01*
X132172619Y-89513152D02*
X132220238Y-89608390D01*
X132220238Y-89608390D02*
X132267857Y-89656009D01*
X132267857Y-89656009D02*
X132363095Y-89703628D01*
X132363095Y-89703628D02*
X132744047Y-89703628D01*
X131744047Y-90179819D02*
X131744047Y-89179819D01*
X131744047Y-89560771D02*
X131648809Y-89513152D01*
X131648809Y-89513152D02*
X131458333Y-89513152D01*
X131458333Y-89513152D02*
X131363095Y-89560771D01*
X131363095Y-89560771D02*
X131315476Y-89608390D01*
X131315476Y-89608390D02*
X131267857Y-89703628D01*
X131267857Y-89703628D02*
X131267857Y-89989342D01*
X131267857Y-89989342D02*
X131315476Y-90084580D01*
X131315476Y-90084580D02*
X131363095Y-90132200D01*
X131363095Y-90132200D02*
X131458333Y-90179819D01*
X131458333Y-90179819D02*
X131648809Y-90179819D01*
X131648809Y-90179819D02*
X131744047Y-90132200D01*
X130410714Y-89513152D02*
X130410714Y-90179819D01*
X130839285Y-89513152D02*
X130839285Y-90036961D01*
X130839285Y-90036961D02*
X130791666Y-90132200D01*
X130791666Y-90132200D02*
X130696428Y-90179819D01*
X130696428Y-90179819D02*
X130553571Y-90179819D01*
X130553571Y-90179819D02*
X130458333Y-90132200D01*
X130458333Y-90132200D02*
X130410714Y-90084580D01*
X130077380Y-89513152D02*
X129696428Y-89513152D01*
X129934523Y-89179819D02*
X129934523Y-90036961D01*
X129934523Y-90036961D02*
X129886904Y-90132200D01*
X129886904Y-90132200D02*
X129791666Y-90179819D01*
X129791666Y-90179819D02*
X129696428Y-90179819D01*
X129505951Y-89513152D02*
X129124999Y-89513152D01*
X129363094Y-89179819D02*
X129363094Y-90036961D01*
X129363094Y-90036961D02*
X129315475Y-90132200D01*
X129315475Y-90132200D02*
X129220237Y-90179819D01*
X129220237Y-90179819D02*
X129124999Y-90179819D01*
X128648808Y-90179819D02*
X128744046Y-90132200D01*
X128744046Y-90132200D02*
X128791665Y-90084580D01*
X128791665Y-90084580D02*
X128839284Y-89989342D01*
X128839284Y-89989342D02*
X128839284Y-89703628D01*
X128839284Y-89703628D02*
X128791665Y-89608390D01*
X128791665Y-89608390D02*
X128744046Y-89560771D01*
X128744046Y-89560771D02*
X128648808Y-89513152D01*
X128648808Y-89513152D02*
X128505951Y-89513152D01*
X128505951Y-89513152D02*
X128410713Y-89560771D01*
X128410713Y-89560771D02*
X128363094Y-89608390D01*
X128363094Y-89608390D02*
X128315475Y-89703628D01*
X128315475Y-89703628D02*
X128315475Y-89989342D01*
X128315475Y-89989342D02*
X128363094Y-90084580D01*
X128363094Y-90084580D02*
X128410713Y-90132200D01*
X128410713Y-90132200D02*
X128505951Y-90179819D01*
X128505951Y-90179819D02*
X128648808Y-90179819D01*
X127886903Y-89513152D02*
X127886903Y-90179819D01*
X127886903Y-89608390D02*
X127839284Y-89560771D01*
X127839284Y-89560771D02*
X127744046Y-89513152D01*
X127744046Y-89513152D02*
X127601189Y-89513152D01*
X127601189Y-89513152D02*
X127505951Y-89560771D01*
X127505951Y-89560771D02*
X127458332Y-89656009D01*
X127458332Y-89656009D02*
X127458332Y-90179819D01*
X127029760Y-89275057D02*
X126982141Y-89227438D01*
X126982141Y-89227438D02*
X126886903Y-89179819D01*
X126886903Y-89179819D02*
X126648808Y-89179819D01*
X126648808Y-89179819D02*
X126553570Y-89227438D01*
X126553570Y-89227438D02*
X126505951Y-89275057D01*
X126505951Y-89275057D02*
X126458332Y-89370295D01*
X126458332Y-89370295D02*
X126458332Y-89465533D01*
X126458332Y-89465533D02*
X126505951Y-89608390D01*
X126505951Y-89608390D02*
X127077379Y-90179819D01*
X127077379Y-90179819D02*
X126458332Y-90179819D01*
X156204166Y-81129819D02*
X156537499Y-80653628D01*
X156775594Y-81129819D02*
X156775594Y-80129819D01*
X156775594Y-80129819D02*
X156394642Y-80129819D01*
X156394642Y-80129819D02*
X156299404Y-80177438D01*
X156299404Y-80177438D02*
X156251785Y-80225057D01*
X156251785Y-80225057D02*
X156204166Y-80320295D01*
X156204166Y-80320295D02*
X156204166Y-80463152D01*
X156204166Y-80463152D02*
X156251785Y-80558390D01*
X156251785Y-80558390D02*
X156299404Y-80606009D01*
X156299404Y-80606009D02*
X156394642Y-80653628D01*
X156394642Y-80653628D02*
X156775594Y-80653628D01*
X155251785Y-81129819D02*
X155823213Y-81129819D01*
X155537499Y-81129819D02*
X155537499Y-80129819D01*
X155537499Y-80129819D02*
X155632737Y-80272676D01*
X155632737Y-80272676D02*
X155727975Y-80367914D01*
X155727975Y-80367914D02*
X155823213Y-80415533D01*
X162821428Y-104167319D02*
X163154761Y-103691128D01*
X163392856Y-104167319D02*
X163392856Y-103167319D01*
X163392856Y-103167319D02*
X163011904Y-103167319D01*
X163011904Y-103167319D02*
X162916666Y-103214938D01*
X162916666Y-103214938D02*
X162869047Y-103262557D01*
X162869047Y-103262557D02*
X162821428Y-103357795D01*
X162821428Y-103357795D02*
X162821428Y-103500652D01*
X162821428Y-103500652D02*
X162869047Y-103595890D01*
X162869047Y-103595890D02*
X162916666Y-103643509D01*
X162916666Y-103643509D02*
X163011904Y-103691128D01*
X163011904Y-103691128D02*
X163392856Y-103691128D01*
X161869047Y-104167319D02*
X162440475Y-104167319D01*
X162154761Y-104167319D02*
X162154761Y-103167319D01*
X162154761Y-103167319D02*
X162249999Y-103310176D01*
X162249999Y-103310176D02*
X162345237Y-103405414D01*
X162345237Y-103405414D02*
X162440475Y-103453033D01*
X161440475Y-104167319D02*
X161440475Y-103167319D01*
X161011904Y-104167319D02*
X161011904Y-103643509D01*
X161011904Y-103643509D02*
X161059523Y-103548271D01*
X161059523Y-103548271D02*
X161154761Y-103500652D01*
X161154761Y-103500652D02*
X161297618Y-103500652D01*
X161297618Y-103500652D02*
X161392856Y-103548271D01*
X161392856Y-103548271D02*
X161440475Y-103595890D01*
X160392856Y-104167319D02*
X160488094Y-104119700D01*
X160488094Y-104119700D02*
X160535713Y-104072080D01*
X160535713Y-104072080D02*
X160583332Y-103976842D01*
X160583332Y-103976842D02*
X160583332Y-103691128D01*
X160583332Y-103691128D02*
X160535713Y-103595890D01*
X160535713Y-103595890D02*
X160488094Y-103548271D01*
X160488094Y-103548271D02*
X160392856Y-103500652D01*
X160392856Y-103500652D02*
X160249999Y-103500652D01*
X160249999Y-103500652D02*
X160154761Y-103548271D01*
X160154761Y-103548271D02*
X160107142Y-103595890D01*
X160107142Y-103595890D02*
X160059523Y-103691128D01*
X160059523Y-103691128D02*
X160059523Y-103976842D01*
X160059523Y-103976842D02*
X160107142Y-104072080D01*
X160107142Y-104072080D02*
X160154761Y-104119700D01*
X160154761Y-104119700D02*
X160249999Y-104167319D01*
X160249999Y-104167319D02*
X160392856Y-104167319D01*
X159726189Y-103500652D02*
X159535713Y-104167319D01*
X159535713Y-104167319D02*
X159345237Y-103691128D01*
X159345237Y-103691128D02*
X159154761Y-104167319D01*
X159154761Y-104167319D02*
X158964285Y-103500652D01*
X158059523Y-104167319D02*
X158630951Y-104167319D01*
X158345237Y-104167319D02*
X158345237Y-103167319D01*
X158345237Y-103167319D02*
X158440475Y-103310176D01*
X158440475Y-103310176D02*
X158535713Y-103405414D01*
X158535713Y-103405414D02*
X158630951Y-103453033D01*
X142006428Y-75329580D02*
X142054047Y-75377200D01*
X142054047Y-75377200D02*
X142196904Y-75424819D01*
X142196904Y-75424819D02*
X142292142Y-75424819D01*
X142292142Y-75424819D02*
X142434999Y-75377200D01*
X142434999Y-75377200D02*
X142530237Y-75281961D01*
X142530237Y-75281961D02*
X142577856Y-75186723D01*
X142577856Y-75186723D02*
X142625475Y-74996247D01*
X142625475Y-74996247D02*
X142625475Y-74853390D01*
X142625475Y-74853390D02*
X142577856Y-74662914D01*
X142577856Y-74662914D02*
X142530237Y-74567676D01*
X142530237Y-74567676D02*
X142434999Y-74472438D01*
X142434999Y-74472438D02*
X142292142Y-74424819D01*
X142292142Y-74424819D02*
X142196904Y-74424819D01*
X142196904Y-74424819D02*
X142054047Y-74472438D01*
X142054047Y-74472438D02*
X142006428Y-74520057D01*
X141101666Y-75424819D02*
X141577856Y-75424819D01*
X141577856Y-75424819D02*
X141577856Y-74424819D01*
X140768332Y-75424819D02*
X140768332Y-74424819D01*
X140768332Y-74424819D02*
X140387380Y-74424819D01*
X140387380Y-74424819D02*
X140292142Y-74472438D01*
X140292142Y-74472438D02*
X140244523Y-74520057D01*
X140244523Y-74520057D02*
X140196904Y-74615295D01*
X140196904Y-74615295D02*
X140196904Y-74758152D01*
X140196904Y-74758152D02*
X140244523Y-74853390D01*
X140244523Y-74853390D02*
X140292142Y-74901009D01*
X140292142Y-74901009D02*
X140387380Y-74948628D01*
X140387380Y-74948628D02*
X140768332Y-74948628D01*
X139244523Y-75424819D02*
X139815951Y-75424819D01*
X139530237Y-75424819D02*
X139530237Y-74424819D01*
X139530237Y-74424819D02*
X139625475Y-74567676D01*
X139625475Y-74567676D02*
X139720713Y-74662914D01*
X139720713Y-74662914D02*
X139815951Y-74710533D01*
X145761190Y-78139580D02*
X145808809Y-78187200D01*
X145808809Y-78187200D02*
X145951666Y-78234819D01*
X145951666Y-78234819D02*
X146046904Y-78234819D01*
X146046904Y-78234819D02*
X146189761Y-78187200D01*
X146189761Y-78187200D02*
X146284999Y-78091961D01*
X146284999Y-78091961D02*
X146332618Y-77996723D01*
X146332618Y-77996723D02*
X146380237Y-77806247D01*
X146380237Y-77806247D02*
X146380237Y-77663390D01*
X146380237Y-77663390D02*
X146332618Y-77472914D01*
X146332618Y-77472914D02*
X146284999Y-77377676D01*
X146284999Y-77377676D02*
X146189761Y-77282438D01*
X146189761Y-77282438D02*
X146046904Y-77234819D01*
X146046904Y-77234819D02*
X145951666Y-77234819D01*
X145951666Y-77234819D02*
X145808809Y-77282438D01*
X145808809Y-77282438D02*
X145761190Y-77330057D01*
X144904047Y-78234819D02*
X144904047Y-77234819D01*
X144904047Y-78187200D02*
X144999285Y-78234819D01*
X144999285Y-78234819D02*
X145189761Y-78234819D01*
X145189761Y-78234819D02*
X145284999Y-78187200D01*
X145284999Y-78187200D02*
X145332618Y-78139580D01*
X145332618Y-78139580D02*
X145380237Y-78044342D01*
X145380237Y-78044342D02*
X145380237Y-77758628D01*
X145380237Y-77758628D02*
X145332618Y-77663390D01*
X145332618Y-77663390D02*
X145284999Y-77615771D01*
X145284999Y-77615771D02*
X145189761Y-77568152D01*
X145189761Y-77568152D02*
X144999285Y-77568152D01*
X144999285Y-77568152D02*
X144904047Y-77615771D01*
X144665952Y-78330057D02*
X143904047Y-78330057D01*
X143475475Y-77234819D02*
X143380237Y-77234819D01*
X143380237Y-77234819D02*
X143284999Y-77282438D01*
X143284999Y-77282438D02*
X143237380Y-77330057D01*
X143237380Y-77330057D02*
X143189761Y-77425295D01*
X143189761Y-77425295D02*
X143142142Y-77615771D01*
X143142142Y-77615771D02*
X143142142Y-77853866D01*
X143142142Y-77853866D02*
X143189761Y-78044342D01*
X143189761Y-78044342D02*
X143237380Y-78139580D01*
X143237380Y-78139580D02*
X143284999Y-78187200D01*
X143284999Y-78187200D02*
X143380237Y-78234819D01*
X143380237Y-78234819D02*
X143475475Y-78234819D01*
X143475475Y-78234819D02*
X143570713Y-78187200D01*
X143570713Y-78187200D02*
X143618332Y-78139580D01*
X143618332Y-78139580D02*
X143665951Y-78044342D01*
X143665951Y-78044342D02*
X143713570Y-77853866D01*
X143713570Y-77853866D02*
X143713570Y-77615771D01*
X143713570Y-77615771D02*
X143665951Y-77425295D01*
X143665951Y-77425295D02*
X143618332Y-77330057D01*
X143618332Y-77330057D02*
X143570713Y-77282438D01*
X143570713Y-77282438D02*
X143475475Y-77234819D01*
X142189761Y-78234819D02*
X142761189Y-78234819D01*
X142475475Y-78234819D02*
X142475475Y-77234819D01*
X142475475Y-77234819D02*
X142570713Y-77377676D01*
X142570713Y-77377676D02*
X142665951Y-77472914D01*
X142665951Y-77472914D02*
X142761189Y-77520533D01*
X146354166Y-67254819D02*
X146687499Y-66778628D01*
X146925594Y-67254819D02*
X146925594Y-66254819D01*
X146925594Y-66254819D02*
X146544642Y-66254819D01*
X146544642Y-66254819D02*
X146449404Y-66302438D01*
X146449404Y-66302438D02*
X146401785Y-66350057D01*
X146401785Y-66350057D02*
X146354166Y-66445295D01*
X146354166Y-66445295D02*
X146354166Y-66588152D01*
X146354166Y-66588152D02*
X146401785Y-66683390D01*
X146401785Y-66683390D02*
X146449404Y-66731009D01*
X146449404Y-66731009D02*
X146544642Y-66778628D01*
X146544642Y-66778628D02*
X146925594Y-66778628D01*
X146020832Y-66254819D02*
X145354166Y-66254819D01*
X145354166Y-66254819D02*
X145782737Y-67254819D01*
X149943452Y-109617319D02*
X150276785Y-109141128D01*
X150514880Y-109617319D02*
X150514880Y-108617319D01*
X150514880Y-108617319D02*
X150133928Y-108617319D01*
X150133928Y-108617319D02*
X150038690Y-108664938D01*
X150038690Y-108664938D02*
X149991071Y-108712557D01*
X149991071Y-108712557D02*
X149943452Y-108807795D01*
X149943452Y-108807795D02*
X149943452Y-108950652D01*
X149943452Y-108950652D02*
X149991071Y-109045890D01*
X149991071Y-109045890D02*
X150038690Y-109093509D01*
X150038690Y-109093509D02*
X150133928Y-109141128D01*
X150133928Y-109141128D02*
X150514880Y-109141128D01*
X149657737Y-108950652D02*
X149276785Y-108950652D01*
X149514880Y-109617319D02*
X149514880Y-108760176D01*
X149514880Y-108760176D02*
X149467261Y-108664938D01*
X149467261Y-108664938D02*
X149372023Y-108617319D01*
X149372023Y-108617319D02*
X149276785Y-108617319D01*
X148991070Y-109331604D02*
X148514880Y-109331604D01*
X149086308Y-109617319D02*
X148752975Y-108617319D01*
X148752975Y-108617319D02*
X148419642Y-109617319D01*
X148086308Y-109617319D02*
X148086308Y-108617319D01*
X148086308Y-108617319D02*
X147848213Y-108617319D01*
X147848213Y-108617319D02*
X147705356Y-108664938D01*
X147705356Y-108664938D02*
X147610118Y-108760176D01*
X147610118Y-108760176D02*
X147562499Y-108855414D01*
X147562499Y-108855414D02*
X147514880Y-109045890D01*
X147514880Y-109045890D02*
X147514880Y-109188747D01*
X147514880Y-109188747D02*
X147562499Y-109379223D01*
X147562499Y-109379223D02*
X147610118Y-109474461D01*
X147610118Y-109474461D02*
X147705356Y-109569700D01*
X147705356Y-109569700D02*
X147848213Y-109617319D01*
X147848213Y-109617319D02*
X148086308Y-109617319D01*
X146562499Y-109617319D02*
X147133927Y-109617319D01*
X146848213Y-109617319D02*
X146848213Y-108617319D01*
X146848213Y-108617319D02*
X146943451Y-108760176D01*
X146943451Y-108760176D02*
X147038689Y-108855414D01*
X147038689Y-108855414D02*
X147133927Y-108903033D01*
X141014166Y-69204819D02*
X141347499Y-68728628D01*
X141585594Y-69204819D02*
X141585594Y-68204819D01*
X141585594Y-68204819D02*
X141204642Y-68204819D01*
X141204642Y-68204819D02*
X141109404Y-68252438D01*
X141109404Y-68252438D02*
X141061785Y-68300057D01*
X141061785Y-68300057D02*
X141014166Y-68395295D01*
X141014166Y-68395295D02*
X141014166Y-68538152D01*
X141014166Y-68538152D02*
X141061785Y-68633390D01*
X141061785Y-68633390D02*
X141109404Y-68681009D01*
X141109404Y-68681009D02*
X141204642Y-68728628D01*
X141204642Y-68728628D02*
X141585594Y-68728628D01*
X140680832Y-68204819D02*
X140061785Y-68204819D01*
X140061785Y-68204819D02*
X140395118Y-68585771D01*
X140395118Y-68585771D02*
X140252261Y-68585771D01*
X140252261Y-68585771D02*
X140157023Y-68633390D01*
X140157023Y-68633390D02*
X140109404Y-68681009D01*
X140109404Y-68681009D02*
X140061785Y-68776247D01*
X140061785Y-68776247D02*
X140061785Y-69014342D01*
X140061785Y-69014342D02*
X140109404Y-69109580D01*
X140109404Y-69109580D02*
X140157023Y-69157200D01*
X140157023Y-69157200D02*
X140252261Y-69204819D01*
X140252261Y-69204819D02*
X140537975Y-69204819D01*
X140537975Y-69204819D02*
X140633213Y-69157200D01*
X140633213Y-69157200D02*
X140680832Y-69109580D01*
X165789580Y-79499999D02*
X165837200Y-79452380D01*
X165837200Y-79452380D02*
X165884819Y-79309523D01*
X165884819Y-79309523D02*
X165884819Y-79214285D01*
X165884819Y-79214285D02*
X165837200Y-79071428D01*
X165837200Y-79071428D02*
X165741961Y-78976190D01*
X165741961Y-78976190D02*
X165646723Y-78928571D01*
X165646723Y-78928571D02*
X165456247Y-78880952D01*
X165456247Y-78880952D02*
X165313390Y-78880952D01*
X165313390Y-78880952D02*
X165122914Y-78928571D01*
X165122914Y-78928571D02*
X165027676Y-78976190D01*
X165027676Y-78976190D02*
X164932438Y-79071428D01*
X164932438Y-79071428D02*
X164884819Y-79214285D01*
X164884819Y-79214285D02*
X164884819Y-79309523D01*
X164884819Y-79309523D02*
X164932438Y-79452380D01*
X164932438Y-79452380D02*
X164980057Y-79499999D01*
X165884819Y-80357142D02*
X164884819Y-80357142D01*
X165837200Y-80357142D02*
X165884819Y-80261904D01*
X165884819Y-80261904D02*
X165884819Y-80071428D01*
X165884819Y-80071428D02*
X165837200Y-79976190D01*
X165837200Y-79976190D02*
X165789580Y-79928571D01*
X165789580Y-79928571D02*
X165694342Y-79880952D01*
X165694342Y-79880952D02*
X165408628Y-79880952D01*
X165408628Y-79880952D02*
X165313390Y-79928571D01*
X165313390Y-79928571D02*
X165265771Y-79976190D01*
X165265771Y-79976190D02*
X165218152Y-80071428D01*
X165218152Y-80071428D02*
X165218152Y-80261904D01*
X165218152Y-80261904D02*
X165265771Y-80357142D01*
X165980057Y-80595238D02*
X165980057Y-81357142D01*
X164884819Y-82023809D02*
X164884819Y-81833333D01*
X164884819Y-81833333D02*
X164932438Y-81738095D01*
X164932438Y-81738095D02*
X164980057Y-81690476D01*
X164980057Y-81690476D02*
X165122914Y-81595238D01*
X165122914Y-81595238D02*
X165313390Y-81547619D01*
X165313390Y-81547619D02*
X165694342Y-81547619D01*
X165694342Y-81547619D02*
X165789580Y-81595238D01*
X165789580Y-81595238D02*
X165837200Y-81642857D01*
X165837200Y-81642857D02*
X165884819Y-81738095D01*
X165884819Y-81738095D02*
X165884819Y-81928571D01*
X165884819Y-81928571D02*
X165837200Y-82023809D01*
X165837200Y-82023809D02*
X165789580Y-82071428D01*
X165789580Y-82071428D02*
X165694342Y-82119047D01*
X165694342Y-82119047D02*
X165456247Y-82119047D01*
X165456247Y-82119047D02*
X165361009Y-82071428D01*
X165361009Y-82071428D02*
X165313390Y-82023809D01*
X165313390Y-82023809D02*
X165265771Y-81928571D01*
X165265771Y-81928571D02*
X165265771Y-81738095D01*
X165265771Y-81738095D02*
X165313390Y-81642857D01*
X165313390Y-81642857D02*
X165361009Y-81595238D01*
X165361009Y-81595238D02*
X165456247Y-81547619D01*
X161652080Y-109437499D02*
X161699700Y-109389880D01*
X161699700Y-109389880D02*
X161747319Y-109247023D01*
X161747319Y-109247023D02*
X161747319Y-109151785D01*
X161747319Y-109151785D02*
X161699700Y-109008928D01*
X161699700Y-109008928D02*
X161604461Y-108913690D01*
X161604461Y-108913690D02*
X161509223Y-108866071D01*
X161509223Y-108866071D02*
X161318747Y-108818452D01*
X161318747Y-108818452D02*
X161175890Y-108818452D01*
X161175890Y-108818452D02*
X160985414Y-108866071D01*
X160985414Y-108866071D02*
X160890176Y-108913690D01*
X160890176Y-108913690D02*
X160794938Y-109008928D01*
X160794938Y-109008928D02*
X160747319Y-109151785D01*
X160747319Y-109151785D02*
X160747319Y-109247023D01*
X160747319Y-109247023D02*
X160794938Y-109389880D01*
X160794938Y-109389880D02*
X160842557Y-109437499D01*
X161747319Y-110294642D02*
X160747319Y-110294642D01*
X161699700Y-110294642D02*
X161747319Y-110199404D01*
X161747319Y-110199404D02*
X161747319Y-110008928D01*
X161747319Y-110008928D02*
X161699700Y-109913690D01*
X161699700Y-109913690D02*
X161652080Y-109866071D01*
X161652080Y-109866071D02*
X161556842Y-109818452D01*
X161556842Y-109818452D02*
X161271128Y-109818452D01*
X161271128Y-109818452D02*
X161175890Y-109866071D01*
X161175890Y-109866071D02*
X161128271Y-109913690D01*
X161128271Y-109913690D02*
X161080652Y-110008928D01*
X161080652Y-110008928D02*
X161080652Y-110199404D01*
X161080652Y-110199404D02*
X161128271Y-110294642D01*
X161842557Y-110532738D02*
X161842557Y-111294642D01*
X160747319Y-111437500D02*
X160747319Y-112104166D01*
X160747319Y-112104166D02*
X161747319Y-111675595D01*
X154391666Y-93079819D02*
X154724999Y-92603628D01*
X154963094Y-93079819D02*
X154963094Y-92079819D01*
X154963094Y-92079819D02*
X154582142Y-92079819D01*
X154582142Y-92079819D02*
X154486904Y-92127438D01*
X154486904Y-92127438D02*
X154439285Y-92175057D01*
X154439285Y-92175057D02*
X154391666Y-92270295D01*
X154391666Y-92270295D02*
X154391666Y-92413152D01*
X154391666Y-92413152D02*
X154439285Y-92508390D01*
X154439285Y-92508390D02*
X154486904Y-92556009D01*
X154486904Y-92556009D02*
X154582142Y-92603628D01*
X154582142Y-92603628D02*
X154963094Y-92603628D01*
X153915475Y-93079819D02*
X153724999Y-93079819D01*
X153724999Y-93079819D02*
X153629761Y-93032200D01*
X153629761Y-93032200D02*
X153582142Y-92984580D01*
X153582142Y-92984580D02*
X153486904Y-92841723D01*
X153486904Y-92841723D02*
X153439285Y-92651247D01*
X153439285Y-92651247D02*
X153439285Y-92270295D01*
X153439285Y-92270295D02*
X153486904Y-92175057D01*
X153486904Y-92175057D02*
X153534523Y-92127438D01*
X153534523Y-92127438D02*
X153629761Y-92079819D01*
X153629761Y-92079819D02*
X153820237Y-92079819D01*
X153820237Y-92079819D02*
X153915475Y-92127438D01*
X153915475Y-92127438D02*
X153963094Y-92175057D01*
X153963094Y-92175057D02*
X154010713Y-92270295D01*
X154010713Y-92270295D02*
X154010713Y-92508390D01*
X154010713Y-92508390D02*
X153963094Y-92603628D01*
X153963094Y-92603628D02*
X153915475Y-92651247D01*
X153915475Y-92651247D02*
X153820237Y-92698866D01*
X153820237Y-92698866D02*
X153629761Y-92698866D01*
X153629761Y-92698866D02*
X153534523Y-92651247D01*
X153534523Y-92651247D02*
X153486904Y-92603628D01*
X153486904Y-92603628D02*
X153439285Y-92508390D01*
X149732142Y-93854819D02*
X149732142Y-93188152D01*
X149732142Y-93378628D02*
X149684523Y-93283390D01*
X149684523Y-93283390D02*
X149636904Y-93235771D01*
X149636904Y-93235771D02*
X149541666Y-93188152D01*
X149541666Y-93188152D02*
X149446428Y-93188152D01*
X149113094Y-93854819D02*
X149113094Y-92854819D01*
X148684523Y-93854819D02*
X148684523Y-93331009D01*
X148684523Y-93331009D02*
X148732142Y-93235771D01*
X148732142Y-93235771D02*
X148827380Y-93188152D01*
X148827380Y-93188152D02*
X148970237Y-93188152D01*
X148970237Y-93188152D02*
X149065475Y-93235771D01*
X149065475Y-93235771D02*
X149113094Y-93283390D01*
X148208332Y-93188152D02*
X148208332Y-94188152D01*
X148208332Y-93235771D02*
X148113094Y-93188152D01*
X148113094Y-93188152D02*
X147922618Y-93188152D01*
X147922618Y-93188152D02*
X147827380Y-93235771D01*
X147827380Y-93235771D02*
X147779761Y-93283390D01*
X147779761Y-93283390D02*
X147732142Y-93378628D01*
X147732142Y-93378628D02*
X147732142Y-93664342D01*
X147732142Y-93664342D02*
X147779761Y-93759580D01*
X147779761Y-93759580D02*
X147827380Y-93807200D01*
X147827380Y-93807200D02*
X147922618Y-93854819D01*
X147922618Y-93854819D02*
X148113094Y-93854819D01*
X148113094Y-93854819D02*
X148208332Y-93807200D01*
X146874999Y-93854819D02*
X146874999Y-93331009D01*
X146874999Y-93331009D02*
X146922618Y-93235771D01*
X146922618Y-93235771D02*
X147017856Y-93188152D01*
X147017856Y-93188152D02*
X147208332Y-93188152D01*
X147208332Y-93188152D02*
X147303570Y-93235771D01*
X146874999Y-93807200D02*
X146970237Y-93854819D01*
X146970237Y-93854819D02*
X147208332Y-93854819D01*
X147208332Y-93854819D02*
X147303570Y-93807200D01*
X147303570Y-93807200D02*
X147351189Y-93711961D01*
X147351189Y-93711961D02*
X147351189Y-93616723D01*
X147351189Y-93616723D02*
X147303570Y-93521485D01*
X147303570Y-93521485D02*
X147208332Y-93473866D01*
X147208332Y-93473866D02*
X146970237Y-93473866D01*
X146970237Y-93473866D02*
X146874999Y-93426247D01*
X145970237Y-93854819D02*
X145970237Y-92854819D01*
X145970237Y-93807200D02*
X146065475Y-93854819D01*
X146065475Y-93854819D02*
X146255951Y-93854819D01*
X146255951Y-93854819D02*
X146351189Y-93807200D01*
X146351189Y-93807200D02*
X146398808Y-93759580D01*
X146398808Y-93759580D02*
X146446427Y-93664342D01*
X146446427Y-93664342D02*
X146446427Y-93378628D01*
X146446427Y-93378628D02*
X146398808Y-93283390D01*
X146398808Y-93283390D02*
X146351189Y-93235771D01*
X146351189Y-93235771D02*
X146255951Y-93188152D01*
X146255951Y-93188152D02*
X146065475Y-93188152D01*
X146065475Y-93188152D02*
X145970237Y-93235771D01*
X144970237Y-93854819D02*
X145541665Y-93854819D01*
X145255951Y-93854819D02*
X145255951Y-92854819D01*
X145255951Y-92854819D02*
X145351189Y-92997676D01*
X145351189Y-92997676D02*
X145446427Y-93092914D01*
X145446427Y-93092914D02*
X145541665Y-93140533D01*
X146364166Y-74604819D02*
X146697499Y-74128628D01*
X146935594Y-74604819D02*
X146935594Y-73604819D01*
X146935594Y-73604819D02*
X146554642Y-73604819D01*
X146554642Y-73604819D02*
X146459404Y-73652438D01*
X146459404Y-73652438D02*
X146411785Y-73700057D01*
X146411785Y-73700057D02*
X146364166Y-73795295D01*
X146364166Y-73795295D02*
X146364166Y-73938152D01*
X146364166Y-73938152D02*
X146411785Y-74033390D01*
X146411785Y-74033390D02*
X146459404Y-74081009D01*
X146459404Y-74081009D02*
X146554642Y-74128628D01*
X146554642Y-74128628D02*
X146935594Y-74128628D01*
X145507023Y-73604819D02*
X145697499Y-73604819D01*
X145697499Y-73604819D02*
X145792737Y-73652438D01*
X145792737Y-73652438D02*
X145840356Y-73700057D01*
X145840356Y-73700057D02*
X145935594Y-73842914D01*
X145935594Y-73842914D02*
X145983213Y-74033390D01*
X145983213Y-74033390D02*
X145983213Y-74414342D01*
X145983213Y-74414342D02*
X145935594Y-74509580D01*
X145935594Y-74509580D02*
X145887975Y-74557200D01*
X145887975Y-74557200D02*
X145792737Y-74604819D01*
X145792737Y-74604819D02*
X145602261Y-74604819D01*
X145602261Y-74604819D02*
X145507023Y-74557200D01*
X145507023Y-74557200D02*
X145459404Y-74509580D01*
X145459404Y-74509580D02*
X145411785Y-74414342D01*
X145411785Y-74414342D02*
X145411785Y-74176247D01*
X145411785Y-74176247D02*
X145459404Y-74081009D01*
X145459404Y-74081009D02*
X145507023Y-74033390D01*
X145507023Y-74033390D02*
X145602261Y-73985771D01*
X145602261Y-73985771D02*
X145792737Y-73985771D01*
X145792737Y-73985771D02*
X145887975Y-74033390D01*
X145887975Y-74033390D02*
X145935594Y-74081009D01*
X145935594Y-74081009D02*
X145983213Y-74176247D01*
X137129580Y-93653094D02*
X137177200Y-93605475D01*
X137177200Y-93605475D02*
X137224819Y-93462618D01*
X137224819Y-93462618D02*
X137224819Y-93367380D01*
X137224819Y-93367380D02*
X137177200Y-93224523D01*
X137177200Y-93224523D02*
X137081961Y-93129285D01*
X137081961Y-93129285D02*
X136986723Y-93081666D01*
X136986723Y-93081666D02*
X136796247Y-93034047D01*
X136796247Y-93034047D02*
X136653390Y-93034047D01*
X136653390Y-93034047D02*
X136462914Y-93081666D01*
X136462914Y-93081666D02*
X136367676Y-93129285D01*
X136367676Y-93129285D02*
X136272438Y-93224523D01*
X136272438Y-93224523D02*
X136224819Y-93367380D01*
X136224819Y-93367380D02*
X136224819Y-93462618D01*
X136224819Y-93462618D02*
X136272438Y-93605475D01*
X136272438Y-93605475D02*
X136320057Y-93653094D01*
X137177200Y-94034047D02*
X137224819Y-94129285D01*
X137224819Y-94129285D02*
X137224819Y-94319761D01*
X137224819Y-94319761D02*
X137177200Y-94414999D01*
X137177200Y-94414999D02*
X137081961Y-94462618D01*
X137081961Y-94462618D02*
X137034342Y-94462618D01*
X137034342Y-94462618D02*
X136939104Y-94414999D01*
X136939104Y-94414999D02*
X136891485Y-94319761D01*
X136891485Y-94319761D02*
X136891485Y-94176904D01*
X136891485Y-94176904D02*
X136843866Y-94081666D01*
X136843866Y-94081666D02*
X136748628Y-94034047D01*
X136748628Y-94034047D02*
X136701009Y-94034047D01*
X136701009Y-94034047D02*
X136605771Y-94081666D01*
X136605771Y-94081666D02*
X136558152Y-94176904D01*
X136558152Y-94176904D02*
X136558152Y-94319761D01*
X136558152Y-94319761D02*
X136605771Y-94414999D01*
X137177200Y-95319761D02*
X137224819Y-95224523D01*
X137224819Y-95224523D02*
X137224819Y-95034047D01*
X137224819Y-95034047D02*
X137177200Y-94938809D01*
X137177200Y-94938809D02*
X137129580Y-94891190D01*
X137129580Y-94891190D02*
X137034342Y-94843571D01*
X137034342Y-94843571D02*
X136748628Y-94843571D01*
X136748628Y-94843571D02*
X136653390Y-94891190D01*
X136653390Y-94891190D02*
X136605771Y-94938809D01*
X136605771Y-94938809D02*
X136558152Y-95034047D01*
X136558152Y-95034047D02*
X136558152Y-95224523D01*
X136558152Y-95224523D02*
X136605771Y-95319761D01*
X137224819Y-95748333D02*
X136224819Y-95748333D01*
X137224819Y-96176904D02*
X136701009Y-96176904D01*
X136701009Y-96176904D02*
X136605771Y-96129285D01*
X136605771Y-96129285D02*
X136558152Y-96034047D01*
X136558152Y-96034047D02*
X136558152Y-95891190D01*
X136558152Y-95891190D02*
X136605771Y-95795952D01*
X136605771Y-95795952D02*
X136653390Y-95748333D01*
X137224819Y-96795952D02*
X137177200Y-96700714D01*
X137177200Y-96700714D02*
X137129580Y-96653095D01*
X137129580Y-96653095D02*
X137034342Y-96605476D01*
X137034342Y-96605476D02*
X136748628Y-96605476D01*
X136748628Y-96605476D02*
X136653390Y-96653095D01*
X136653390Y-96653095D02*
X136605771Y-96700714D01*
X136605771Y-96700714D02*
X136558152Y-96795952D01*
X136558152Y-96795952D02*
X136558152Y-96938809D01*
X136558152Y-96938809D02*
X136605771Y-97034047D01*
X136605771Y-97034047D02*
X136653390Y-97081666D01*
X136653390Y-97081666D02*
X136748628Y-97129285D01*
X136748628Y-97129285D02*
X137034342Y-97129285D01*
X137034342Y-97129285D02*
X137129580Y-97081666D01*
X137129580Y-97081666D02*
X137177200Y-97034047D01*
X137177200Y-97034047D02*
X137224819Y-96938809D01*
X137224819Y-96938809D02*
X137224819Y-96795952D01*
X136558152Y-97415000D02*
X136558152Y-97795952D01*
X136224819Y-97557857D02*
X137081961Y-97557857D01*
X137081961Y-97557857D02*
X137177200Y-97605476D01*
X137177200Y-97605476D02*
X137224819Y-97700714D01*
X137224819Y-97700714D02*
X137224819Y-97795952D01*
X136558152Y-97986429D02*
X136558152Y-98367381D01*
X136224819Y-98129286D02*
X137081961Y-98129286D01*
X137081961Y-98129286D02*
X137177200Y-98176905D01*
X137177200Y-98176905D02*
X137224819Y-98272143D01*
X137224819Y-98272143D02*
X137224819Y-98367381D01*
X137224819Y-98700715D02*
X136224819Y-98700715D01*
X136843866Y-98795953D02*
X137224819Y-99081667D01*
X136558152Y-99081667D02*
X136939104Y-98700715D01*
X136558152Y-99415001D02*
X137224819Y-99653096D01*
X136558152Y-99891191D02*
X137224819Y-99653096D01*
X137224819Y-99653096D02*
X137462914Y-99557858D01*
X137462914Y-99557858D02*
X137510533Y-99510239D01*
X137510533Y-99510239D02*
X137558152Y-99415001D01*
X137224819Y-100795953D02*
X137224819Y-100224525D01*
X137224819Y-100510239D02*
X136224819Y-100510239D01*
X136224819Y-100510239D02*
X136367676Y-100415001D01*
X136367676Y-100415001D02*
X136462914Y-100319763D01*
X136462914Y-100319763D02*
X136510533Y-100224525D01*
X149470238Y-96054580D02*
X149517857Y-96102200D01*
X149517857Y-96102200D02*
X149660714Y-96149819D01*
X149660714Y-96149819D02*
X149755952Y-96149819D01*
X149755952Y-96149819D02*
X149898809Y-96102200D01*
X149898809Y-96102200D02*
X149994047Y-96006961D01*
X149994047Y-96006961D02*
X150041666Y-95911723D01*
X150041666Y-95911723D02*
X150089285Y-95721247D01*
X150089285Y-95721247D02*
X150089285Y-95578390D01*
X150089285Y-95578390D02*
X150041666Y-95387914D01*
X150041666Y-95387914D02*
X149994047Y-95292676D01*
X149994047Y-95292676D02*
X149898809Y-95197438D01*
X149898809Y-95197438D02*
X149755952Y-95149819D01*
X149755952Y-95149819D02*
X149660714Y-95149819D01*
X149660714Y-95149819D02*
X149517857Y-95197438D01*
X149517857Y-95197438D02*
X149470238Y-95245057D01*
X149041666Y-96149819D02*
X149041666Y-95149819D01*
X149041666Y-95626009D02*
X148470238Y-95626009D01*
X148470238Y-96149819D02*
X148470238Y-95149819D01*
X147994047Y-96149819D02*
X147994047Y-95149819D01*
X147994047Y-95149819D02*
X147613095Y-95149819D01*
X147613095Y-95149819D02*
X147517857Y-95197438D01*
X147517857Y-95197438D02*
X147470238Y-95245057D01*
X147470238Y-95245057D02*
X147422619Y-95340295D01*
X147422619Y-95340295D02*
X147422619Y-95483152D01*
X147422619Y-95483152D02*
X147470238Y-95578390D01*
X147470238Y-95578390D02*
X147517857Y-95626009D01*
X147517857Y-95626009D02*
X147613095Y-95673628D01*
X147613095Y-95673628D02*
X147994047Y-95673628D01*
X146565476Y-96149819D02*
X146565476Y-95626009D01*
X146565476Y-95626009D02*
X146613095Y-95530771D01*
X146613095Y-95530771D02*
X146708333Y-95483152D01*
X146708333Y-95483152D02*
X146898809Y-95483152D01*
X146898809Y-95483152D02*
X146994047Y-95530771D01*
X146565476Y-96102200D02*
X146660714Y-96149819D01*
X146660714Y-96149819D02*
X146898809Y-96149819D01*
X146898809Y-96149819D02*
X146994047Y-96102200D01*
X146994047Y-96102200D02*
X147041666Y-96006961D01*
X147041666Y-96006961D02*
X147041666Y-95911723D01*
X147041666Y-95911723D02*
X146994047Y-95816485D01*
X146994047Y-95816485D02*
X146898809Y-95768866D01*
X146898809Y-95768866D02*
X146660714Y-95768866D01*
X146660714Y-95768866D02*
X146565476Y-95721247D01*
X145660714Y-96149819D02*
X145660714Y-95149819D01*
X145660714Y-96102200D02*
X145755952Y-96149819D01*
X145755952Y-96149819D02*
X145946428Y-96149819D01*
X145946428Y-96149819D02*
X146041666Y-96102200D01*
X146041666Y-96102200D02*
X146089285Y-96054580D01*
X146089285Y-96054580D02*
X146136904Y-95959342D01*
X146136904Y-95959342D02*
X146136904Y-95673628D01*
X146136904Y-95673628D02*
X146089285Y-95578390D01*
X146089285Y-95578390D02*
X146041666Y-95530771D01*
X146041666Y-95530771D02*
X145946428Y-95483152D01*
X145946428Y-95483152D02*
X145755952Y-95483152D01*
X145755952Y-95483152D02*
X145660714Y-95530771D01*
X144660714Y-96149819D02*
X145232142Y-96149819D01*
X144946428Y-96149819D02*
X144946428Y-95149819D01*
X144946428Y-95149819D02*
X145041666Y-95292676D01*
X145041666Y-95292676D02*
X145136904Y-95387914D01*
X145136904Y-95387914D02*
X145232142Y-95435533D01*
X168225000Y-88289580D02*
X168272619Y-88337200D01*
X168272619Y-88337200D02*
X168415476Y-88384819D01*
X168415476Y-88384819D02*
X168510714Y-88384819D01*
X168510714Y-88384819D02*
X168653571Y-88337200D01*
X168653571Y-88337200D02*
X168748809Y-88241961D01*
X168748809Y-88241961D02*
X168796428Y-88146723D01*
X168796428Y-88146723D02*
X168844047Y-87956247D01*
X168844047Y-87956247D02*
X168844047Y-87813390D01*
X168844047Y-87813390D02*
X168796428Y-87622914D01*
X168796428Y-87622914D02*
X168748809Y-87527676D01*
X168748809Y-87527676D02*
X168653571Y-87432438D01*
X168653571Y-87432438D02*
X168510714Y-87384819D01*
X168510714Y-87384819D02*
X168415476Y-87384819D01*
X168415476Y-87384819D02*
X168272619Y-87432438D01*
X168272619Y-87432438D02*
X168225000Y-87480057D01*
X167367857Y-88384819D02*
X167367857Y-87384819D01*
X167367857Y-88337200D02*
X167463095Y-88384819D01*
X167463095Y-88384819D02*
X167653571Y-88384819D01*
X167653571Y-88384819D02*
X167748809Y-88337200D01*
X167748809Y-88337200D02*
X167796428Y-88289580D01*
X167796428Y-88289580D02*
X167844047Y-88194342D01*
X167844047Y-88194342D02*
X167844047Y-87908628D01*
X167844047Y-87908628D02*
X167796428Y-87813390D01*
X167796428Y-87813390D02*
X167748809Y-87765771D01*
X167748809Y-87765771D02*
X167653571Y-87718152D01*
X167653571Y-87718152D02*
X167463095Y-87718152D01*
X167463095Y-87718152D02*
X167367857Y-87765771D01*
X167129762Y-88480057D02*
X166367857Y-88480057D01*
X165653571Y-87384819D02*
X166129761Y-87384819D01*
X166129761Y-87384819D02*
X166177380Y-87861009D01*
X166177380Y-87861009D02*
X166129761Y-87813390D01*
X166129761Y-87813390D02*
X166034523Y-87765771D01*
X166034523Y-87765771D02*
X165796428Y-87765771D01*
X165796428Y-87765771D02*
X165701190Y-87813390D01*
X165701190Y-87813390D02*
X165653571Y-87861009D01*
X165653571Y-87861009D02*
X165605952Y-87956247D01*
X165605952Y-87956247D02*
X165605952Y-88194342D01*
X165605952Y-88194342D02*
X165653571Y-88289580D01*
X165653571Y-88289580D02*
X165701190Y-88337200D01*
X165701190Y-88337200D02*
X165796428Y-88384819D01*
X165796428Y-88384819D02*
X166034523Y-88384819D01*
X166034523Y-88384819D02*
X166129761Y-88337200D01*
X166129761Y-88337200D02*
X166177380Y-88289580D01*
X146830357Y-68354819D02*
X147163690Y-67878628D01*
X147401785Y-68354819D02*
X147401785Y-67354819D01*
X147401785Y-67354819D02*
X147020833Y-67354819D01*
X147020833Y-67354819D02*
X146925595Y-67402438D01*
X146925595Y-67402438D02*
X146877976Y-67450057D01*
X146877976Y-67450057D02*
X146830357Y-67545295D01*
X146830357Y-67545295D02*
X146830357Y-67688152D01*
X146830357Y-67688152D02*
X146877976Y-67783390D01*
X146877976Y-67783390D02*
X146925595Y-67831009D01*
X146925595Y-67831009D02*
X147020833Y-67878628D01*
X147020833Y-67878628D02*
X147401785Y-67878628D01*
X145877976Y-68354819D02*
X146449404Y-68354819D01*
X146163690Y-68354819D02*
X146163690Y-67354819D01*
X146163690Y-67354819D02*
X146258928Y-67497676D01*
X146258928Y-67497676D02*
X146354166Y-67592914D01*
X146354166Y-67592914D02*
X146449404Y-67640533D01*
X144925595Y-68354819D02*
X145497023Y-68354819D01*
X145211309Y-68354819D02*
X145211309Y-67354819D01*
X145211309Y-67354819D02*
X145306547Y-67497676D01*
X145306547Y-67497676D02*
X145401785Y-67592914D01*
X145401785Y-67592914D02*
X145497023Y-67640533D01*
X162459819Y-83088095D02*
X163269342Y-83088095D01*
X163269342Y-83088095D02*
X163364580Y-83135714D01*
X163364580Y-83135714D02*
X163412200Y-83183333D01*
X163412200Y-83183333D02*
X163459819Y-83278571D01*
X163459819Y-83278571D02*
X163459819Y-83469047D01*
X163459819Y-83469047D02*
X163412200Y-83564285D01*
X163412200Y-83564285D02*
X163364580Y-83611904D01*
X163364580Y-83611904D02*
X163269342Y-83659523D01*
X163269342Y-83659523D02*
X162459819Y-83659523D01*
X162459819Y-84611904D02*
X162459819Y-84135714D01*
X162459819Y-84135714D02*
X162936009Y-84088095D01*
X162936009Y-84088095D02*
X162888390Y-84135714D01*
X162888390Y-84135714D02*
X162840771Y-84230952D01*
X162840771Y-84230952D02*
X162840771Y-84469047D01*
X162840771Y-84469047D02*
X162888390Y-84564285D01*
X162888390Y-84564285D02*
X162936009Y-84611904D01*
X162936009Y-84611904D02*
X163031247Y-84659523D01*
X163031247Y-84659523D02*
X163269342Y-84659523D01*
X163269342Y-84659523D02*
X163364580Y-84611904D01*
X163364580Y-84611904D02*
X163412200Y-84564285D01*
X163412200Y-84564285D02*
X163459819Y-84469047D01*
X163459819Y-84469047D02*
X163459819Y-84230952D01*
X163459819Y-84230952D02*
X163412200Y-84135714D01*
X163412200Y-84135714D02*
X163364580Y-84088095D01*
X150621428Y-105517319D02*
X150954761Y-105041128D01*
X151192856Y-105517319D02*
X151192856Y-104517319D01*
X151192856Y-104517319D02*
X150811904Y-104517319D01*
X150811904Y-104517319D02*
X150716666Y-104564938D01*
X150716666Y-104564938D02*
X150669047Y-104612557D01*
X150669047Y-104612557D02*
X150621428Y-104707795D01*
X150621428Y-104707795D02*
X150621428Y-104850652D01*
X150621428Y-104850652D02*
X150669047Y-104945890D01*
X150669047Y-104945890D02*
X150716666Y-104993509D01*
X150716666Y-104993509D02*
X150811904Y-105041128D01*
X150811904Y-105041128D02*
X151192856Y-105041128D01*
X150288094Y-104517319D02*
X149669047Y-104517319D01*
X149669047Y-104517319D02*
X150002380Y-104898271D01*
X150002380Y-104898271D02*
X149859523Y-104898271D01*
X149859523Y-104898271D02*
X149764285Y-104945890D01*
X149764285Y-104945890D02*
X149716666Y-104993509D01*
X149716666Y-104993509D02*
X149669047Y-105088747D01*
X149669047Y-105088747D02*
X149669047Y-105326842D01*
X149669047Y-105326842D02*
X149716666Y-105422080D01*
X149716666Y-105422080D02*
X149764285Y-105469700D01*
X149764285Y-105469700D02*
X149859523Y-105517319D01*
X149859523Y-105517319D02*
X150145237Y-105517319D01*
X150145237Y-105517319D02*
X150240475Y-105469700D01*
X150240475Y-105469700D02*
X150288094Y-105422080D01*
X149240475Y-105517319D02*
X149240475Y-104517319D01*
X148811904Y-105517319D02*
X148811904Y-104993509D01*
X148811904Y-104993509D02*
X148859523Y-104898271D01*
X148859523Y-104898271D02*
X148954761Y-104850652D01*
X148954761Y-104850652D02*
X149097618Y-104850652D01*
X149097618Y-104850652D02*
X149192856Y-104898271D01*
X149192856Y-104898271D02*
X149240475Y-104945890D01*
X148192856Y-105517319D02*
X148288094Y-105469700D01*
X148288094Y-105469700D02*
X148335713Y-105422080D01*
X148335713Y-105422080D02*
X148383332Y-105326842D01*
X148383332Y-105326842D02*
X148383332Y-105041128D01*
X148383332Y-105041128D02*
X148335713Y-104945890D01*
X148335713Y-104945890D02*
X148288094Y-104898271D01*
X148288094Y-104898271D02*
X148192856Y-104850652D01*
X148192856Y-104850652D02*
X148049999Y-104850652D01*
X148049999Y-104850652D02*
X147954761Y-104898271D01*
X147954761Y-104898271D02*
X147907142Y-104945890D01*
X147907142Y-104945890D02*
X147859523Y-105041128D01*
X147859523Y-105041128D02*
X147859523Y-105326842D01*
X147859523Y-105326842D02*
X147907142Y-105422080D01*
X147907142Y-105422080D02*
X147954761Y-105469700D01*
X147954761Y-105469700D02*
X148049999Y-105517319D01*
X148049999Y-105517319D02*
X148192856Y-105517319D01*
X147526189Y-104850652D02*
X147335713Y-105517319D01*
X147335713Y-105517319D02*
X147145237Y-105041128D01*
X147145237Y-105041128D02*
X146954761Y-105517319D01*
X146954761Y-105517319D02*
X146764285Y-104850652D01*
X145859523Y-105517319D02*
X146430951Y-105517319D01*
X146145237Y-105517319D02*
X146145237Y-104517319D01*
X146145237Y-104517319D02*
X146240475Y-104660176D01*
X146240475Y-104660176D02*
X146335713Y-104755414D01*
X146335713Y-104755414D02*
X146430951Y-104803033D01*
X142125476Y-67579580D02*
X142173095Y-67627200D01*
X142173095Y-67627200D02*
X142315952Y-67674819D01*
X142315952Y-67674819D02*
X142411190Y-67674819D01*
X142411190Y-67674819D02*
X142554047Y-67627200D01*
X142554047Y-67627200D02*
X142649285Y-67531961D01*
X142649285Y-67531961D02*
X142696904Y-67436723D01*
X142696904Y-67436723D02*
X142744523Y-67246247D01*
X142744523Y-67246247D02*
X142744523Y-67103390D01*
X142744523Y-67103390D02*
X142696904Y-66912914D01*
X142696904Y-66912914D02*
X142649285Y-66817676D01*
X142649285Y-66817676D02*
X142554047Y-66722438D01*
X142554047Y-66722438D02*
X142411190Y-66674819D01*
X142411190Y-66674819D02*
X142315952Y-66674819D01*
X142315952Y-66674819D02*
X142173095Y-66722438D01*
X142173095Y-66722438D02*
X142125476Y-66770057D01*
X141696904Y-67674819D02*
X141696904Y-66674819D01*
X141696904Y-67151009D02*
X141125476Y-67151009D01*
X141125476Y-67674819D02*
X141125476Y-66674819D01*
X140649285Y-67674819D02*
X140649285Y-66674819D01*
X140649285Y-66674819D02*
X140268333Y-66674819D01*
X140268333Y-66674819D02*
X140173095Y-66722438D01*
X140173095Y-66722438D02*
X140125476Y-66770057D01*
X140125476Y-66770057D02*
X140077857Y-66865295D01*
X140077857Y-66865295D02*
X140077857Y-67008152D01*
X140077857Y-67008152D02*
X140125476Y-67103390D01*
X140125476Y-67103390D02*
X140173095Y-67151009D01*
X140173095Y-67151009D02*
X140268333Y-67198628D01*
X140268333Y-67198628D02*
X140649285Y-67198628D01*
X139125476Y-67674819D02*
X139696904Y-67674819D01*
X139411190Y-67674819D02*
X139411190Y-66674819D01*
X139411190Y-66674819D02*
X139506428Y-66817676D01*
X139506428Y-66817676D02*
X139601666Y-66912914D01*
X139601666Y-66912914D02*
X139696904Y-66960533D01*
X141014166Y-76654819D02*
X141347499Y-76178628D01*
X141585594Y-76654819D02*
X141585594Y-75654819D01*
X141585594Y-75654819D02*
X141204642Y-75654819D01*
X141204642Y-75654819D02*
X141109404Y-75702438D01*
X141109404Y-75702438D02*
X141061785Y-75750057D01*
X141061785Y-75750057D02*
X141014166Y-75845295D01*
X141014166Y-75845295D02*
X141014166Y-75988152D01*
X141014166Y-75988152D02*
X141061785Y-76083390D01*
X141061785Y-76083390D02*
X141109404Y-76131009D01*
X141109404Y-76131009D02*
X141204642Y-76178628D01*
X141204642Y-76178628D02*
X141585594Y-76178628D01*
X140109404Y-75654819D02*
X140585594Y-75654819D01*
X140585594Y-75654819D02*
X140633213Y-76131009D01*
X140633213Y-76131009D02*
X140585594Y-76083390D01*
X140585594Y-76083390D02*
X140490356Y-76035771D01*
X140490356Y-76035771D02*
X140252261Y-76035771D01*
X140252261Y-76035771D02*
X140157023Y-76083390D01*
X140157023Y-76083390D02*
X140109404Y-76131009D01*
X140109404Y-76131009D02*
X140061785Y-76226247D01*
X140061785Y-76226247D02*
X140061785Y-76464342D01*
X140061785Y-76464342D02*
X140109404Y-76559580D01*
X140109404Y-76559580D02*
X140157023Y-76607200D01*
X140157023Y-76607200D02*
X140252261Y-76654819D01*
X140252261Y-76654819D02*
X140490356Y-76654819D01*
X140490356Y-76654819D02*
X140585594Y-76607200D01*
X140585594Y-76607200D02*
X140633213Y-76559580D01*
X147400476Y-72239580D02*
X147448095Y-72287200D01*
X147448095Y-72287200D02*
X147590952Y-72334819D01*
X147590952Y-72334819D02*
X147686190Y-72334819D01*
X147686190Y-72334819D02*
X147829047Y-72287200D01*
X147829047Y-72287200D02*
X147924285Y-72191961D01*
X147924285Y-72191961D02*
X147971904Y-72096723D01*
X147971904Y-72096723D02*
X148019523Y-71906247D01*
X148019523Y-71906247D02*
X148019523Y-71763390D01*
X148019523Y-71763390D02*
X147971904Y-71572914D01*
X147971904Y-71572914D02*
X147924285Y-71477676D01*
X147924285Y-71477676D02*
X147829047Y-71382438D01*
X147829047Y-71382438D02*
X147686190Y-71334819D01*
X147686190Y-71334819D02*
X147590952Y-71334819D01*
X147590952Y-71334819D02*
X147448095Y-71382438D01*
X147448095Y-71382438D02*
X147400476Y-71430057D01*
X146971904Y-72334819D02*
X146971904Y-71334819D01*
X146971904Y-71811009D02*
X146400476Y-71811009D01*
X146400476Y-72334819D02*
X146400476Y-71334819D01*
X145924285Y-72334819D02*
X145924285Y-71334819D01*
X145924285Y-71334819D02*
X145543333Y-71334819D01*
X145543333Y-71334819D02*
X145448095Y-71382438D01*
X145448095Y-71382438D02*
X145400476Y-71430057D01*
X145400476Y-71430057D02*
X145352857Y-71525295D01*
X145352857Y-71525295D02*
X145352857Y-71668152D01*
X145352857Y-71668152D02*
X145400476Y-71763390D01*
X145400476Y-71763390D02*
X145448095Y-71811009D01*
X145448095Y-71811009D02*
X145543333Y-71858628D01*
X145543333Y-71858628D02*
X145924285Y-71858628D01*
X144971904Y-71430057D02*
X144924285Y-71382438D01*
X144924285Y-71382438D02*
X144829047Y-71334819D01*
X144829047Y-71334819D02*
X144590952Y-71334819D01*
X144590952Y-71334819D02*
X144495714Y-71382438D01*
X144495714Y-71382438D02*
X144448095Y-71430057D01*
X144448095Y-71430057D02*
X144400476Y-71525295D01*
X144400476Y-71525295D02*
X144400476Y-71620533D01*
X144400476Y-71620533D02*
X144448095Y-71763390D01*
X144448095Y-71763390D02*
X145019523Y-72334819D01*
X145019523Y-72334819D02*
X144400476Y-72334819D01*
X151142080Y-102737499D02*
X151189700Y-102689880D01*
X151189700Y-102689880D02*
X151237319Y-102547023D01*
X151237319Y-102547023D02*
X151237319Y-102451785D01*
X151237319Y-102451785D02*
X151189700Y-102308928D01*
X151189700Y-102308928D02*
X151094461Y-102213690D01*
X151094461Y-102213690D02*
X150999223Y-102166071D01*
X150999223Y-102166071D02*
X150808747Y-102118452D01*
X150808747Y-102118452D02*
X150665890Y-102118452D01*
X150665890Y-102118452D02*
X150475414Y-102166071D01*
X150475414Y-102166071D02*
X150380176Y-102213690D01*
X150380176Y-102213690D02*
X150284938Y-102308928D01*
X150284938Y-102308928D02*
X150237319Y-102451785D01*
X150237319Y-102451785D02*
X150237319Y-102547023D01*
X150237319Y-102547023D02*
X150284938Y-102689880D01*
X150284938Y-102689880D02*
X150332557Y-102737499D01*
X151237319Y-103594642D02*
X150237319Y-103594642D01*
X151189700Y-103594642D02*
X151237319Y-103499404D01*
X151237319Y-103499404D02*
X151237319Y-103308928D01*
X151237319Y-103308928D02*
X151189700Y-103213690D01*
X151189700Y-103213690D02*
X151142080Y-103166071D01*
X151142080Y-103166071D02*
X151046842Y-103118452D01*
X151046842Y-103118452D02*
X150761128Y-103118452D01*
X150761128Y-103118452D02*
X150665890Y-103166071D01*
X150665890Y-103166071D02*
X150618271Y-103213690D01*
X150618271Y-103213690D02*
X150570652Y-103308928D01*
X150570652Y-103308928D02*
X150570652Y-103499404D01*
X150570652Y-103499404D02*
X150618271Y-103594642D01*
X151332557Y-103832738D02*
X151332557Y-104594642D01*
X150665890Y-104975595D02*
X150618271Y-104880357D01*
X150618271Y-104880357D02*
X150570652Y-104832738D01*
X150570652Y-104832738D02*
X150475414Y-104785119D01*
X150475414Y-104785119D02*
X150427795Y-104785119D01*
X150427795Y-104785119D02*
X150332557Y-104832738D01*
X150332557Y-104832738D02*
X150284938Y-104880357D01*
X150284938Y-104880357D02*
X150237319Y-104975595D01*
X150237319Y-104975595D02*
X150237319Y-105166071D01*
X150237319Y-105166071D02*
X150284938Y-105261309D01*
X150284938Y-105261309D02*
X150332557Y-105308928D01*
X150332557Y-105308928D02*
X150427795Y-105356547D01*
X150427795Y-105356547D02*
X150475414Y-105356547D01*
X150475414Y-105356547D02*
X150570652Y-105308928D01*
X150570652Y-105308928D02*
X150618271Y-105261309D01*
X150618271Y-105261309D02*
X150665890Y-105166071D01*
X150665890Y-105166071D02*
X150665890Y-104975595D01*
X150665890Y-104975595D02*
X150713509Y-104880357D01*
X150713509Y-104880357D02*
X150761128Y-104832738D01*
X150761128Y-104832738D02*
X150856366Y-104785119D01*
X150856366Y-104785119D02*
X151046842Y-104785119D01*
X151046842Y-104785119D02*
X151142080Y-104832738D01*
X151142080Y-104832738D02*
X151189700Y-104880357D01*
X151189700Y-104880357D02*
X151237319Y-104975595D01*
X151237319Y-104975595D02*
X151237319Y-105166071D01*
X151237319Y-105166071D02*
X151189700Y-105261309D01*
X151189700Y-105261309D02*
X151142080Y-105308928D01*
X151142080Y-105308928D02*
X151046842Y-105356547D01*
X151046842Y-105356547D02*
X150856366Y-105356547D01*
X150856366Y-105356547D02*
X150761128Y-105308928D01*
X150761128Y-105308928D02*
X150713509Y-105261309D01*
X150713509Y-105261309D02*
X150665890Y-105166071D01*
X141705357Y-84654819D02*
X142038690Y-84178628D01*
X142276785Y-84654819D02*
X142276785Y-83654819D01*
X142276785Y-83654819D02*
X141895833Y-83654819D01*
X141895833Y-83654819D02*
X141800595Y-83702438D01*
X141800595Y-83702438D02*
X141752976Y-83750057D01*
X141752976Y-83750057D02*
X141705357Y-83845295D01*
X141705357Y-83845295D02*
X141705357Y-83988152D01*
X141705357Y-83988152D02*
X141752976Y-84083390D01*
X141752976Y-84083390D02*
X141800595Y-84131009D01*
X141800595Y-84131009D02*
X141895833Y-84178628D01*
X141895833Y-84178628D02*
X142276785Y-84178628D01*
X140752976Y-84654819D02*
X141324404Y-84654819D01*
X141038690Y-84654819D02*
X141038690Y-83654819D01*
X141038690Y-83654819D02*
X141133928Y-83797676D01*
X141133928Y-83797676D02*
X141229166Y-83892914D01*
X141229166Y-83892914D02*
X141324404Y-83940533D01*
X140133928Y-83654819D02*
X140038690Y-83654819D01*
X140038690Y-83654819D02*
X139943452Y-83702438D01*
X139943452Y-83702438D02*
X139895833Y-83750057D01*
X139895833Y-83750057D02*
X139848214Y-83845295D01*
X139848214Y-83845295D02*
X139800595Y-84035771D01*
X139800595Y-84035771D02*
X139800595Y-84273866D01*
X139800595Y-84273866D02*
X139848214Y-84464342D01*
X139848214Y-84464342D02*
X139895833Y-84559580D01*
X139895833Y-84559580D02*
X139943452Y-84607200D01*
X139943452Y-84607200D02*
X140038690Y-84654819D01*
X140038690Y-84654819D02*
X140133928Y-84654819D01*
X140133928Y-84654819D02*
X140229166Y-84607200D01*
X140229166Y-84607200D02*
X140276785Y-84559580D01*
X140276785Y-84559580D02*
X140324404Y-84464342D01*
X140324404Y-84464342D02*
X140372023Y-84273866D01*
X140372023Y-84273866D02*
X140372023Y-84035771D01*
X140372023Y-84035771D02*
X140324404Y-83845295D01*
X140324404Y-83845295D02*
X140276785Y-83750057D01*
X140276785Y-83750057D02*
X140229166Y-83702438D01*
X140229166Y-83702438D02*
X140133928Y-83654819D01*
X148841666Y-87904819D02*
X149174999Y-87428628D01*
X149413094Y-87904819D02*
X149413094Y-86904819D01*
X149413094Y-86904819D02*
X149032142Y-86904819D01*
X149032142Y-86904819D02*
X148936904Y-86952438D01*
X148936904Y-86952438D02*
X148889285Y-87000057D01*
X148889285Y-87000057D02*
X148841666Y-87095295D01*
X148841666Y-87095295D02*
X148841666Y-87238152D01*
X148841666Y-87238152D02*
X148889285Y-87333390D01*
X148889285Y-87333390D02*
X148936904Y-87381009D01*
X148936904Y-87381009D02*
X149032142Y-87428628D01*
X149032142Y-87428628D02*
X149413094Y-87428628D01*
X148270237Y-87333390D02*
X148365475Y-87285771D01*
X148365475Y-87285771D02*
X148413094Y-87238152D01*
X148413094Y-87238152D02*
X148460713Y-87142914D01*
X148460713Y-87142914D02*
X148460713Y-87095295D01*
X148460713Y-87095295D02*
X148413094Y-87000057D01*
X148413094Y-87000057D02*
X148365475Y-86952438D01*
X148365475Y-86952438D02*
X148270237Y-86904819D01*
X148270237Y-86904819D02*
X148079761Y-86904819D01*
X148079761Y-86904819D02*
X147984523Y-86952438D01*
X147984523Y-86952438D02*
X147936904Y-87000057D01*
X147936904Y-87000057D02*
X147889285Y-87095295D01*
X147889285Y-87095295D02*
X147889285Y-87142914D01*
X147889285Y-87142914D02*
X147936904Y-87238152D01*
X147936904Y-87238152D02*
X147984523Y-87285771D01*
X147984523Y-87285771D02*
X148079761Y-87333390D01*
X148079761Y-87333390D02*
X148270237Y-87333390D01*
X148270237Y-87333390D02*
X148365475Y-87381009D01*
X148365475Y-87381009D02*
X148413094Y-87428628D01*
X148413094Y-87428628D02*
X148460713Y-87523866D01*
X148460713Y-87523866D02*
X148460713Y-87714342D01*
X148460713Y-87714342D02*
X148413094Y-87809580D01*
X148413094Y-87809580D02*
X148365475Y-87857200D01*
X148365475Y-87857200D02*
X148270237Y-87904819D01*
X148270237Y-87904819D02*
X148079761Y-87904819D01*
X148079761Y-87904819D02*
X147984523Y-87857200D01*
X147984523Y-87857200D02*
X147936904Y-87809580D01*
X147936904Y-87809580D02*
X147889285Y-87714342D01*
X147889285Y-87714342D02*
X147889285Y-87523866D01*
X147889285Y-87523866D02*
X147936904Y-87428628D01*
X147936904Y-87428628D02*
X147984523Y-87381009D01*
X147984523Y-87381009D02*
X148079761Y-87333390D01*
X162808928Y-109567319D02*
X163142261Y-109091128D01*
X163380356Y-109567319D02*
X163380356Y-108567319D01*
X163380356Y-108567319D02*
X162999404Y-108567319D01*
X162999404Y-108567319D02*
X162904166Y-108614938D01*
X162904166Y-108614938D02*
X162856547Y-108662557D01*
X162856547Y-108662557D02*
X162808928Y-108757795D01*
X162808928Y-108757795D02*
X162808928Y-108900652D01*
X162808928Y-108900652D02*
X162856547Y-108995890D01*
X162856547Y-108995890D02*
X162904166Y-109043509D01*
X162904166Y-109043509D02*
X162999404Y-109091128D01*
X162999404Y-109091128D02*
X163380356Y-109091128D01*
X162427975Y-108662557D02*
X162380356Y-108614938D01*
X162380356Y-108614938D02*
X162285118Y-108567319D01*
X162285118Y-108567319D02*
X162047023Y-108567319D01*
X162047023Y-108567319D02*
X161951785Y-108614938D01*
X161951785Y-108614938D02*
X161904166Y-108662557D01*
X161904166Y-108662557D02*
X161856547Y-108757795D01*
X161856547Y-108757795D02*
X161856547Y-108853033D01*
X161856547Y-108853033D02*
X161904166Y-108995890D01*
X161904166Y-108995890D02*
X162475594Y-109567319D01*
X162475594Y-109567319D02*
X161856547Y-109567319D01*
X161427975Y-109567319D02*
X161427975Y-108567319D01*
X160999404Y-109567319D02*
X160999404Y-109043509D01*
X160999404Y-109043509D02*
X161047023Y-108948271D01*
X161047023Y-108948271D02*
X161142261Y-108900652D01*
X161142261Y-108900652D02*
X161285118Y-108900652D01*
X161285118Y-108900652D02*
X161380356Y-108948271D01*
X161380356Y-108948271D02*
X161427975Y-108995890D01*
X160380356Y-109567319D02*
X160475594Y-109519700D01*
X160475594Y-109519700D02*
X160523213Y-109472080D01*
X160523213Y-109472080D02*
X160570832Y-109376842D01*
X160570832Y-109376842D02*
X160570832Y-109091128D01*
X160570832Y-109091128D02*
X160523213Y-108995890D01*
X160523213Y-108995890D02*
X160475594Y-108948271D01*
X160475594Y-108948271D02*
X160380356Y-108900652D01*
X160380356Y-108900652D02*
X160237499Y-108900652D01*
X160237499Y-108900652D02*
X160142261Y-108948271D01*
X160142261Y-108948271D02*
X160094642Y-108995890D01*
X160094642Y-108995890D02*
X160047023Y-109091128D01*
X160047023Y-109091128D02*
X160047023Y-109376842D01*
X160047023Y-109376842D02*
X160094642Y-109472080D01*
X160094642Y-109472080D02*
X160142261Y-109519700D01*
X160142261Y-109519700D02*
X160237499Y-109567319D01*
X160237499Y-109567319D02*
X160380356Y-109567319D01*
X159713689Y-108900652D02*
X159523213Y-109567319D01*
X159523213Y-109567319D02*
X159332737Y-109091128D01*
X159332737Y-109091128D02*
X159142261Y-109567319D01*
X159142261Y-109567319D02*
X158951785Y-108900652D01*
X158047023Y-109567319D02*
X158618451Y-109567319D01*
X158332737Y-109567319D02*
X158332737Y-108567319D01*
X158332737Y-108567319D02*
X158427975Y-108710176D01*
X158427975Y-108710176D02*
X158523213Y-108805414D01*
X158523213Y-108805414D02*
X158618451Y-108853033D01*
X155469404Y-110962319D02*
X155469404Y-111771842D01*
X155469404Y-111771842D02*
X155421785Y-111867080D01*
X155421785Y-111867080D02*
X155374166Y-111914700D01*
X155374166Y-111914700D02*
X155278928Y-111962319D01*
X155278928Y-111962319D02*
X155088452Y-111962319D01*
X155088452Y-111962319D02*
X154993214Y-111914700D01*
X154993214Y-111914700D02*
X154945595Y-111867080D01*
X154945595Y-111867080D02*
X154897976Y-111771842D01*
X154897976Y-111771842D02*
X154897976Y-110962319D01*
X154517023Y-110962319D02*
X153897976Y-110962319D01*
X153897976Y-110962319D02*
X154231309Y-111343271D01*
X154231309Y-111343271D02*
X154088452Y-111343271D01*
X154088452Y-111343271D02*
X153993214Y-111390890D01*
X153993214Y-111390890D02*
X153945595Y-111438509D01*
X153945595Y-111438509D02*
X153897976Y-111533747D01*
X153897976Y-111533747D02*
X153897976Y-111771842D01*
X153897976Y-111771842D02*
X153945595Y-111867080D01*
X153945595Y-111867080D02*
X153993214Y-111914700D01*
X153993214Y-111914700D02*
X154088452Y-111962319D01*
X154088452Y-111962319D02*
X154374166Y-111962319D01*
X154374166Y-111962319D02*
X154469404Y-111914700D01*
X154469404Y-111914700D02*
X154517023Y-111867080D01*
D11*
%TO.C,R4*%
X141074564Y-71765000D02*
X140620436Y-71765000D01*
X141074564Y-73235000D02*
X140620436Y-73235000D01*
%TO.C,RiAD1*%
X148322936Y-108027500D02*
X148777064Y-108027500D01*
X148322936Y-109497500D02*
X148777064Y-109497500D01*
%TO.C,Cd_4*%
X155590000Y-85434420D02*
X155590000Y-85715580D01*
X156610000Y-85434420D02*
X156610000Y-85715580D01*
%TO.C,U1*%
X167440000Y-78940000D02*
X167440000Y-79035000D01*
X167440000Y-83965000D02*
X167440000Y-84060000D01*
X167440000Y-84060000D02*
X171560000Y-84060000D01*
X171560000Y-78940000D02*
X167440000Y-78940000D01*
X171560000Y-79035000D02*
X171560000Y-78940000D01*
X171560000Y-84060000D02*
X171560000Y-83965000D01*
X172100000Y-79030000D02*
X171860000Y-78700000D01*
X172340000Y-78700000D01*
X172100000Y-79030000D01*
G36*
X172100000Y-79030000D02*
G01*
X171860000Y-78700000D01*
X172340000Y-78700000D01*
X172100000Y-79030000D01*
G37*
%TO.C,CLP2*%
X144234420Y-86940000D02*
X144515580Y-86940000D01*
X144234420Y-87960000D02*
X144515580Y-87960000D01*
%TO.C,Cd_2*%
X144244420Y-85340000D02*
X144525580Y-85340000D01*
X144244420Y-86360000D02*
X144525580Y-86360000D01*
%TO.C,R4how1*%
X160547936Y-102527500D02*
X161002064Y-102527500D01*
X160547936Y-103997500D02*
X161002064Y-103997500D01*
%TO.C,U4*%
X140555000Y-81075000D02*
X140555000Y-79125000D01*
X140555000Y-81075000D02*
X140555000Y-83025000D01*
X149425000Y-81075000D02*
X149425000Y-79125000D01*
X149425000Y-81075000D02*
X149425000Y-83025000D01*
X140620000Y-78375000D02*
X140290000Y-78615000D01*
X140290000Y-78135000D01*
X140620000Y-78375000D01*
G36*
X140620000Y-78375000D02*
G01*
X140290000Y-78615000D01*
X140290000Y-78135000D01*
X140620000Y-78375000D01*
G37*
%TO.C,D2*%
X139527500Y-95525000D02*
X138877500Y-95525000D01*
X139527500Y-95525000D02*
X140177500Y-95525000D01*
X139527500Y-98645000D02*
X138877500Y-98645000D01*
X139527500Y-98645000D02*
X140177500Y-98645000D01*
X138605000Y-98925000D02*
X138125000Y-98925000D01*
X138365000Y-98595000D01*
X138605000Y-98925000D01*
G36*
X138605000Y-98925000D02*
G01*
X138125000Y-98925000D01*
X138365000Y-98595000D01*
X138605000Y-98925000D01*
G37*
%TO.C,R2*%
X159360436Y-78290000D02*
X159814564Y-78290000D01*
X159360436Y-79760000D02*
X159814564Y-79760000D01*
%TO.C,Rbutton2*%
X129397936Y-87340000D02*
X129852064Y-87340000D01*
X129397936Y-88810000D02*
X129852064Y-88810000D01*
%TO.C,R1*%
X155810436Y-78290000D02*
X156264564Y-78290000D01*
X155810436Y-79760000D02*
X156264564Y-79760000D01*
%TO.C,R1how1*%
X160977064Y-104627500D02*
X160522936Y-104627500D01*
X160977064Y-106097500D02*
X160522936Y-106097500D01*
%TO.C,CLP1*%
X141075580Y-75890000D02*
X140794420Y-75890000D01*
X141075580Y-76910000D02*
X140794420Y-76910000D01*
%TO.C,Cd_01*%
X144144420Y-75840000D02*
X144425580Y-75840000D01*
X144144420Y-76860000D02*
X144425580Y-76860000D01*
%TO.C,R7*%
X146414564Y-67715000D02*
X145960436Y-67715000D01*
X146414564Y-69185000D02*
X145960436Y-69185000D01*
%TO.C,RfAD1*%
X148789564Y-110077500D02*
X148335436Y-110077500D01*
X148789564Y-111547500D02*
X148335436Y-111547500D01*
%TO.C,R3*%
X141074564Y-69765000D02*
X140620436Y-69765000D01*
X141074564Y-71235000D02*
X140620436Y-71235000D01*
%TO.C,Cd_6*%
X163490000Y-80640580D02*
X163490000Y-80359420D01*
X164510000Y-80640580D02*
X164510000Y-80359420D01*
%TO.C,Cd_7*%
X159352500Y-110578080D02*
X159352500Y-110296920D01*
X160372500Y-110578080D02*
X160372500Y-110296920D01*
%TO.C,R9*%
X140797936Y-88290000D02*
X141252064Y-88290000D01*
X140797936Y-89760000D02*
X141252064Y-89760000D01*
%TO.C,rhpad1*%
X147602064Y-94315000D02*
X147147936Y-94315000D01*
X147602064Y-95785000D02*
X147147936Y-95785000D01*
%TO.C,R6*%
X145970436Y-71765000D02*
X146424564Y-71765000D01*
X145970436Y-73235000D02*
X146424564Y-73235000D01*
%TO.C,Cschottky1*%
X134830000Y-97055580D02*
X134830000Y-96774420D01*
X135850000Y-97055580D02*
X135850000Y-96774420D01*
%TO.C,CHPad1*%
X147515580Y-96615000D02*
X147234420Y-96615000D01*
X147515580Y-97635000D02*
X147234420Y-97635000D01*
%TO.C,Cd_5*%
X167084420Y-85990000D02*
X167365580Y-85990000D01*
X167084420Y-87010000D02*
X167365580Y-87010000D01*
%TO.C,R11*%
X145960436Y-65515000D02*
X146414564Y-65515000D01*
X145960436Y-66985000D02*
X146414564Y-66985000D01*
%TO.C,U5*%
X157045000Y-83850000D02*
X157045000Y-81900000D01*
X157045000Y-83850000D02*
X157045000Y-85800000D01*
X162165000Y-83850000D02*
X162165000Y-81900000D01*
X162165000Y-83850000D02*
X162165000Y-85800000D01*
X162400000Y-86790000D02*
X162070000Y-86550000D01*
X162400000Y-86310000D01*
X162400000Y-86790000D01*
G36*
X162400000Y-86790000D02*
G01*
X162070000Y-86550000D01*
X162400000Y-86310000D01*
X162400000Y-86790000D01*
G37*
%TO.C,R3how1*%
X148777064Y-105977500D02*
X148322936Y-105977500D01*
X148777064Y-107447500D02*
X148322936Y-107447500D01*
%TO.C,CHP1*%
X141075580Y-68140000D02*
X140794420Y-68140000D01*
X141075580Y-69160000D02*
X140794420Y-69160000D01*
%TO.C,R5*%
X140620436Y-73815000D02*
X141074564Y-73815000D01*
X140620436Y-75285000D02*
X141074564Y-75285000D01*
%TO.C,CHP2*%
X146069420Y-69940000D02*
X146350580Y-69940000D01*
X146069420Y-70960000D02*
X146350580Y-70960000D01*
%TO.C,Cd_8*%
X151702500Y-103596920D02*
X151702500Y-103878080D01*
X152722500Y-103596920D02*
X152722500Y-103878080D01*
%TO.C,R10*%
X141289564Y-85115000D02*
X140835436Y-85115000D01*
X141289564Y-86585000D02*
X140835436Y-86585000D01*
%TO.C,R8*%
X148447936Y-85065000D02*
X148902064Y-85065000D01*
X148447936Y-86535000D02*
X148902064Y-86535000D01*
%TO.C,R2how1*%
X160510436Y-106727500D02*
X160964564Y-106727500D01*
X160510436Y-108197500D02*
X160964564Y-108197500D01*
%TO.C,U3*%
X154707500Y-105547500D02*
X152757500Y-105547500D01*
X154707500Y-105547500D02*
X156657500Y-105547500D01*
X154707500Y-110667500D02*
X152757500Y-110667500D01*
X154707500Y-110667500D02*
X156657500Y-110667500D01*
X152247500Y-110902500D02*
X151767500Y-110902500D01*
X152007500Y-110572500D01*
X152247500Y-110902500D01*
G36*
X152247500Y-110902500D02*
G01*
X151767500Y-110902500D01*
X152007500Y-110572500D01*
X152247500Y-110902500D01*
G37*
%TD*%
M02*
