%TF.GenerationSoftware,KiCad,Pcbnew,9.0.6*%
%TF.CreationDate,2026-06-07T21:25:06-03:00*%
%TF.ProjectId,PCB PFC,50434220-5046-4432-9e6b-696361645f70,rev?*%
%TF.SameCoordinates,Original*%
%TF.FileFunction,Legend,Top*%
%TF.FilePolarity,Positive*%
%FSLAX46Y46*%
G04 Gerber Fmt 4.6, Leading zero omitted, Abs format (unit mm)*
G04 Created by KiCad (PCBNEW 9.0.6) date 2026-06-07 21:25:06*
%MOMM*%
%LPD*%
G01*
G04 APERTURE LIST*
%ADD10C,0.150000*%
%ADD11C,0.100000*%
%ADD12C,0.120000*%
%ADD13C,0.127000*%
%ADD14C,0.200000*%
G04 APERTURE END LIST*
D10*
X169754819Y-92190833D02*
X170469104Y-92190833D01*
X170469104Y-92190833D02*
X170611961Y-92238452D01*
X170611961Y-92238452D02*
X170707200Y-92333690D01*
X170707200Y-92333690D02*
X170754819Y-92476547D01*
X170754819Y-92476547D02*
X170754819Y-92571785D01*
X170088152Y-91286071D02*
X170754819Y-91286071D01*
X169707200Y-91524166D02*
X170421485Y-91762261D01*
X170421485Y-91762261D02*
X170421485Y-91143214D01*
D11*
X160025714Y-104271704D02*
X160501904Y-104271704D01*
X159930476Y-104557419D02*
X160263809Y-103557419D01*
X160263809Y-103557419D02*
X160597142Y-104557419D01*
X160930476Y-104557419D02*
X160930476Y-103557419D01*
X160930476Y-103557419D02*
X161168571Y-103557419D01*
X161168571Y-103557419D02*
X161311428Y-103605038D01*
X161311428Y-103605038D02*
X161406666Y-103700276D01*
X161406666Y-103700276D02*
X161454285Y-103795514D01*
X161454285Y-103795514D02*
X161501904Y-103985990D01*
X161501904Y-103985990D02*
X161501904Y-104128847D01*
X161501904Y-104128847D02*
X161454285Y-104319323D01*
X161454285Y-104319323D02*
X161406666Y-104414561D01*
X161406666Y-104414561D02*
X161311428Y-104509800D01*
X161311428Y-104509800D02*
X161168571Y-104557419D01*
X161168571Y-104557419D02*
X160930476Y-104557419D01*
X162454285Y-104557419D02*
X161882857Y-104557419D01*
X162168571Y-104557419D02*
X162168571Y-103557419D01*
X162168571Y-103557419D02*
X162073333Y-103700276D01*
X162073333Y-103700276D02*
X161978095Y-103795514D01*
X161978095Y-103795514D02*
X161882857Y-103843133D01*
X152812419Y-100038972D02*
X153812419Y-99705639D01*
X153812419Y-99705639D02*
X152812419Y-99372306D01*
X153717180Y-98467544D02*
X153764800Y-98515163D01*
X153764800Y-98515163D02*
X153812419Y-98658020D01*
X153812419Y-98658020D02*
X153812419Y-98753258D01*
X153812419Y-98753258D02*
X153764800Y-98896115D01*
X153764800Y-98896115D02*
X153669561Y-98991353D01*
X153669561Y-98991353D02*
X153574323Y-99038972D01*
X153574323Y-99038972D02*
X153383847Y-99086591D01*
X153383847Y-99086591D02*
X153240990Y-99086591D01*
X153240990Y-99086591D02*
X153050514Y-99038972D01*
X153050514Y-99038972D02*
X152955276Y-98991353D01*
X152955276Y-98991353D02*
X152860038Y-98896115D01*
X152860038Y-98896115D02*
X152812419Y-98753258D01*
X152812419Y-98753258D02*
X152812419Y-98658020D01*
X152812419Y-98658020D02*
X152860038Y-98515163D01*
X152860038Y-98515163D02*
X152907657Y-98467544D01*
X153717180Y-97467544D02*
X153764800Y-97515163D01*
X153764800Y-97515163D02*
X153812419Y-97658020D01*
X153812419Y-97658020D02*
X153812419Y-97753258D01*
X153812419Y-97753258D02*
X153764800Y-97896115D01*
X153764800Y-97896115D02*
X153669561Y-97991353D01*
X153669561Y-97991353D02*
X153574323Y-98038972D01*
X153574323Y-98038972D02*
X153383847Y-98086591D01*
X153383847Y-98086591D02*
X153240990Y-98086591D01*
X153240990Y-98086591D02*
X153050514Y-98038972D01*
X153050514Y-98038972D02*
X152955276Y-97991353D01*
X152955276Y-97991353D02*
X152860038Y-97896115D01*
X152860038Y-97896115D02*
X152812419Y-97753258D01*
X152812419Y-97753258D02*
X152812419Y-97658020D01*
X152812419Y-97658020D02*
X152860038Y-97515163D01*
X152860038Y-97515163D02*
X152907657Y-97467544D01*
X155560038Y-99472306D02*
X155512419Y-99567544D01*
X155512419Y-99567544D02*
X155512419Y-99710401D01*
X155512419Y-99710401D02*
X155560038Y-99853258D01*
X155560038Y-99853258D02*
X155655276Y-99948496D01*
X155655276Y-99948496D02*
X155750514Y-99996115D01*
X155750514Y-99996115D02*
X155940990Y-100043734D01*
X155940990Y-100043734D02*
X156083847Y-100043734D01*
X156083847Y-100043734D02*
X156274323Y-99996115D01*
X156274323Y-99996115D02*
X156369561Y-99948496D01*
X156369561Y-99948496D02*
X156464800Y-99853258D01*
X156464800Y-99853258D02*
X156512419Y-99710401D01*
X156512419Y-99710401D02*
X156512419Y-99615163D01*
X156512419Y-99615163D02*
X156464800Y-99472306D01*
X156464800Y-99472306D02*
X156417180Y-99424687D01*
X156417180Y-99424687D02*
X156083847Y-99424687D01*
X156083847Y-99424687D02*
X156083847Y-99615163D01*
X156512419Y-98996115D02*
X155512419Y-98996115D01*
X155512419Y-98996115D02*
X156512419Y-98424687D01*
X156512419Y-98424687D02*
X155512419Y-98424687D01*
X156512419Y-97948496D02*
X155512419Y-97948496D01*
X155512419Y-97948496D02*
X155512419Y-97710401D01*
X155512419Y-97710401D02*
X155560038Y-97567544D01*
X155560038Y-97567544D02*
X155655276Y-97472306D01*
X155655276Y-97472306D02*
X155750514Y-97424687D01*
X155750514Y-97424687D02*
X155940990Y-97377068D01*
X155940990Y-97377068D02*
X156083847Y-97377068D01*
X156083847Y-97377068D02*
X156274323Y-97424687D01*
X156274323Y-97424687D02*
X156369561Y-97472306D01*
X156369561Y-97472306D02*
X156464800Y-97567544D01*
X156464800Y-97567544D02*
X156512419Y-97710401D01*
X156512419Y-97710401D02*
X156512419Y-97948496D01*
X165612419Y-99405639D02*
X165612419Y-99215163D01*
X165612419Y-99215163D02*
X165660038Y-99119925D01*
X165660038Y-99119925D02*
X165755276Y-99024687D01*
X165755276Y-99024687D02*
X165945752Y-98977068D01*
X165945752Y-98977068D02*
X166279085Y-98977068D01*
X166279085Y-98977068D02*
X166469561Y-99024687D01*
X166469561Y-99024687D02*
X166564800Y-99119925D01*
X166564800Y-99119925D02*
X166612419Y-99215163D01*
X166612419Y-99215163D02*
X166612419Y-99405639D01*
X166612419Y-99405639D02*
X166564800Y-99500877D01*
X166564800Y-99500877D02*
X166469561Y-99596115D01*
X166469561Y-99596115D02*
X166279085Y-99643734D01*
X166279085Y-99643734D02*
X165945752Y-99643734D01*
X165945752Y-99643734D02*
X165755276Y-99596115D01*
X165755276Y-99596115D02*
X165660038Y-99500877D01*
X165660038Y-99500877D02*
X165612419Y-99405639D01*
X165612419Y-98548496D02*
X166421942Y-98548496D01*
X166421942Y-98548496D02*
X166517180Y-98500877D01*
X166517180Y-98500877D02*
X166564800Y-98453258D01*
X166564800Y-98453258D02*
X166612419Y-98358020D01*
X166612419Y-98358020D02*
X166612419Y-98167544D01*
X166612419Y-98167544D02*
X166564800Y-98072306D01*
X166564800Y-98072306D02*
X166517180Y-98024687D01*
X166517180Y-98024687D02*
X166421942Y-97977068D01*
X166421942Y-97977068D02*
X165612419Y-97977068D01*
X165612419Y-97643734D02*
X165612419Y-97072306D01*
X166612419Y-97358020D02*
X165612419Y-97358020D01*
X151412419Y-99324687D02*
X150936228Y-99658020D01*
X151412419Y-99896115D02*
X150412419Y-99896115D01*
X150412419Y-99896115D02*
X150412419Y-99515163D01*
X150412419Y-99515163D02*
X150460038Y-99419925D01*
X150460038Y-99419925D02*
X150507657Y-99372306D01*
X150507657Y-99372306D02*
X150602895Y-99324687D01*
X150602895Y-99324687D02*
X150745752Y-99324687D01*
X150745752Y-99324687D02*
X150840990Y-99372306D01*
X150840990Y-99372306D02*
X150888609Y-99419925D01*
X150888609Y-99419925D02*
X150936228Y-99515163D01*
X150936228Y-99515163D02*
X150936228Y-99896115D01*
X150888609Y-98896115D02*
X150888609Y-98562782D01*
X151412419Y-98419925D02*
X151412419Y-98896115D01*
X151412419Y-98896115D02*
X150412419Y-98896115D01*
X150412419Y-98896115D02*
X150412419Y-98419925D01*
X150888609Y-97658020D02*
X150888609Y-97991353D01*
X151412419Y-97991353D02*
X150412419Y-97991353D01*
X150412419Y-97991353D02*
X150412419Y-97515163D01*
X163788609Y-99362782D02*
X163788609Y-99696115D01*
X164312419Y-99696115D02*
X163312419Y-99696115D01*
X163312419Y-99696115D02*
X163312419Y-99219925D01*
X164312419Y-98838972D02*
X163312419Y-98838972D01*
X163312419Y-98838972D02*
X164312419Y-98267544D01*
X164312419Y-98267544D02*
X163312419Y-98267544D01*
X164217180Y-97219925D02*
X164264800Y-97267544D01*
X164264800Y-97267544D02*
X164312419Y-97410401D01*
X164312419Y-97410401D02*
X164312419Y-97505639D01*
X164312419Y-97505639D02*
X164264800Y-97648496D01*
X164264800Y-97648496D02*
X164169561Y-97743734D01*
X164169561Y-97743734D02*
X164074323Y-97791353D01*
X164074323Y-97791353D02*
X163883847Y-97838972D01*
X163883847Y-97838972D02*
X163740990Y-97838972D01*
X163740990Y-97838972D02*
X163550514Y-97791353D01*
X163550514Y-97791353D02*
X163455276Y-97743734D01*
X163455276Y-97743734D02*
X163360038Y-97648496D01*
X163360038Y-97648496D02*
X163312419Y-97505639D01*
X163312419Y-97505639D02*
X163312419Y-97410401D01*
X163312419Y-97410401D02*
X163360038Y-97267544D01*
X163360038Y-97267544D02*
X163407657Y-97219925D01*
X161617180Y-99124687D02*
X161664800Y-99172306D01*
X161664800Y-99172306D02*
X161712419Y-99315163D01*
X161712419Y-99315163D02*
X161712419Y-99410401D01*
X161712419Y-99410401D02*
X161664800Y-99553258D01*
X161664800Y-99553258D02*
X161569561Y-99648496D01*
X161569561Y-99648496D02*
X161474323Y-99696115D01*
X161474323Y-99696115D02*
X161283847Y-99743734D01*
X161283847Y-99743734D02*
X161140990Y-99743734D01*
X161140990Y-99743734D02*
X160950514Y-99696115D01*
X160950514Y-99696115D02*
X160855276Y-99648496D01*
X160855276Y-99648496D02*
X160760038Y-99553258D01*
X160760038Y-99553258D02*
X160712419Y-99410401D01*
X160712419Y-99410401D02*
X160712419Y-99315163D01*
X160712419Y-99315163D02*
X160760038Y-99172306D01*
X160760038Y-99172306D02*
X160807657Y-99124687D01*
X161712419Y-98219925D02*
X161712419Y-98696115D01*
X161712419Y-98696115D02*
X160712419Y-98696115D01*
X161712419Y-97886591D02*
X160712419Y-97886591D01*
X161712419Y-97315163D02*
X161140990Y-97743734D01*
X160712419Y-97315163D02*
X161283847Y-97886591D01*
X159112419Y-99696115D02*
X158112419Y-99696115D01*
X158112419Y-99696115D02*
X158112419Y-99458020D01*
X158112419Y-99458020D02*
X158160038Y-99315163D01*
X158160038Y-99315163D02*
X158255276Y-99219925D01*
X158255276Y-99219925D02*
X158350514Y-99172306D01*
X158350514Y-99172306D02*
X158540990Y-99124687D01*
X158540990Y-99124687D02*
X158683847Y-99124687D01*
X158683847Y-99124687D02*
X158874323Y-99172306D01*
X158874323Y-99172306D02*
X158969561Y-99219925D01*
X158969561Y-99219925D02*
X159064800Y-99315163D01*
X159064800Y-99315163D02*
X159112419Y-99458020D01*
X159112419Y-99458020D02*
X159112419Y-99696115D01*
X158826704Y-98743734D02*
X158826704Y-98267544D01*
X159112419Y-98838972D02*
X158112419Y-98505639D01*
X158112419Y-98505639D02*
X159112419Y-98172306D01*
X158112419Y-97981829D02*
X158112419Y-97410401D01*
X159112419Y-97696115D02*
X158112419Y-97696115D01*
D10*
X142681666Y-99274819D02*
X142681666Y-99989104D01*
X142681666Y-99989104D02*
X142634047Y-100131961D01*
X142634047Y-100131961D02*
X142538809Y-100227200D01*
X142538809Y-100227200D02*
X142395952Y-100274819D01*
X142395952Y-100274819D02*
X142300714Y-100274819D01*
X143634047Y-99274819D02*
X143157857Y-99274819D01*
X143157857Y-99274819D02*
X143110238Y-99751009D01*
X143110238Y-99751009D02*
X143157857Y-99703390D01*
X143157857Y-99703390D02*
X143253095Y-99655771D01*
X143253095Y-99655771D02*
X143491190Y-99655771D01*
X143491190Y-99655771D02*
X143586428Y-99703390D01*
X143586428Y-99703390D02*
X143634047Y-99751009D01*
X143634047Y-99751009D02*
X143681666Y-99846247D01*
X143681666Y-99846247D02*
X143681666Y-100084342D01*
X143681666Y-100084342D02*
X143634047Y-100179580D01*
X143634047Y-100179580D02*
X143586428Y-100227200D01*
X143586428Y-100227200D02*
X143491190Y-100274819D01*
X143491190Y-100274819D02*
X143253095Y-100274819D01*
X143253095Y-100274819D02*
X143157857Y-100227200D01*
X143157857Y-100227200D02*
X143110238Y-100179580D01*
X121331009Y-72855952D02*
X121378628Y-72713095D01*
X121378628Y-72713095D02*
X121426247Y-72665476D01*
X121426247Y-72665476D02*
X121521485Y-72617857D01*
X121521485Y-72617857D02*
X121664342Y-72617857D01*
X121664342Y-72617857D02*
X121759580Y-72665476D01*
X121759580Y-72665476D02*
X121807200Y-72713095D01*
X121807200Y-72713095D02*
X121854819Y-72808333D01*
X121854819Y-72808333D02*
X121854819Y-73189285D01*
X121854819Y-73189285D02*
X120854819Y-73189285D01*
X120854819Y-73189285D02*
X120854819Y-72855952D01*
X120854819Y-72855952D02*
X120902438Y-72760714D01*
X120902438Y-72760714D02*
X120950057Y-72713095D01*
X120950057Y-72713095D02*
X121045295Y-72665476D01*
X121045295Y-72665476D02*
X121140533Y-72665476D01*
X121140533Y-72665476D02*
X121235771Y-72713095D01*
X121235771Y-72713095D02*
X121283390Y-72760714D01*
X121283390Y-72760714D02*
X121331009Y-72855952D01*
X121331009Y-72855952D02*
X121331009Y-73189285D01*
X120854819Y-72284523D02*
X120854819Y-71617857D01*
X120854819Y-71617857D02*
X121854819Y-72284523D01*
X121854819Y-72284523D02*
X121854819Y-71617857D01*
X121854819Y-70713095D02*
X121854819Y-71284523D01*
X121854819Y-70998809D02*
X120854819Y-70998809D01*
X120854819Y-70998809D02*
X120997676Y-71094047D01*
X120997676Y-71094047D02*
X121092914Y-71189285D01*
X121092914Y-71189285D02*
X121140533Y-71284523D01*
X126133866Y-76165951D02*
X126133866Y-75404047D01*
X126514819Y-75784999D02*
X125752914Y-75784999D01*
X150246428Y-65574819D02*
X150246428Y-66289104D01*
X150246428Y-66289104D02*
X150198809Y-66431961D01*
X150198809Y-66431961D02*
X150103571Y-66527200D01*
X150103571Y-66527200D02*
X149960714Y-66574819D01*
X149960714Y-66574819D02*
X149865476Y-66574819D01*
X151151190Y-66574819D02*
X151151190Y-66051009D01*
X151151190Y-66051009D02*
X151103571Y-65955771D01*
X151103571Y-65955771D02*
X151008333Y-65908152D01*
X151008333Y-65908152D02*
X150817857Y-65908152D01*
X150817857Y-65908152D02*
X150722619Y-65955771D01*
X151151190Y-66527200D02*
X151055952Y-66574819D01*
X151055952Y-66574819D02*
X150817857Y-66574819D01*
X150817857Y-66574819D02*
X150722619Y-66527200D01*
X150722619Y-66527200D02*
X150675000Y-66431961D01*
X150675000Y-66431961D02*
X150675000Y-66336723D01*
X150675000Y-66336723D02*
X150722619Y-66241485D01*
X150722619Y-66241485D02*
X150817857Y-66193866D01*
X150817857Y-66193866D02*
X151055952Y-66193866D01*
X151055952Y-66193866D02*
X151151190Y-66146247D01*
X152055952Y-66527200D02*
X151960714Y-66574819D01*
X151960714Y-66574819D02*
X151770238Y-66574819D01*
X151770238Y-66574819D02*
X151675000Y-66527200D01*
X151675000Y-66527200D02*
X151627381Y-66479580D01*
X151627381Y-66479580D02*
X151579762Y-66384342D01*
X151579762Y-66384342D02*
X151579762Y-66098628D01*
X151579762Y-66098628D02*
X151627381Y-66003390D01*
X151627381Y-66003390D02*
X151675000Y-65955771D01*
X151675000Y-65955771D02*
X151770238Y-65908152D01*
X151770238Y-65908152D02*
X151960714Y-65908152D01*
X151960714Y-65908152D02*
X152055952Y-65955771D01*
X152484524Y-66574819D02*
X152484524Y-65574819D01*
X152579762Y-66193866D02*
X152865476Y-66574819D01*
X152865476Y-65908152D02*
X152484524Y-66289104D01*
X153055953Y-66670057D02*
X153817857Y-66670057D01*
X153913096Y-65574819D02*
X154246429Y-66574819D01*
X154246429Y-66574819D02*
X154579762Y-65574819D01*
X155436905Y-66574819D02*
X154865477Y-66574819D01*
X155151191Y-66574819D02*
X155151191Y-65574819D01*
X155151191Y-65574819D02*
X155055953Y-65717676D01*
X155055953Y-65717676D02*
X154960715Y-65812914D01*
X154960715Y-65812914D02*
X154865477Y-65860533D01*
X149152976Y-101297319D02*
X149152976Y-100297319D01*
X149152976Y-100297319D02*
X149391071Y-100297319D01*
X149391071Y-100297319D02*
X149533928Y-100344938D01*
X149533928Y-100344938D02*
X149629166Y-100440176D01*
X149629166Y-100440176D02*
X149676785Y-100535414D01*
X149676785Y-100535414D02*
X149724404Y-100725890D01*
X149724404Y-100725890D02*
X149724404Y-100868747D01*
X149724404Y-100868747D02*
X149676785Y-101059223D01*
X149676785Y-101059223D02*
X149629166Y-101154461D01*
X149629166Y-101154461D02*
X149533928Y-101249700D01*
X149533928Y-101249700D02*
X149391071Y-101297319D01*
X149391071Y-101297319D02*
X149152976Y-101297319D01*
X150057738Y-100297319D02*
X150724404Y-100297319D01*
X150724404Y-100297319D02*
X150057738Y-101297319D01*
X150057738Y-101297319D02*
X150724404Y-101297319D01*
X151105357Y-101297319D02*
X151105357Y-100297319D01*
X151105357Y-100773509D02*
X151676785Y-100773509D01*
X151676785Y-101297319D02*
X151676785Y-100297319D01*
X152057738Y-100297319D02*
X152295833Y-101297319D01*
X152295833Y-101297319D02*
X152486309Y-100583033D01*
X152486309Y-100583033D02*
X152676785Y-101297319D01*
X152676785Y-101297319D02*
X152914881Y-100297319D01*
X153819642Y-101297319D02*
X153248214Y-101297319D01*
X153533928Y-101297319D02*
X153533928Y-100297319D01*
X153533928Y-100297319D02*
X153438690Y-100440176D01*
X153438690Y-100440176D02*
X153343452Y-100535414D01*
X153343452Y-100535414D02*
X153248214Y-100583033D01*
X147390595Y-101617319D02*
X147390595Y-100617319D01*
X147962023Y-101617319D02*
X147533452Y-101045890D01*
X147962023Y-100617319D02*
X147390595Y-101188747D01*
X137914819Y-96938094D02*
X136914819Y-96938094D01*
X136914819Y-96938094D02*
X136914819Y-96699999D01*
X136914819Y-96699999D02*
X136962438Y-96557142D01*
X136962438Y-96557142D02*
X137057676Y-96461904D01*
X137057676Y-96461904D02*
X137152914Y-96414285D01*
X137152914Y-96414285D02*
X137343390Y-96366666D01*
X137343390Y-96366666D02*
X137486247Y-96366666D01*
X137486247Y-96366666D02*
X137676723Y-96414285D01*
X137676723Y-96414285D02*
X137771961Y-96461904D01*
X137771961Y-96461904D02*
X137867200Y-96557142D01*
X137867200Y-96557142D02*
X137914819Y-96699999D01*
X137914819Y-96699999D02*
X137914819Y-96938094D01*
X137914819Y-95414285D02*
X137914819Y-95985713D01*
X137914819Y-95699999D02*
X136914819Y-95699999D01*
X136914819Y-95699999D02*
X137057676Y-95795237D01*
X137057676Y-95795237D02*
X137152914Y-95890475D01*
X137152914Y-95890475D02*
X137200533Y-95985713D01*
X137594819Y-92651904D02*
X136594819Y-92651904D01*
X137594819Y-92080476D02*
X137023390Y-92509047D01*
X136594819Y-92080476D02*
X137166247Y-92651904D01*
X137943095Y-63872319D02*
X137943095Y-64681842D01*
X137943095Y-64681842D02*
X137990714Y-64777080D01*
X137990714Y-64777080D02*
X138038333Y-64824700D01*
X138038333Y-64824700D02*
X138133571Y-64872319D01*
X138133571Y-64872319D02*
X138324047Y-64872319D01*
X138324047Y-64872319D02*
X138419285Y-64824700D01*
X138419285Y-64824700D02*
X138466904Y-64777080D01*
X138466904Y-64777080D02*
X138514523Y-64681842D01*
X138514523Y-64681842D02*
X138514523Y-63872319D01*
X139133571Y-64300890D02*
X139038333Y-64253271D01*
X139038333Y-64253271D02*
X138990714Y-64205652D01*
X138990714Y-64205652D02*
X138943095Y-64110414D01*
X138943095Y-64110414D02*
X138943095Y-64062795D01*
X138943095Y-64062795D02*
X138990714Y-63967557D01*
X138990714Y-63967557D02*
X139038333Y-63919938D01*
X139038333Y-63919938D02*
X139133571Y-63872319D01*
X139133571Y-63872319D02*
X139324047Y-63872319D01*
X139324047Y-63872319D02*
X139419285Y-63919938D01*
X139419285Y-63919938D02*
X139466904Y-63967557D01*
X139466904Y-63967557D02*
X139514523Y-64062795D01*
X139514523Y-64062795D02*
X139514523Y-64110414D01*
X139514523Y-64110414D02*
X139466904Y-64205652D01*
X139466904Y-64205652D02*
X139419285Y-64253271D01*
X139419285Y-64253271D02*
X139324047Y-64300890D01*
X139324047Y-64300890D02*
X139133571Y-64300890D01*
X139133571Y-64300890D02*
X139038333Y-64348509D01*
X139038333Y-64348509D02*
X138990714Y-64396128D01*
X138990714Y-64396128D02*
X138943095Y-64491366D01*
X138943095Y-64491366D02*
X138943095Y-64681842D01*
X138943095Y-64681842D02*
X138990714Y-64777080D01*
X138990714Y-64777080D02*
X139038333Y-64824700D01*
X139038333Y-64824700D02*
X139133571Y-64872319D01*
X139133571Y-64872319D02*
X139324047Y-64872319D01*
X139324047Y-64872319D02*
X139419285Y-64824700D01*
X139419285Y-64824700D02*
X139466904Y-64777080D01*
X139466904Y-64777080D02*
X139514523Y-64681842D01*
X139514523Y-64681842D02*
X139514523Y-64491366D01*
X139514523Y-64491366D02*
X139466904Y-64396128D01*
X139466904Y-64396128D02*
X139419285Y-64348509D01*
X139419285Y-64348509D02*
X139324047Y-64300890D01*
X147114819Y-108507143D02*
X147829104Y-108507143D01*
X147829104Y-108507143D02*
X147971961Y-108554762D01*
X147971961Y-108554762D02*
X148067200Y-108650000D01*
X148067200Y-108650000D02*
X148114819Y-108792857D01*
X148114819Y-108792857D02*
X148114819Y-108888095D01*
X148114819Y-107602381D02*
X147591009Y-107602381D01*
X147591009Y-107602381D02*
X147495771Y-107650000D01*
X147495771Y-107650000D02*
X147448152Y-107745238D01*
X147448152Y-107745238D02*
X147448152Y-107935714D01*
X147448152Y-107935714D02*
X147495771Y-108030952D01*
X148067200Y-107602381D02*
X148114819Y-107697619D01*
X148114819Y-107697619D02*
X148114819Y-107935714D01*
X148114819Y-107935714D02*
X148067200Y-108030952D01*
X148067200Y-108030952D02*
X147971961Y-108078571D01*
X147971961Y-108078571D02*
X147876723Y-108078571D01*
X147876723Y-108078571D02*
X147781485Y-108030952D01*
X147781485Y-108030952D02*
X147733866Y-107935714D01*
X147733866Y-107935714D02*
X147733866Y-107697619D01*
X147733866Y-107697619D02*
X147686247Y-107602381D01*
X148067200Y-106697619D02*
X148114819Y-106792857D01*
X148114819Y-106792857D02*
X148114819Y-106983333D01*
X148114819Y-106983333D02*
X148067200Y-107078571D01*
X148067200Y-107078571D02*
X148019580Y-107126190D01*
X148019580Y-107126190D02*
X147924342Y-107173809D01*
X147924342Y-107173809D02*
X147638628Y-107173809D01*
X147638628Y-107173809D02*
X147543390Y-107126190D01*
X147543390Y-107126190D02*
X147495771Y-107078571D01*
X147495771Y-107078571D02*
X147448152Y-106983333D01*
X147448152Y-106983333D02*
X147448152Y-106792857D01*
X147448152Y-106792857D02*
X147495771Y-106697619D01*
X148114819Y-106269047D02*
X147114819Y-106269047D01*
X147733866Y-106173809D02*
X148114819Y-105888095D01*
X147448152Y-105888095D02*
X147829104Y-106269047D01*
X148210057Y-105697619D02*
X148210057Y-104935714D01*
X147591009Y-104364285D02*
X147591009Y-104697618D01*
X148114819Y-104697618D02*
X147114819Y-104697618D01*
X147114819Y-104697618D02*
X147114819Y-104221428D01*
X147591009Y-103840475D02*
X147591009Y-103507142D01*
X148114819Y-103364285D02*
X148114819Y-103840475D01*
X148114819Y-103840475D02*
X147114819Y-103840475D01*
X147114819Y-103840475D02*
X147114819Y-103364285D01*
X148067200Y-102983332D02*
X148114819Y-102840475D01*
X148114819Y-102840475D02*
X148114819Y-102602380D01*
X148114819Y-102602380D02*
X148067200Y-102507142D01*
X148067200Y-102507142D02*
X148019580Y-102459523D01*
X148019580Y-102459523D02*
X147924342Y-102411904D01*
X147924342Y-102411904D02*
X147829104Y-102411904D01*
X147829104Y-102411904D02*
X147733866Y-102459523D01*
X147733866Y-102459523D02*
X147686247Y-102507142D01*
X147686247Y-102507142D02*
X147638628Y-102602380D01*
X147638628Y-102602380D02*
X147591009Y-102792856D01*
X147591009Y-102792856D02*
X147543390Y-102888094D01*
X147543390Y-102888094D02*
X147495771Y-102935713D01*
X147495771Y-102935713D02*
X147400533Y-102983332D01*
X147400533Y-102983332D02*
X147305295Y-102983332D01*
X147305295Y-102983332D02*
X147210057Y-102935713D01*
X147210057Y-102935713D02*
X147162438Y-102888094D01*
X147162438Y-102888094D02*
X147114819Y-102792856D01*
X147114819Y-102792856D02*
X147114819Y-102554761D01*
X147114819Y-102554761D02*
X147162438Y-102411904D01*
X148114819Y-101459523D02*
X148114819Y-102030951D01*
X148114819Y-101745237D02*
X147114819Y-101745237D01*
X147114819Y-101745237D02*
X147257676Y-101840475D01*
X147257676Y-101840475D02*
X147352914Y-101935713D01*
X147352914Y-101935713D02*
X147400533Y-102030951D01*
X128266667Y-79932200D02*
X128409524Y-79979819D01*
X128409524Y-79979819D02*
X128647619Y-79979819D01*
X128647619Y-79979819D02*
X128742857Y-79932200D01*
X128742857Y-79932200D02*
X128790476Y-79884580D01*
X128790476Y-79884580D02*
X128838095Y-79789342D01*
X128838095Y-79789342D02*
X128838095Y-79694104D01*
X128838095Y-79694104D02*
X128790476Y-79598866D01*
X128790476Y-79598866D02*
X128742857Y-79551247D01*
X128742857Y-79551247D02*
X128647619Y-79503628D01*
X128647619Y-79503628D02*
X128457143Y-79456009D01*
X128457143Y-79456009D02*
X128361905Y-79408390D01*
X128361905Y-79408390D02*
X128314286Y-79360771D01*
X128314286Y-79360771D02*
X128266667Y-79265533D01*
X128266667Y-79265533D02*
X128266667Y-79170295D01*
X128266667Y-79170295D02*
X128314286Y-79075057D01*
X128314286Y-79075057D02*
X128361905Y-79027438D01*
X128361905Y-79027438D02*
X128457143Y-78979819D01*
X128457143Y-78979819D02*
X128695238Y-78979819D01*
X128695238Y-78979819D02*
X128838095Y-79027438D01*
X129171429Y-78979819D02*
X129409524Y-79979819D01*
X129409524Y-79979819D02*
X129600000Y-79265533D01*
X129600000Y-79265533D02*
X129790476Y-79979819D01*
X129790476Y-79979819D02*
X130028572Y-78979819D01*
X130361905Y-79075057D02*
X130409524Y-79027438D01*
X130409524Y-79027438D02*
X130504762Y-78979819D01*
X130504762Y-78979819D02*
X130742857Y-78979819D01*
X130742857Y-78979819D02*
X130838095Y-79027438D01*
X130838095Y-79027438D02*
X130885714Y-79075057D01*
X130885714Y-79075057D02*
X130933333Y-79170295D01*
X130933333Y-79170295D02*
X130933333Y-79265533D01*
X130933333Y-79265533D02*
X130885714Y-79408390D01*
X130885714Y-79408390D02*
X130314286Y-79979819D01*
X130314286Y-79979819D02*
X130933333Y-79979819D01*
X149222976Y-98097319D02*
X149222976Y-97097319D01*
X149222976Y-97097319D02*
X149461071Y-97097319D01*
X149461071Y-97097319D02*
X149603928Y-97144938D01*
X149603928Y-97144938D02*
X149699166Y-97240176D01*
X149699166Y-97240176D02*
X149746785Y-97335414D01*
X149746785Y-97335414D02*
X149794404Y-97525890D01*
X149794404Y-97525890D02*
X149794404Y-97668747D01*
X149794404Y-97668747D02*
X149746785Y-97859223D01*
X149746785Y-97859223D02*
X149699166Y-97954461D01*
X149699166Y-97954461D02*
X149603928Y-98049700D01*
X149603928Y-98049700D02*
X149461071Y-98097319D01*
X149461071Y-98097319D02*
X149222976Y-98097319D01*
X150127738Y-97097319D02*
X150794404Y-97097319D01*
X150794404Y-97097319D02*
X150127738Y-98097319D01*
X150127738Y-98097319D02*
X150794404Y-98097319D01*
X151175357Y-98097319D02*
X151175357Y-97097319D01*
X151175357Y-97573509D02*
X151746785Y-97573509D01*
X151746785Y-98097319D02*
X151746785Y-97097319D01*
X152127738Y-97097319D02*
X152365833Y-98097319D01*
X152365833Y-98097319D02*
X152556309Y-97383033D01*
X152556309Y-97383033D02*
X152746785Y-98097319D01*
X152746785Y-98097319D02*
X152984881Y-97097319D01*
X153318214Y-97192557D02*
X153365833Y-97144938D01*
X153365833Y-97144938D02*
X153461071Y-97097319D01*
X153461071Y-97097319D02*
X153699166Y-97097319D01*
X153699166Y-97097319D02*
X153794404Y-97144938D01*
X153794404Y-97144938D02*
X153842023Y-97192557D01*
X153842023Y-97192557D02*
X153889642Y-97287795D01*
X153889642Y-97287795D02*
X153889642Y-97383033D01*
X153889642Y-97383033D02*
X153842023Y-97525890D01*
X153842023Y-97525890D02*
X153270595Y-98097319D01*
X153270595Y-98097319D02*
X153889642Y-98097319D01*
X147460595Y-98417319D02*
X147460595Y-97417319D01*
X148032023Y-98417319D02*
X147603452Y-97845890D01*
X148032023Y-97417319D02*
X147460595Y-97988747D01*
D12*
%TO.C,J4*%
X170640000Y-82690000D02*
X170640000Y-92910000D01*
X170640000Y-92910000D02*
X174660000Y-92910000D01*
X171140000Y-83190000D02*
X172350000Y-83190000D01*
X171140000Y-92410000D02*
X171140000Y-83190000D01*
X172350000Y-83190000D02*
X172350000Y-82690000D01*
X172350000Y-92410000D02*
X171140000Y-92410000D01*
X172350000Y-92910000D02*
X172350000Y-92410000D01*
X172460000Y-93210000D02*
X174960000Y-93210000D01*
X173160000Y-82690000D02*
X173160000Y-83690000D01*
X173160000Y-83690000D02*
X174660000Y-83690000D01*
X173160000Y-91910000D02*
X174660000Y-91910000D01*
X173160000Y-92910000D02*
X173160000Y-91910000D01*
X174660000Y-82690000D02*
X170640000Y-82690000D01*
X174660000Y-92910000D02*
X174660000Y-82690000D01*
X174960000Y-93210000D02*
X174960000Y-90710000D01*
%TO.C,AD1*%
D11*
X173240000Y-94600000D02*
X149240000Y-94600000D01*
X149240000Y-114600000D01*
X173240000Y-114600000D01*
X173240000Y-94600000D01*
D12*
%TO.C,J5*%
X141685000Y-95780000D02*
X141685000Y-93180000D01*
X141685000Y-98380000D02*
X141685000Y-97050000D01*
X143015000Y-98380000D02*
X141685000Y-98380000D01*
X144345000Y-93180000D02*
X141685000Y-93180000D01*
X144345000Y-95780000D02*
X141685000Y-95780000D01*
X144345000Y-95780000D02*
X144345000Y-93180000D01*
%TO.C,BZ1*%
X134700000Y-71975000D02*
G75*
G02*
X122500000Y-71975000I-6100000J0D01*
G01*
X122500000Y-71975000D02*
G75*
G02*
X134700000Y-71975000I6100000J0D01*
G01*
D13*
%TO.C,Jack_V1*%
X156300000Y-76525000D02*
X156300000Y-65525000D01*
X168300000Y-65525000D02*
X156300000Y-65525000D01*
X168300000Y-76525000D02*
X156300000Y-76525000D01*
X168300000Y-76525000D02*
X168300000Y-65525000D01*
D14*
X162400000Y-77225000D02*
G75*
G02*
X162200000Y-77225000I-100000J0D01*
G01*
X162200000Y-77225000D02*
G75*
G02*
X162400000Y-77225000I100000J0D01*
G01*
D12*
%TO.C,DZHW1*%
X148692500Y-102962500D02*
X149342500Y-102962500D01*
X149342500Y-101842500D02*
X149342500Y-104082500D01*
X149342500Y-104082500D02*
X153582500Y-104082500D01*
X149942500Y-101842500D02*
X149942500Y-104082500D01*
X150062500Y-101842500D02*
X150062500Y-104082500D01*
X150182500Y-101842500D02*
X150182500Y-104082500D01*
X153582500Y-101842500D02*
X149342500Y-101842500D01*
X153582500Y-104082500D02*
X153582500Y-101842500D01*
X154232500Y-102962500D02*
X153582500Y-102962500D01*
%TO.C,D1*%
X134220000Y-94080000D02*
X134220000Y-98320000D01*
X134220000Y-98320000D02*
X136460000Y-98320000D01*
X135340000Y-93430000D02*
X135340000Y-94080000D01*
X135340000Y-98970000D02*
X135340000Y-98320000D01*
X136460000Y-94080000D02*
X134220000Y-94080000D01*
X136460000Y-94680000D02*
X134220000Y-94680000D01*
X136460000Y-94800000D02*
X134220000Y-94800000D01*
X136460000Y-94920000D02*
X134220000Y-94920000D01*
X136460000Y-98320000D02*
X136460000Y-94080000D01*
D13*
%TO.C,U8*%
X135420000Y-89420000D02*
X135420000Y-66720000D01*
X139920000Y-65420000D02*
X139920000Y-66720000D01*
X139920000Y-66720000D02*
X135420000Y-66720000D01*
X148920000Y-65420000D02*
X139920000Y-65420000D01*
X148920000Y-65420000D02*
X148920000Y-66720000D01*
X153420000Y-66720000D02*
X148920000Y-66720000D01*
X153420000Y-89420000D02*
X135420000Y-89420000D01*
X153420000Y-89420000D02*
X153420000Y-66720000D01*
%TO.C,Jack_FES1*%
X133525000Y-101975000D02*
X133525000Y-113975000D01*
X144525000Y-101975000D02*
X133525000Y-101975000D01*
X144525000Y-101975000D02*
X144525000Y-113975000D01*
X144525000Y-113975000D02*
X133525000Y-113975000D01*
D14*
X145325000Y-107975000D02*
G75*
G02*
X145125000Y-107975000I-100000J0D01*
G01*
X145125000Y-107975000D02*
G75*
G02*
X145325000Y-107975000I100000J0D01*
G01*
D12*
%TO.C,SW2*%
X126100000Y-83025000D02*
X126100000Y-84525000D01*
X127350000Y-87025000D02*
X131850000Y-87025000D01*
X131850000Y-80525000D02*
X127350000Y-80525000D01*
X133100000Y-84525000D02*
X133100000Y-83025000D01*
%TO.C,DZHW2*%
X148762500Y-99762500D02*
X149412500Y-99762500D01*
X149412500Y-98642500D02*
X149412500Y-100882500D01*
X149412500Y-100882500D02*
X153652500Y-100882500D01*
X150012500Y-98642500D02*
X150012500Y-100882500D01*
X150132500Y-98642500D02*
X150132500Y-100882500D01*
X150252500Y-98642500D02*
X150252500Y-100882500D01*
X153652500Y-98642500D02*
X149412500Y-98642500D01*
X153652500Y-100882500D02*
X153652500Y-98642500D01*
X154302500Y-99762500D02*
X153652500Y-99762500D01*
%TD*%
M02*
