%TF.GenerationSoftware,KiCad,Pcbnew,9.0.6*%
%TF.CreationDate,2026-06-07T21:25:06-03:00*%
%TF.ProjectId,PCB PFC,50434220-5046-4432-9e6b-696361645f70,rev?*%
%TF.SameCoordinates,Original*%
%TF.FileFunction,Soldermask,Top*%
%TF.FilePolarity,Negative*%
%FSLAX46Y46*%
G04 Gerber Fmt 4.6, Leading zero omitted, Abs format (unit mm)*
G04 Created by KiCad (PCBNEW 9.0.6) date 2026-06-07 21:25:06*
%MOMM*%
%LPD*%
G01*
G04 APERTURE LIST*
G04 Aperture macros list*
%AMRoundRect*
0 Rectangle with rounded corners*
0 $1 Rounding radius*
0 $2 $3 $4 $5 $6 $7 $8 $9 X,Y pos of 4 corners*
0 Add a 4 corners polygon primitive as box body*
4,1,4,$2,$3,$4,$5,$6,$7,$8,$9,$2,$3,0*
0 Add four circle primitives for the rounded corners*
1,1,$1+$1,$2,$3*
1,1,$1+$1,$4,$5*
1,1,$1+$1,$6,$7*
1,1,$1+$1,$8,$9*
0 Add four rect primitives between the rounded corners*
20,1,$1+$1,$2,$3,$4,$5,0*
20,1,$1+$1,$4,$5,$6,$7,0*
20,1,$1+$1,$6,$7,$8,$9,0*
20,1,$1+$1,$8,$9,$2,$3,0*%
G04 Aperture macros list end*
%ADD10RoundRect,0.250000X0.725000X-0.600000X0.725000X0.600000X-0.725000X0.600000X-0.725000X-0.600000X0*%
%ADD11O,1.950000X1.700000*%
%ADD12C,1.600000*%
%ADD13R,1.700000X1.700000*%
%ADD14O,1.700000X1.700000*%
%ADD15R,2.000000X2.000000*%
%ADD16C,2.000000*%
%ADD17C,1.200000*%
%ADD18O,2.820000X1.512000*%
%ADD19O,1.512000X2.820000*%
%ADD20R,1.600000X1.600000*%
%ADD21O,1.600000X1.600000*%
%ADD22C,1.552000*%
G04 APERTURE END LIST*
D10*
%TO.C,J4*%
X172350000Y-90300000D03*
D11*
X172350000Y-87800000D03*
X172350000Y-85300000D03*
%TD*%
D12*
%TO.C,AD1*%
X166740000Y-96000000D03*
X164200000Y-96000000D03*
X161660000Y-96000000D03*
X159120000Y-96000000D03*
X156580000Y-96000000D03*
X154040000Y-96000000D03*
X151500000Y-96000000D03*
%TD*%
D13*
%TO.C,J5*%
X143015000Y-97050000D03*
D14*
X143015000Y-94510000D03*
%TD*%
D15*
%TO.C,BZ1*%
X128600000Y-75775000D03*
D16*
X128600000Y-68175000D03*
%TD*%
D17*
%TO.C,Jack_V1*%
X167300000Y-69025000D03*
X167300000Y-66525000D03*
X162300000Y-74025000D03*
X157300000Y-69025000D03*
X157300000Y-66525000D03*
D18*
X162300000Y-69025000D03*
D19*
X157300000Y-74025000D03*
X167300000Y-74025000D03*
X159800000Y-74025000D03*
X164800000Y-74025000D03*
%TD*%
D20*
%TO.C,DZHW1*%
X147652500Y-102962500D03*
D21*
X155272500Y-102962500D03*
%TD*%
D20*
%TO.C,D1*%
X135340000Y-92390000D03*
D21*
X135340000Y-100010000D03*
%TD*%
D22*
%TO.C,U8*%
X152040000Y-85950000D03*
X152040000Y-83410000D03*
X152040000Y-80870000D03*
X152040000Y-78330000D03*
X152040000Y-73250000D03*
X152040000Y-75790000D03*
X136800000Y-68170000D03*
X152040000Y-68170000D03*
X136800000Y-70710000D03*
X136800000Y-73250000D03*
X136800000Y-75790000D03*
X136800000Y-78330000D03*
X136800000Y-80870000D03*
X136800000Y-83410000D03*
X136800000Y-85950000D03*
X152040000Y-70710000D03*
%TD*%
D17*
%TO.C,Jack_FES1*%
X137025000Y-102975000D03*
X134525000Y-102975000D03*
X142025000Y-107975000D03*
X137025000Y-112975000D03*
X134525000Y-112975000D03*
D19*
X137025000Y-107975000D03*
D18*
X142025000Y-112975000D03*
X142025000Y-102975000D03*
X142025000Y-110475000D03*
X142025000Y-105475000D03*
%TD*%
D16*
%TO.C,SW2*%
X126350000Y-81525000D03*
X132850000Y-81525000D03*
X126350000Y-86025000D03*
X132850000Y-86025000D03*
%TD*%
D20*
%TO.C,DZHW2*%
X147722500Y-99762500D03*
D21*
X155342500Y-99762500D03*
%TD*%
M02*
