M48
; DRILL file {KiCad 9.0.6} date 2026-06-07T21:25:06-0300
; FORMAT={-:-/ absolute / metric / decimal}
; #@! TF.CreationDate,2026-06-07T21:25:06-03:00
; #@! TF.GenerationSoftware,Kicad,Pcbnew,9.0.6
; #@! TF.FileFunction,MixedPlating,1,2
FMAT,2
METRIC
; #@! TA.AperFunction,Plated,PTH,ViaDrill
T1C0.600
; #@! TA.AperFunction,Plated,PTH,ViaDrill
T2C0.800
; #@! TA.AperFunction,Plated,PTH,ComponentDrill
T3C0.800
; #@! TA.AperFunction,Plated,PTH,ComponentDrill
T4C0.840
; #@! TA.AperFunction,Plated,PTH,ComponentDrill
T5C0.950
; #@! TA.AperFunction,Plated,PTH,ViaDrill
T6C1.000
; #@! TA.AperFunction,Plated,PTH,ComponentDrill
T7C1.000
; #@! TA.AperFunction,Plated,PTH,ComponentDrill
T8C1.100
; #@! TA.AperFunction,NonPlated,NPTH,ComponentDrill
T9C1.200
%
G90
G05
T1
X161.713Y-109.512
X164.162Y-109.512
T2
X122.425Y-78.375
X122.425Y-79.75
X129.45Y-78.375
X129.45Y-79.75
X137.75Y-87.45
X140.15Y-87.45
X141.045Y-91.755
X141.7Y-62.075
X141.7Y-66.9
X142.925Y-63.25
X142.95Y-66.9
X145.5Y-101.5
X145.5Y-105.5
X146.575Y-76.325
X147.375Y-90.15
X149.95Y-76.325
X150.0Y-93.5
X150.0Y-100.0
X150.575Y-91.775
X153.0Y-94.0
X153.85Y-63.275
X153.85Y-69.25
X155.0Y-92.5
X155.225Y-62.15
X155.225Y-69.2
X157.025Y-90.15
X157.375Y-99.775
X160.0Y-94.0
X161.65Y-111.15
X162.0Y-92.575
X163.25Y-86.325
X163.25Y-89.175
X164.0Y-83.0
X164.0Y-85.3
X164.0Y-94.0
X164.5Y-87.2
X165.5Y-108.0
X169.0Y-108.0
X169.275Y-111.15
X170.625Y-93.5
X172.375Y-99.75
X176.0Y-93.5
T3
X135.34Y-92.39
X135.34Y-100.01
X147.653Y-102.962
X147.722Y-99.762
X151.5Y-96.0
X154.04Y-96.0
X155.272Y-102.962
X155.343Y-99.762
X156.58Y-96.0
X159.12Y-96.0
X161.66Y-96.0
X164.2Y-96.0
X166.74Y-96.0
T4
X136.8Y-68.17
X136.8Y-70.71
X136.8Y-73.25
X136.8Y-75.79
X136.8Y-78.33
X136.8Y-80.87
X136.8Y-83.41
X136.8Y-85.95
X152.04Y-68.17
X152.04Y-70.71
X152.04Y-73.25
X152.04Y-75.79
X152.04Y-78.33
X152.04Y-80.87
X152.04Y-83.41
X152.04Y-85.95
T5
X172.35Y-85.3
X172.35Y-87.8
X172.35Y-90.3
T6
X120.725Y-75.525
X171.95Y-103.975
X172.05Y-64.025
T7
X128.6Y-68.175
X128.6Y-75.775
X143.015Y-94.51
X143.015Y-97.05
T8
X126.35Y-81.525
X126.35Y-86.025
X132.85Y-81.525
X132.85Y-86.025
T9
X134.525Y-102.975
X134.525Y-112.975
X137.025Y-102.975
X137.025Y-112.975
X142.025Y-107.975
X157.3Y-66.525
X157.3Y-69.025
X162.3Y-74.025
X167.3Y-66.525
X167.3Y-69.025
T3
X137.025Y-107.625G85X137.025Y-108.325
G05
X142.375Y-102.975G85X141.675Y-102.975
G05
X142.375Y-105.475G85X141.675Y-105.475
G05
X142.375Y-110.475G85X141.675Y-110.475
G05
X142.375Y-112.975G85X141.675Y-112.975
G05
X157.3Y-74.375G85X157.3Y-73.675
G05
X159.8Y-74.375G85X159.8Y-73.675
G05
X162.65Y-69.025G85X161.95Y-69.025
G05
X164.8Y-74.375G85X164.8Y-73.675
G05
X167.3Y-74.375G85X167.3Y-73.675
G05
M30
